<?xml version="1.0" encoding="utf-8"?>
<!-- Generator: Adobe Illustrator 21.1.0, SVG Export Plug-In . SVG Version: 6.00 Build 0)  -->
<svg version="1.1" id="レイヤー_1" xmlns="http://www.w3.org/2000/svg" xmlns:xlink="http://www.w3.org/1999/xlink" x="0px"
	 y="0px" viewBox="0 0 25 25" style="enable-background:new 0 0 25 25;" xml:space="preserve">
<style type="text/css">
	.st0{fill:#562608;}
</style>
<g>
	<path class="st0" d="M12.5,2.2531c3.3376,0,3.733,0.0124,5.051,0.073c1.2188,0.0553,1.8807,0.2589,2.3211,0.4301
		c0.5835,0.2265,0.9998,0.4978,1.4373,0.935c0.4374,0.4373,0.7084,0.8536,0.9351,1.4372c0.1711,0.4406,0.3748,1.102,0.4305,2.3203
		c0.06,1.3185,0.0726,1.7142,0.0726,5.0516c0,3.3379-0.0126,3.7332-0.0726,5.0512c-0.0557,1.2188-0.2594,1.8811-0.4305,2.3207
		c-0.2267,0.5842-0.4977,1.0004-0.9351,1.4377c-0.4375,0.4377-0.8538,0.7086-1.4373,0.9351
		c-0.4404,0.1712-1.1023,0.3752-2.3211,0.4306c-1.3178,0.0596-1.7131,0.0724-5.051,0.0724s-3.7332-0.0128-5.0511-0.0724
		c-1.2187-0.0554-1.8805-0.2594-2.3211-0.4306c-0.5835-0.2265-0.9998-0.4974-1.4372-0.9351
		c-0.4374-0.4373-0.7083-0.8535-0.9351-1.4377c-0.1712-0.4396-0.3748-1.1019-0.4304-2.3207
		c-0.0601-1.318-0.0729-1.7133-0.0729-5.0512c0-3.3374,0.0128-3.7331,0.0729-5.0516C2.3807,6.2304,2.5843,5.569,2.7555,5.1284
		c0.2268-0.5836,0.4977-0.9999,0.9351-1.4372C4.128,3.254,4.5443,2.9827,5.1278,2.7562C5.5684,2.585,6.2302,2.3814,7.4489,2.3261
		C8.7669,2.2655,9.1624,2.2531,12.5,2.2531 M12.5,0C9.1051,0,8.6795,0.0148,7.3463,0.0759C6.0158,0.1364,5.107,0.3477,4.312,0.6571
		C3.49,0.9766,2.7928,1.4038,2.098,2.0986c-0.6949,0.6948-1.1223,1.3919-1.4418,2.214c-0.309,0.7948-0.5204,1.7032-0.581,3.0345
		C0.0144,8.6799,0,9.1057,0,12.5003c0,3.3951,0.0144,3.8209,0.0752,5.1542c0.0606,1.3303,0.272,2.2392,0.581,3.0346
		c0.3195,0.8211,0.7469,1.5187,1.4418,2.2134c0.6948,0.6953,1.392,1.1225,2.214,1.442c0.795,0.3085,1.7038,0.5202,3.0343,0.5812
		c1.3332,0.0601,1.7588,0.0744,5.1537,0.0744c3.3948,0,3.8204-0.0143,5.1537-0.0744c1.3305-0.061,2.2391-0.2727,3.0343-0.5812
		c0.8218-0.3195,1.5191-0.7467,2.214-1.442c0.6949-0.6947,1.1224-1.3923,1.4417-2.2134c0.3091-0.7954,0.5204-1.7043,0.5812-3.0346
		c0.0606-1.3333,0.0752-1.7591,0.0752-5.1542c0-3.3946-0.0146-3.8204-0.0752-5.1532c-0.0608-1.3313-0.2721-2.2397-0.5812-3.0345
		c-0.3193-0.8221-0.7468-1.5192-1.4417-2.214c-0.6949-0.6948-1.3922-1.122-2.214-1.4415c-0.7952-0.3094-1.7038-0.5207-3.0343-0.5812
		C16.3204,0.0148,15.8948,0,12.5,0L12.5,0z"/>
	<path class="st0" d="M12.5,6.0816c-3.5452,0-6.4189,2.8734-6.4189,6.4187S8.9548,18.919,12.5,18.919
		c3.5451,0,6.4189-2.8734,6.4189-6.4187S16.0451,6.0816,12.5,6.0816z M12.5,16.6674c-2.3012,0-4.1667-1.8659-4.1667-4.1671
		c0-2.3007,1.8655-4.1661,4.1667-4.1661s4.1666,1.8654,4.1666,4.1661C16.6666,14.8015,14.8012,16.6674,12.5,16.6674z"/>
	<path class="st0" d="M20.6725,5.8275c0,0.8292-0.6716,1.5006-1.5,1.5006c-0.8284,0-1.5-0.6714-1.5-1.5006
		c0-0.8283,0.6716-1.4997,1.5-1.4997C20.0009,4.3278,20.6725,4.9992,20.6725,5.8275z"/>
</g>
</svg>
