<?xml version="1.0" encoding="utf-8"?>
<!-- Generator: Adobe Illustrator 21.1.0, SVG Export Plug-In . SVG Version: 6.00 Build 0)  -->
<svg version="1.1" id="レイヤー_1" xmlns="http://www.w3.org/2000/svg" xmlns:xlink="http://www.w3.org/1999/xlink" x="0px"
	 y="0px" viewBox="0 0 110 70" style="enable-background:new 0 0 110 70;" xml:space="preserve">
<style type="text/css">
	.st0{fill:#FFFFFF;}
	.st1{fill:#1793E5;}
</style>
<g>
	<path class="st0" d="M100,0H10C4.5,0,0,4.5,0,10v50c0,5.5,4.5,10,10,10h90c5.5,0,10-4.5,10-10V10C110,4.5,105.5,0,100,0z"/>
</g>
<g>
	<g>
		<path class="st1" d="M22.97119,48.87525c-0.17126,0-0.32751,0.02911-0.46881,0.08678
			c-0.14117,0.05811-0.2674,0.14539-0.3786,0.26129v-1.38092h-1.1236v3.98541h1.04163V51.401
			c0.14392,0.17932,0.27698,0.30182,0.39899,0.36725c0.16229,0.08289,0.34082,0.12488,0.53589,0.12488
			c0.22784,0,0.435-0.05957,0.62189-0.17841c0.18683-0.11871,0.33301-0.29797,0.43872-0.53827
			c0.10583-0.23993,0.15863-0.51782,0.15863-0.83302c0-0.47314-0.11572-0.83594-0.34723-1.08911
			C23.61719,49.00153,23.32471,48.87525,22.97119,48.87525z M22.948,50.91846c-0.09021,0.10968-0.2019,0.16449-0.3349,0.16449
			c-0.14398,0-0.26288-0.05585-0.35669-0.1673c-0.09393-0.11163-0.14081-0.29144-0.14081-0.53979
			c0-0.2265,0.04791-0.39532,0.14349-0.5069c0.09558-0.11163,0.21912-0.16742,0.37042-0.16742
			c0.12579,0,0.23267,0.05341,0.32117,0.16071c0.08844,0.10681,0.13263,0.27417,0.13263,0.50256
			C23.08331,50.62421,23.03821,50.80884,22.948,50.91846z M26.4339,50.86262l-0.59888-1.92206h-1.17395l1.2182,2.88678
			c-0.05646,0.15399-0.12518,0.26129-0.20618,0.32092c-0.08099,0.06006-0.18707,0.0901-0.31812,0.0901
			c-0.19666,0-0.37506-0.0257-0.5354-0.07629l0.0874,0.77197c0.33521,0.04388,0.58295,0.06531,0.74335,0.06531
			c0.39514,0,0.68939-0.08667,0.88245-0.26129c0.1366-0.12299,0.27051-0.3609,0.40173-0.71239l1.15179-3.08508h-1.09631
			L26.4339,50.86262z M30.36798,48.82654h1.26294v3.00128h1.2384v-3.00128h1.26288v-0.98413h-3.76422V48.82654z M36.85272,48.87525
			c-0.2041,0-0.38104,0.03381-0.5304,0.10059c-0.14935,0.0672-0.29974,0.17877-0.45105,0.33429v-1.4677h-1.11249v3.9854h1.11249
			v-1.38672c0-0.2627,0.04193-0.44489,0.12579-0.54639c0.08374-0.10156,0.19312-0.15216,0.328-0.15216
			c0.12201,0,0.21692,0.03766,0.2843,0.1131c0.06744,0.07477,0.10114,0.20306,0.10114,0.38428v1.58789h1.1181v-1.83539
			c0-0.3786-0.08704-0.65948-0.26111-0.84259C37.39349,48.96674,37.15521,48.87525,36.85272,48.87525z M41.00592,49.06263
			c-0.24072-0.125-0.5686-0.18738-0.98419-0.18738c-0.51215,0-0.91351,0.13971-1.20422,0.41858
			c-0.29071,0.27948-0.43597,0.64429-0.43597,1.09583c0,0.31709,0.07239,0.5932,0.21729,0.82776
			c0.1449,0.23462,0.32758,0.40582,0.54816,0.51361c0.2204,0.10822,0.52301,0.16211,0.90753,0.16211
			c0.44287,0,0.78271-0.06342,1.01971-0.18927c0.23688-0.12592,0.43909-0.3338,0.60681-0.62372l-1.09625-0.10059
			c-0.06915,0.08667-0.13385,0.14777-0.19409,0.18207c-0.09839,0.05438-0.20227,0.0816-0.31146,0.0816
			c-0.17334,0-0.3136-0.0625-0.42114-0.18739c-0.0766-0.08734-0.12476-0.21942-0.14478-0.39722h2.23059v-0.125
			c0-0.38049-0.06287-0.68951-0.18872-0.927C41.4295,49.36921,41.2464,49.18805,41.00592,49.06263z M39.51599,50.12836
			c0.01819-0.17212,0.0611-0.30182,0.12842-0.38861c0.10571-0.13971,0.24701-0.20929,0.42371-0.20929
			c0.1532,0,0.27661,0.04614,0.37036,0.13867c0.09393,0.09253,0.15179,0.24561,0.17371,0.45923H39.51599z M46.35492,50.26716
			l-0.62811-2.42474h-1.6286v3.9854h1.01422v-3.03992l0.77997,3.03992h0.91803l0.78137-3.03992v3.03992h1.01422v-3.9854H46.9784
			L46.35492,50.26716z M50.66827,47.84241l-1.50616,3.98541h1.2644l0.19537-0.65808h1.40588l0.2005,0.65808h1.29663l-1.5058-3.98541
			H50.66827z M50.89069,50.30811l0.43781-1.43286l0.44238,1.43286H50.89069z M56.16748,47.84241h-2.05841v3.98541h1.24396v-1.47919
			h0.67798c0.49921,0,0.87042-0.11298,1.11377-0.33948c0.24341-0.22705,0.36493-0.5412,0.36493-0.94373
			c0-0.39142-0.11151-0.6933-0.33478-0.90503C56.95172,47.94825,56.61578,47.84241,56.16748,47.84241z M56.15948,49.41736
			c-0.09668,0.08246-0.2644,0.12396-0.50311,0.12396h-0.30334v-0.88879h0.3526c0.23138,0,0.38898,0.0434,0.4729,0.1302
			c0.08386,0.08722,0.12567,0.19312,0.12567,0.31799C56.3042,49.22956,56.25598,49.33491,56.15948,49.41736z M59.42383,47.84241
			h-1.23834v3.98541h3.17102v-0.98138h-1.93268C59.42383,50.84644,59.42383,47.84241,59.42383,47.84241z M63.2981,50.13935h1.92731
			v-0.81262H63.2981v-0.63367h2.0777v-0.85065h-3.31866v3.98541h3.37878v-0.90271H63.2981V50.13935z M70.29669,50.26716
			l-0.62811-2.42474H68.0401v3.9854h1.01428v-3.03992l0.77985,3.03992h0.91809l0.78149-3.03992v3.03992h1.0141v-3.9854h-1.62762
			L70.29669,50.26716z M74.61041,47.84241L73.104,51.82782h1.2644l0.19531-0.65808h1.40601l0.2005,0.65808h1.29669L75.961,47.84241
			H74.61041z M74.8327,50.30811l0.43781-1.43286l0.4422,1.43286H74.8327z M80.72998,50.04725l-1.50897-2.20483h-1.15643v3.9854
			h1.16461V49.6391l1.50079,2.18872h1.16724v-3.9854h-1.16724V50.04725z M82.76923,51.82782h1.24115v-3.9854h-1.24115V51.82782z
			 M86.14319,47.84241l-1.50641,3.98541h1.2644l0.19519-0.65808h1.40613l0.20038,0.65808h1.29694l-1.50604-3.98541H86.14319z
			 M86.36542,50.30811l0.43781-1.43286l0.44226,1.43286H86.36542z M66.79163,18.00001H65.2052v9.46576h1.58643V18.00001z
			 M68.64221,18.00001h-1.5863v9.46576h1.5863V18.00001z M75.78058,25.88831h-5.28766V18h-1.5863v9.46576h6.87396V25.88831z
			 M80.01068,18.00001h-1.5863v9.46576h1.5863V18.00001z M81.86139,18.00001h-1.5863v9.46576h1.5863V18.00001z M88.99982,19.57782
			V18h-6.87402v9.46576h6.87402v-1.57745H83.7121v-2.36658h5.28772v-1.57727H83.7121v-2.36664H88.99982z M53.57239,18.00001
			h-1.58636v9.46576h1.58636V18.00001z M55.42297,18.00001h-1.5863v9.46576h1.5863V18.00001z M57.27368,23.52173h2.51172
			c1.53308,0,2.776-1.2359,2.776-2.7608c0-1.52448-1.24292-2.76093-2.776-2.76093h-4.09802v9.46576h1.5863V23.52173z
			 M57.27368,19.57782h2.51172c0.65698,0,1.1897,0.52979,1.1897,1.18311c0,0.65369-0.53271,1.18353-1.1897,1.18353h-2.51172
			V19.57782z M49.65942,27.46576L45.42932,18h-1.5863l4.2301,9.46576H49.65942z M47.80878,27.46576l-4.09796-9.16962
			l-0.79321,1.77478l3.30481,7.39484H47.80878z M41.5517,26.67701h2.46759l0.35254,0.78876h1.5863l-3.17273-7.09924
			l-3.17261,7.09924h1.5863L41.5517,26.67701z M42.7854,23.91614l0.52881,1.18347h-1.0575L42.7854,23.91614z M37.65637,27.46576
			L33.42633,18h-1.5863l4.23016,9.46576H37.65637z M35.80573,27.46576l-4.0979-9.16962l-0.79315,1.77478l3.30481,7.39484H35.80573z
			 M29.19623,27.46576l1.58624-3.54962l1.58624,3.54962h1.5863l-3.17255-7.09924l-0.79315,1.77484l-0.66101,1.47919l-2.5116-5.62054
			h-1.5863l3.30481,7.3952l-0.1322,0.29572l-3.30481-7.39478l-0.79321,1.77478l3.30481,7.39484h1.58643V27.46576z
			 M24.17279,23.91614l1.58643,3.54962h1.5863l-3.17273-7.09924l-0.5766,1.29028l-2.59601,5.80896h1.5863L24.17279,23.91614z
			 M59.49451,42.33442h1.5863v-9.4657h-1.5863V42.33442z M61.34521,42.33442h1.5863v-9.4657h-1.5863V42.33442z M70.06982,40.75666
			h-5.2876v-2.36664h5.2876v-1.57739h-5.2876v-2.36652h5.2876v-1.57739h-6.8739v9.46571h6.8739V40.75666z M74.29999,32.86872
			h-1.5863v9.4657h1.5863V32.86872z M74.56439,42.33442h1.5863v-9.4657h-1.5863V42.33442z M40.98761,32.86872h-1.5863v9.4657h1.5863
			V32.86872z M41.25208,42.33442h1.58624v-9.4657h-1.58624V42.33442z M44.68903,32.86872h-1.58624v9.4657h1.58624V32.86872z
			 M56.85071,42.33442v-9.4657h-1.5863v5.91614l-2.64392-5.91614H51.0343l4.2301,9.4657
			C55.2644,42.33442,56.85071,42.33442,56.85071,42.33442z M53.4137,42.33442H55l-4.23022-9.4657h-1.5863L53.4137,42.33442z
			 M53.14929,42.33442l-4.2301-9.4657h-1.58636v9.4657h1.58636v-5.91608l2.6438,5.91608
			C51.56299,42.33442,53.14929,42.33442,53.14929,42.33442z M79.85199,42.33442h1.58643l-1.76263-3.9444h0.2644l1.76251,3.9444
			h1.5863l-1.83521-4.10699l-0.01312,0.0014c1.07635-0.38,1.84833-1.3985,1.84833-2.59917c0-1.5249-1.2428-2.76093-2.776-2.76093
			h-4.0979v9.46571h1.5863v-3.9444h0.08807L79.85199,42.33442z M78.0014,34.44611h2.5116c0.6571,0,1.18982,0.52985,1.18982,1.18353
			c0,0.65332-0.53271,1.18298-1.18982,1.18298h-2.5116V34.44611z M26.71088,42.33442h1.58643v-9.4657h-1.58643V42.33442z
			 M28.56158,42.33442h1.5863v-9.4657h-1.5863V42.33442z M31.9986,32.86872h-1.5863v9.4657h1.5863
			c2.62817,0,4.75891-2.11908,4.75891-4.73309C36.75751,34.98732,34.62677,32.86872,31.9986,32.86872z M31.9986,40.75666v-6.31055
			c1.7522,0,3.17261,1.4129,3.17261,3.1552C35.1712,39.34424,33.75079,40.75666,31.9986,40.75666z"/>
	</g>
</g>
</svg>
