<?xml version="1.0" encoding="utf-8"?>
<!-- Generator: Adobe Illustrator 21.1.0, SVG Export Plug-In . SVG Version: 6.00 Build 0)  -->
<svg version="1.1" id="レイヤー_1" xmlns="http://www.w3.org/2000/svg" xmlns:xlink="http://www.w3.org/1999/xlink" x="0px"
	 y="0px" viewBox="0 0 102 18" style="enable-background:new 0 0 102 18;" xml:space="preserve">
<style type="text/css">
	.st0{fill:#562608;}
</style>
<g>
	<g>
		<path class="st0" d="M45.55936,11.54626c0,0-0.16971,0.04108-0.45525,0.11195c-0.12611,0.03143-0.25848,0.16582-0.43288,0.19649
			c-0.13826,0.02443-0.31418-0.10992-0.48016-0.0911c-0.14386,0.01635-0.29055,0.07863-0.45339,0.08781
			c-0.14669,0.0081-0.29959,0.08392-0.46056,0.08392c-0.22919,0-0.22919-0.0095-0.45837-0.0095
			c-0.22952,0-0.22952-0.11738-0.45869-0.11738c-0.22921,0-0.22921,0.0478-0.45869,0.0478
			c-0.22917,0-0.22917,0.03392-0.45871,0.03392c-0.22917,0-0.22917,0.06666-0.45838,0.06666
			c-0.22948,0-0.22917-0.06946-0.45837-0.05872c-0.22577,0.01043-0.22884,0.02415-0.44715-0.04562
			c0.00718-0.144-0.02304-0.25284-0.01653-0.39952c0.00654-0.14416,0.13141-0.28475,0.13734-0.43142
			c0.00561-0.14433-0.08221-0.29349-0.07722-0.44018c0.00496-0.14431-0.00747-0.29036-0.00343-0.43689
			c0.00434-0.14447,0.02865-0.28942,0.03209-0.43596c0.00341-0.14464-0.06946-0.2916-0.06666-0.43812
			c0.00282-0.14464-0.01215-0.29024-0.00996-0.4366c0.0022-0.1448,0.03736-0.2896,0.03893-0.43594
			c0.00124-0.1448-0.00903-0.29024-0.00841-0.4366c0.00062-0.14496-0.00529-0.2902-0.00529-0.43656
			c0-0.15634,0.05669-0.31173,0.05572-0.46647c-0.0006-0.15632-0.02894-0.31157-0.0305-0.46616
			c-0.00158-0.15634,0.1059-0.31327,0.10369-0.46787c-0.00249-0.15648-0.07006-0.31093-0.0732-0.4654
			c-0.00341-0.15646-0.04515-0.31093-0.04887-0.46523c-0.00405-0.15663,0.00372-0.31218-0.00125-0.46647
			c-0.00465-0.15663,0.03581-0.31358,0.0302-0.46772c-0.00562-0.15663-0.01244-0.31202-0.01897-0.46585
			c-0.00658-0.15679-0.08285-0.3092-0.09031-0.46303c0-0.00171-0.03986-0.00171-0.03986-0.00344
			c-0.00095-0.00794,0.10928-0.01119,0.10835-0.01929c-0.00779-0.16084-0.00718-0.32107-0.01588-0.47895
			c-0.00843-0.16128-0.0492-0.31903-0.05886-0.47642c-0.00967-0.16163,0.07474-0.32465,0.06415-0.48144
			c-0.00064-0.14727-0.04017-0.27868-0.0355-0.40464c0.00529-0.15149,0.01993-0.28462,0.03052-0.40608
			c0.01368-0.16084-0.08408-0.30998-0.06695-0.42101c0.04266-0.27356,0.32323-0.28867,0.1395-0.37911
			c-0.13482-0.06648-0.14449-0.1051-0.29458-0.1051c-0.09807,0-0.09807,0.12845-0.1962,0.12845
			c-0.24287,0-0.24287-0.00919-0.48576-0.00919c-0.24289,0-0.24289,0.01246-0.48578,0.01246
			c-0.24287,0-0.24287,0.01477-0.4858,0.01477c-0.24287,0-0.24287-0.12952-0.48607-0.12952
			c-0.24289,0-0.24289,0.06351-0.48578,0.06351c-0.07939,0-0.07939-0.07832-0.15911-0.07832
			c-0.15009,0-0.12676,0.0802-0.25132,0.16381c-0.19525,0.13092,0.05917,0.07222,0.14355,0.35982
			c0.03739,0.12688-0.02369,0.30499,0.01648,0.48031c0.03209,0.13921,0.08316,0.28635,0.11245,0.45373
			c0.0252,0.14496,0.18308,0.28133,0.20362,0.44575c0.01808,0.1484,0.00874,0.31109,0.02118,0.47412
			c0.00253,0.04809-0.1043,0.10118-0.1015,0.14978c0.00093,0.01588,0.08906,0.02694,0.08999,0.04266
			c0.00874,0.15772-0.02555,0.31979-0.01744,0.48125c0.00777,0.15805-0.01464,0.31918-0.00747,0.48051
			c0.00685,0.15835,0.10494,0.31449,0.11117,0.47582c0.00592,0.15835-0.10776,0.32228-0.10274,0.48344
			c0.00496,0.1585,0.11829,0.31529,0.12267,0.47626c0.00405,0.15883-0.00249,0.31918,0.00063,0.48019
			c0.00343,0.15879-0.09031,0.32043-0.08781,0.48142c0.00249,0.15897,0.01463,0.31856,0.01621,0.4794
			c0.00152,0.15895,0.09153,0.31838,0.09215,0.47907c0.00095,0.15928-0.05917,0.31951-0.05917,0.48019
			c0,0.15694,0.04576,0.31309,0.04515,0.46848c-0.00095,0.15679-0.06259,0.31251-0.06415,0.46772
			c-0.00156,0.15694,0.00685,0.31311,0.00436,0.46821c-0.00249,0.1571,0.02431,0.31373,0.02118,0.46863
			c-0.00312,0.15728,0.01432,0.31391,0.01028,0.46881c-0.00405,0.15728-0.08437,0.31109-0.08906,0.46601
			c-0.00498,0.15726,0.11428,0.31749,0.10839,0.47208c-0.00563,0.15743-0.06604,0.31157-0.07257,0.46601
			c-0.00654,0.15743,0.052,0.31687,0.04453,0.47116c-0.00777,0.15755-0.17503,0.30515-0.18341,0.45929
			c-0.00874,0.15757-0.04142,0.31033-0.05107,0.46431c-0.01277,0.15179,0.06448,0.30392,0.04578,0.44185
			c-0.02055,0.15292-0.13453,0.28059-0.15944,0.41527c-0.02867,0.15552,0.10743,0.3338,0.07627,0.46305
			c-0.03922,0.163-0.20864,0.26982-0.24443,0.38751c-0.08159,0.26687-0.31516,0.36916-0.12894,0.48344
			c0.12801,0.07847,0.18439-0.0383,0.33448-0.0383c0.05574,0,0.05574-0.02538,0.11146-0.02538
			c0.19244,0,0.19244,0.01933,0.38457,0.01933c0.19242,0,0.19242-0.00485,0.38491-0.00485
			c0.19242,0,0.19242,0.01808,0.38456,0.01808c0.25319,0,0.25319,0.03937,0.50633,0.03937
			c0.25315,0,0.25315-0.05385,0.50633-0.05385c0.25315,0,0.25315-0.05529,0.50633-0.05529
			c0.22826,0,0.22826,0.13626,0.45682,0.13626c0.22825,0,0.22825-0.05934,0.45649-0.05934
			c0.22857,0,0.22857-0.09934,0.45686-0.09934c0.22857,0,0.22857-0.01853,0.4568-0.01853c0.22857,0,0.22857,0.17098,0.45682,0.17098
			c0.22825,0,0.22825-0.06884,0.45682-0.06884c0.22823,0,0.22823-0.09106,0.45682-0.09106c0.22824,0,0.22824,0.0674,0.4568,0.0674
			c0.22829,0,0.22829-0.02443,0.45686-0.02443c0.22823,0,0.22823,0.06164,0.4568,0.06164c0.22826,0,0.22826-0.097,0.45682-0.097
			s0.22171,0.05683,0.4453,0.01059c0-0.09466-0.01868-0.20908-0.0137-0.43002c0.00344-0.14309-0.05358-0.31017-0.04704-0.48845
			c0.0056-0.15303,0.13049-0.31153,0.13951-0.48095c0.00843-0.15772-0.02022-0.32276-0.0087-0.48734
			c0.01123-0.16113,0.07254-0.31963,0.0875-0.48047c0.01526-0.16426,0.0791-0.31967,0.0984-0.47646
			C45.59797,11.78199,45.54192,11.65681,45.55936,11.54626z"/>
		<path class="st0" d="M55.68941,11.54377c0,0-0.14447,0.09311-0.4322,0.16364c-0.12767,0.03128-0.29365,0.0042-0.46928,0.03486
			c-0.13982,0.02462-0.2815,0.14355-0.44903,0.16255c-0.14544,0.01652-0.30488,0.02118-0.46897,0.03021
			c-0.14854,0.00841-0.30768-0.01259-0.46988-0.01259c-0.24293,0-0.24293,0.06179-0.4858,0.06179
			c-0.24289,0-0.24289-0.11769-0.48578-0.11769c-0.2426,0-0.2426,0.03846-0.48549,0.03846
			c-0.24287,0-0.24287-0.04829-0.48576-0.04829c-0.24289,0-0.24289-0.04685-0.48609-0.04685
			c-0.24287,0-0.24287,0.07222-0.4858,0.07222c-0.24287,0-0.24941,0.06664-0.47982-0.01043
			c0.00806-0.1599-0.07382-0.30655-0.06666-0.46972c0.00714-0.16008,0.1722-0.31529,0.17841-0.47846
			c0.00625-0.16023-0.03766-0.32401-0.03236-0.48705c0.00529-0.16035-0.06135-0.32416-0.05699-0.48716
			c0.00434-0.16053,0.01746-0.32185,0.02087-0.48485c0.0034-0.16068,0.06973-0.24478,0.07253-0.40762
			c0.21021-0.07631,0.19558-0.04299,0.41916-0.04299c0.2236,0,0.2236-0.03392,0.44715-0.03392
			c0.2236,0,0.2236-0.06664,0.44752-0.06664c0.22356,0,0.22356,0.05854,0.44746,0.0587l-0.00122,0.06384
			c0.16095,0,0.3148-0.04406,0.46178-0.03597c0.16284,0.00919,0.32292-0.03892,0.46678-0.02258
			c0.16598,0.01898,0.32417,0.03161,0.46272,0.05603c0.17407,0.03067,0.29305,0.21393,0.41916,0.24524
			c0.28555,0.07098,0.3092,0.22512,0.42101,0.02302c0.08344-0.15118-0.02927-0.14914-0.02927-0.32165
			c0-0.18577-0.00218-0.18577-0.00218-0.37136c0-0.18573,0.06569-0.18573,0.06569-0.37132
			c0-0.23915,0.09003-0.23915,0.09003-0.47831s-0.13984-0.23915-0.13984-0.47831c0-0.15619,0.05759-0.29849,0.07816-0.45108
			c0.02711-0.20005,0.01215-0.41009,0.01215-0.61267c0-0.10261,0.05915-0.44125-0.00621-0.51832
			c-0.12989-0.15225-0.31391,0.10915-0.47116,0.1484c-0.12612,0.03145-0.26595,0.12563-0.44003,0.15632
			c-0.13826,0.02444-0.29674,0.02709-0.4627,0.04591c-0.14388,0.01635-0.29614,0.08657-0.45902,0.09575
			c-0.14698,0.0081-0.30581-0.01773-0.4668-0.01773c-0.00152,0,0.00405,0.02008,0.00253,0.02008
			c-0.22361,0.00014-0.22392-0.1666-0.44752-0.1666c-0.22388,0-0.22388,0.14198-0.44779,0.14198
			c-0.22387,0-0.22387,0.0014-0.44779,0.0014c-0.22388,0-0.25159,0.06088-0.46209-0.01524
			c-0.00249-0.16288-0.02555-0.36342-0.02865-0.52408c-0.00344-0.16302,0.01244-0.3251,0.00839-0.48564
			c-0.00434-0.16302,0.04114-0.32634,0.03612-0.48669c-0.00529-0.16317-0.05854-0.32341-0.06475-0.4836
			c-0.00594-0.16317-0.08221-0.32167-0.08906-0.48191c-0.00718-0.16317,0.05136-0.37366,0.04327-0.53358
			c0.23012-0.07707,0.25784-0.01479,0.50077-0.01479c0.24287,0,0.24287,0.08846,0.48576,0.08846s0.24289,0.0559,0.48576,0.0559
			c0.24293,0,0.24293-0.02569,0.4858-0.02569c0.24289,0,0.24289-0.06261,0.48578-0.06261c0.2432,0,0.2432-0.0137,0.48609-0.0137
			c0.24287,0,0.24287,0.10839,0.4858,0.10839c0.1622,0,0.31634-0.05763,0.4649-0.04936
			c0.16411,0.00917,0.32354-0.02727,0.46896-0.01076c0.16755,0.01901,0.32574,0.02696,0.46585,0.05138
			c0.17563,0.03083,0.3033,0.17876,0.43098,0.21004c0.28773,0.07053,0.25937,0.16833,0.47924,0.0911
			c-0.01744-0.11072-0.07102-0.26128-0.08595-0.3799c-0.01964-0.15663,0.08157-0.3307,0.06633-0.49499
			c-0.01528-0.16084-0.12113-0.31482-0.13236-0.47597c-0.01183-0.16442-0.03862-0.3265-0.047-0.4842
			c-0.00874-0.16926,0.00434-0.33368-0.00125-0.48658c-0.00685-0.17843-0.08748-0.34081-0.09062-0.48407
			c-0.00498-0.22076,0.04765-0.30548,0.04765-0.39999c-0.23261-0.04624-0.21983-0.03192-0.45682-0.03192
			c-0.2373,0-0.2373,0.01139-0.47457,0.01139c-0.23729,0-0.23729,0.00636-0.47459,0.00636
			c-0.23727,0-0.23727-0.05699-0.47424-0.05699c-0.23729,0-0.23729,0.02711-0.47459,0.02711
			c-0.23726,0-0.23726-0.10948-0.47453-0.10948c-0.2373,0-0.2373,0.06493-0.47459,0.06493c-0.2373,0-0.2373,0.03801-0.47426,0.03801
			c-0.2373,0-0.2373-0.01199-0.47457-0.01199c-0.23727,0-0.23727-0.04595-0.47457-0.04595
			c-0.23729,0-0.23729,0.00064-0.47486,0.00064c-0.2373,0-0.2373,0.06929-0.47459,0.06929
			c-0.21083,0-0.21083,0.04124-0.42163,0.04124c-0.21082,0-0.21082-0.11084-0.42194-0.11084
			c-0.21083,0-0.21083-0.00858-0.42194-0.00858c-0.27654,0-0.27654,0.03176-0.55335,0.03176
			c-0.27652,0-0.27652-0.09496-0.55336-0.09496c-0.0794,0-0.0794,0.04202-0.15881,0.04202
			c-0.15041,0-0.20739-0.08032-0.33226,0.00344c-0.19491,0.13077,0.15475,0.18731,0.23949,0.47502
			c0.03704,0.12676,0.03361,0.29273,0.07378,0.46805c0.03207,0.13918-0.0411,0.312-0.01183,0.47922
			c0.02522,0.14496,0.17532,0.27981,0.19556,0.44423c0.01838,0.14836,0.02523,0.30671,0.03739,0.46972
			c0.00307,0.04811,0.01868,0.09359,0.02145,0.14215c0.00095,0.01604,0.01652,0.03131,0.01716,0.04687
			c0.00901,0.15788-0.11212,0.32434-0.10402,0.48578c0.00778,0.15803,0.0788,0.31453,0.08561,0.47582
			c0.00687,0.15835-0.06508,0.32107-0.05883,0.4822c0.00592,0.15835,0.18995,0.31204,0.19493,0.47317
			c0.00529,0.15852-0.03396,0.32012-0.02991,0.48111c0.00405,0.15883-0.09711,0.32105-0.09371,0.48204
			c0.00314,0.15883,0.02647,0.31811,0.02896,0.4791c0.00247,0.15895,0.14042,0.31731,0.14198,0.47815
			c0.00158,0.15895-0.02273,0.31963-0.02178,0.48047c0.0006,0.15912-0.1093,0.31951-0.1093,0.48019
			c0,0.15694,0.0869,0.31325,0.08626,0.46848c-0.00093,0.15694-0.04484,0.31282-0.0464,0.46805
			c-0.00156,0.15694-0.03332,0.31264-0.0355,0.46772c-0.00247,0.1571,0.08659,0.31498,0.08345,0.46988
			c-0.00311,0.15728-0.12579,0.31062-0.12985,0.46556c-0.00405,0.15724,0.10027,0.31638,0.09529,0.47112
			c-0.00469,0.15728-0.02057,0.31313-0.02614,0.46787c-0.00562,0.15728-0.10839,0.30937-0.11493,0.464
			c-0.00654,0.15739-0.00373,0.31358-0.01119,0.46788c-0.0075,0.15755,0.07285,0.31792,0.06444,0.47206
			c-0.0087,0.15759-0.07816,0.30968-0.08781,0.46367c-0.01277,0.15165,0.01713,0.30223-0.00158,0.44016
			c-0.0202,0.1529-0.10369,0.28775-0.12859,0.42241c-0.02865,0.15554-0.0492,0.29943-0.08032,0.42879
			c-0.03926,0.16304-0.05016,0.31188-0.0863,0.42957c-0.08157,0.26687-0.32508,0.26642-0.13887,0.38055
			c0.12828,0.07863,0.13297,0.07114,0.28337,0.07114c0.05543,0,0.05543-0.12438,0.11117-0.12438
			c0.19244,0,0.19244,0.05401,0.38459,0.05401c0.19242,0,0.19242-0.06569,0.38487-0.06569s0.19244,0.15928,0.38489,0.15928
			c0.21083,0,0.21083,0.02398,0.42163,0.02398c0.21113,0,0.21113-0.09359,0.42192-0.09359
			c0.21086,0,0.21086,0.09235,0.42196,0.09235c0.23695,0,0.23695-0.17098,0.47426-0.17098
			c0.23729,0,0.23729,0.13452,0.47459,0.13452c0.23727,0,0.23727,0.01308,0.47453,0.01308c0.237,0,0.237-0.04796,0.47426-0.04796
			c0.2373,0,0.2373-0.02538,0.47457-0.02538c0.23732,0,0.23732,0.01933,0.47459,0.01933c0.23726,0,0.23726-0.00485,0.47457-0.00485
			c0.23699,0,0.23699,0.01808,0.47426,0.01808s0.23727,0.03937,0.47457,0.03937c0.23729,0,0.23729-0.05385,0.47459-0.05385
			c0.23726,0,0.23726-0.05529,0.47453-0.05529c0.23764,0,0.26006,0.18092,0.49267,0.13452
			c0-0.09466,0.01588-0.35388,0.02084-0.57482c0.00341-0.14311-0.09122-0.31062-0.08468-0.48889
			c0.0059-0.1529-0.00529-0.31827,0.00341-0.48765c0.00841-0.15772,0.18871-0.31002,0.20021-0.47457
			c0.01154-0.16117-0.04418-0.32823-0.02894-0.48907c0.01528-0.16424-0.05792-0.3374-0.0383-0.49434
			C55.58947,11.76251,55.67201,11.65447,55.68941,11.54377z"/>
		<path class="st0" d="M35.39161,2.58642c-0.0411-0.14575-0.06199-0.31233-0.1202-0.46383
			c-0.05483-0.14231-0.17532-0.26938-0.25661-0.40949c-0.07594-0.1311-0.15381-0.27841-0.26155-0.40157
			c-0.09842-0.1124-0.25689-0.17828-0.38863-0.27977c-0.11708-0.09015-0.25879-0.15183-0.40699-0.23012
			c-0.13017-0.06882-0.237-0.21876-0.39454-0.27621c-0.13886-0.0506-0.30488-0.05794-0.46708-0.09825
			c-0.14389-0.03581-0.30272-0.04375-0.4668-0.07022c-0.14729-0.02398-0.29645-0.10839-0.46087-0.12427
			c-0.14949-0.0143-0.31513,0.11428-0.47955,0.10728c-0.1504-0.00654-0.30394-0.09994-0.46772-0.09994
			c-0.23261,0-0.23261-0.06555-0.46554-0.06555c-0.23294,0-0.23294,0.002-0.46552,0.002c-0.23261,0-0.23261,0.02304-0.46525,0.02304
			c-0.23293,0-0.23293,0.13719-0.46554,0.13719c-0.23261,0-0.23261-0.15367-0.46523-0.15367
			c-0.19493,0-0.19493,0.01059-0.38987,0.01059c-0.19495,0-0.19495,0.06179-0.38987,0.06179
			c-0.26531,0-0.26531,0.04873-0.53064,0.04873c-0.26562,0-0.26562-0.06368-0.53091-0.06368
			c-0.26562,0-0.26562-0.05854-0.53093-0.05854c-0.07943,0-0.07943,0.06664-0.15881,0.06664
			c-0.15009,0-0.15663-0.05558-0.2815,0.02818c-0.19525,0.13094,0.12579,0.10588,0.21053,0.39378
			c0.03737,0.12703-0.03521,0.31062,0.00527,0.48625c0.03209,0.13951,0.05387,0.29349,0.08314,0.46102
			c0.02522,0.14525,0.11897,0.28976,0.13918,0.45448c0.01837,0.14869,0.08316,0.30283,0.09533,0.46616
			c0.00247,0.04186-0.15323,0.0914-0.15074,0.13357c0.00156,0.02587,0.10586,0.0464,0.1071,0.07271
			C26.58,2.902,26.57719,3.06193,26.58498,3.22276c0.00779,0.15755,0.0875,0.31358,0.09435,0.47441
			c0.00685,0.15772-0.03365,0.31916-0.02771,0.48c0.0059,0.1579-0.03673,0.31887-0.03176,0.47955
			c0.00498,0.15803,0.04829,0.31622,0.0523,0.47677c0.00405,0.15819-0.1099,0.32012-0.10646,0.48064
			c0.00307,0.15835,0.06755,0.31622,0.07005,0.47657c0.00249,0.15852-0.02118,0.31796-0.01962,0.47831
			c0.00154,0.15852-0.00625,0.31763-0.0056,0.47784c0.00093,0.15866,0.09809,0.31763,0.09809,0.47786
			c0,0.15694-0.06197,0.31293-0.06292,0.46817c-0.0006,0.1571,0.02273,0.31328,0.02118,0.46852
			c-0.00185,0.15695-0.07098,0.31202-0.07347,0.46708c-0.00247,0.15728,0.08595,0.31467,0.08281,0.46976
			c-0.0031,0.15724,0.06199,0.31513,0.05794,0.47005c-0.00405,0.15726-0.17904,0.30844-0.18406,0.46318
			c-0.00465,0.15728,0.00843,0.31342,0.00249,0.46803c-0.00559,0.15743,0.08754,0.31716,0.081,0.47161
			c-0.00658,0.15743,0.04543,0.3164,0.03797,0.47085c-0.00745,0.15755-0.15165,0.30657-0.16008,0.46071
			c-0.0087,0.15755,0.03737,0.31653,0.02803,0.47052c-0.01306,0.15181,0.02431,0.30455,0.00562,0.4425
			c-0.02053,0.1529-0.08314,0.29301-0.10808,0.4277c-0.02894,0.15539-0.07752,0.29536-0.10866,0.42473
			c-0.03924,0.16288-0.07411,0.30581-0.11024,0.4235c-0.08129,0.26702-0.34627,0.30143-0.15977,0.41572
			c0.12831,0.07847,0.15447-0.02411,0.30457-0.02411c0.05574,0,0.05574-0.04811,0.11146-0.04811
			c0.24198,0,0.24198,0.01306,0.48393,0.01306c0.24196,0,0.24196,0.13454,0.48391,0.13454
			c0.24196,0,0.24229-0.17067,0.48393-0.17082c0.15192-0.00016,0.28148,0.06463,0.42192,0.11024
			c0.21175,0.06913,0.39766,0.01699,0.60662,0.01948c0.20301,0.00249,0.36307,0.09496,0.57137,0.03766
			c0.22732-0.06244-0.12952-0.21702-0.20799-0.51536c-0.03332-0.12656,0.00529-0.29705-0.02836-0.47706
			c-0.02583-0.13935-0.07129-0.29005-0.09278-0.46118c-0.01837-0.14494-0.06384-0.29847-0.07627-0.46632
			c-0.01123-0.14789-0.03024-0.30533-0.03554-0.47097c-0.00465-0.14994,0.05422-0.30768,0.05547-0.4721
			c0.00152-0.15101-0.0405-0.30889-0.03305-0.47208c0.00064-0.01649,0.05763,0.05171,0.05827,0.03536
			c0.0081-0.17392-0.0729-0.35344-0.06606-0.5314c0.00654-0.17407,0.00282-0.35019,0.00874-0.52784
			c0.00562-0.17467,0.10058-0.32557,0.10527-0.50304c0.13357-0.04595,0.25315-0.06837,0.39514-0.12302
			c0.13297-0.05138,0.22824-0.20724,0.36714-0.26607c0.13201-0.05605,0.31482-0.0067,0.45088-0.0696
			c0.13081-0.06057,0.22391-0.20723,0.35721-0.2742c0.12952-0.06493,0.27308-0.10619,0.40355-0.17701
			c0.12767-0.06929,0.27745-0.10449,0.40546-0.17923c0.12547-0.07363,0.20581-0.22452,0.33068-0.30359
			c0.12331-0.078,0.30706-0.06697,0.42879-0.15027c0.12049-0.08252,0.25753-0.14867,0.37586-0.23651
			c0.1174-0.08733,0.15101-0.28538,0.26529-0.37773c0.11401-0.09231,0.21117-0.2013,0.32107-0.29863
			c0.10992-0.09745,0.28868-0.12018,0.39363-0.22263c0.11489-0.11243,0.25813-0.20038,0.35933-0.31607
			c0.10558-0.12113,0.06475-0.35564,0.15603-0.4791c0.09587-0.12923,0.24628-0.21189,0.32697-0.34236
			c0.08501-0.13686,0.10461-0.30192,0.17434-0.43845c0.07351-0.14373,0.25601-0.23185,0.31391-0.37354
			c0.06168-0.14961,0.10214-0.30624,0.1482-0.45166c0.0492-0.15492,0.0788-0.31282,0.11243-0.4604
			c0.03642-0.16023,0.07378-0.31609,0.09468-0.46447c0.02333-0.16533-0.09031-0.33193-0.08316-0.47846
			c0.00872-0.17312,0.11335-0.32773,0.10461-0.46723C35.40405,2.87149,35.42273,2.69775,35.39161,2.58642z M32.50871,4.544
			c-0.04364,0.14311-0.07476,0.32465-0.16197,0.4791c-0.07471,0.13186-0.24941,0.21938-0.36213,0.35404
			c-0.09809,0.11693-0.19026,0.25753-0.32136,0.37292c-0.11584,0.10214-0.24351,0.19398-0.36776,0.28631
			c-0.12425,0.09249-0.31264,0.08719-0.44281,0.16942c-0.13205,0.08314-0.24104,0.19384-0.37617,0.26576
			c-0.13859,0.07382-0.24663,0.20334-0.3858,0.26469c-0.14484,0.06384-0.29024,0.12191-0.43255,0.17176
			c-0.15103,0.05276-0.29149,0.0579-0.43596,0.09418c-0.00062-0.14945,0.01993-0.27868,0.01835-0.42661
			c-0.00152-0.1493-0.04138-0.29754-0.04358-0.4453c-0.00218-0.1493-0.06975-0.29659-0.07256-0.44419
			c-0.00311-0.14949,0.10307-0.30034,0.09965-0.44795c-0.00372-0.14949-0.03488-0.29738-0.03926-0.44483
			c-0.00432-0.14965,0.04764-0.30005,0.04235-0.44734c-0.00496-0.14961-0.01713-0.2983-0.02303-0.4453
			c-0.00625-0.14978-0.02398-0.29799-0.03083-0.44499c-0.00685-0.14978-0.04515-0.20973-0.05294-0.35669
			c0.25223-0.07162,0.23791-0.01388,0.50008-0.01388c0.26253,0,0.26253-0.07598,0.52471-0.07598
			c0.26253,0,0.26253,0.0204,0.52474,0.0204c0.18526,0,0.3503-0.0129,0.49728-0.00512
			c0.19431,0.0101,0.37212-0.06541,0.50978-0.04328c0.21268,0.03392,0.33847,0.19585,0.45026,0.25192
			c0.19524,0.09791,0.31515,0.18513,0.37585,0.31903c0.0492,0.10866,0.10339,0.29365,0.09684,0.49775
			C32.59524,4.19401,32.56225,4.36978,32.50871,4.544z"/>
		<path class="st0" d="M2.84497,14.7664c-0.0006,0.00749,0.02118,0.01792,0.02055,0.02538
			c-0.00023,0.00181,0.03482-0.02287,0.05339-0.03673C2.89191,14.76158,2.84398,14.77746,2.84497,14.7664z"/>
		<path class="st0" d="M12.75239,13.94636c-0.03114-0.12956-0.14887-0.25225-0.1775-0.40793
			c-0.02522-0.13485-0.1152-0.27062-0.13577-0.42381c-0.01837-0.13812-0.02367-0.28866-0.03645-0.44065
			c-0.00963-0.15399,0.12086-0.31838,0.11243-0.47597c-0.00874-0.15399-0.02462-0.30889-0.03207-0.46632
			c-0.00745-0.15428-0.11709-0.30548-0.12396-0.46272c-0.00652-0.15445,0.01031-0.31142,0.00438-0.46852
			c-0.0056-0.15459,0.07006-0.31309,0.06508-0.47021c-0.00465-0.15475-0.14821-0.30673-0.15225-0.46383
			c-0.00407-0.15475,0.08653-0.31309,0.08344-0.47005c-0.00311-0.15506,0.03021-0.3114,0.02771-0.46848
			c-0.00216-0.15494-0.14264-0.30924-0.1442-0.46616c-0.00152-0.15525,0.16288-0.31249,0.16224-0.46928
			c-0.00091-0.15523-0.11675-0.31093-0.11675-0.46772c0-0.16053,0.07565-0.31996,0.07662-0.47895
			c0.0006-0.16053,0.02645-0.31979,0.02832-0.4786c0.00156-0.1607-0.08254-0.32138-0.08034-0.48002
			c0.00249-0.16084-0.0514-0.32185-0.04796-0.48035c0.00309-0.16099,0.17343-0.31667,0.1775-0.47517
			c0.00436-0.16101,0.00934-0.31996,0.01431-0.47831c0.005-0.16101-0.16782-0.32681-0.16193-0.48502
			c0.00594-0.16099,0.076-0.31838,0.08285-0.47642c0.00718-0.16115,0.01804-0.32058,0.02587-0.47846
			c0.00806-0.16117-0.04239-0.32401-0.03332-0.4816c0.00091-0.01993,0.11551-0.03361,0.11675-0.05325
			c0.00282-0.04607-0.05854-0.0934-0.05605-0.13902c0.01214-0.16317,0.14604-0.30612,0.16442-0.45448
			c0.02024-0.16457-0.04889-0.33119-0.02367-0.4763c0.02927-0.16751,0.04422-0.32525,0.07598-0.4646
			c0.04046-0.17547,0.10089-0.32292,0.13826-0.44995c0.08439-0.2876,0.30204-0.25519,0.10679-0.38615
			c-0.12487-0.08361-0.11023,0.02958-0.26031,0.02958c-0.07941,0-0.07941-0.03363-0.15881-0.03363
			c-0.21737,0-0.21737,0.01139-0.43502,0.01139c-0.21767,0-0.21767,0.00636-0.435,0.00636
			c-0.21771,0-0.21771-0.05699-0.43504-0.05699c-0.21767,0-0.21767,0.02711-0.43533,0.02711
			c-0.21765,0-0.21765-0.10948-0.43535-0.10948c-0.09807,0-0.09807,0.06493-0.19649,0.06493
			c-0.15007,0-0.15694-0.05699-0.27837,0.031C9.62285,0.42359,9.88475,0.42081,9.91992,0.73127
			C9.9358,0.87014,9.90124,1.03876,9.90061,1.22826C9.9003,1.37867,9.89312,1.542,9.87383,1.72041
			C9.85764,1.87426,9.90091,2.04957,9.86574,2.2216C9.83431,2.37514,9.83273,2.55155,9.78289,2.71783L9.67763,2.68418
			c-0.08811,0.21551-0.0962,0.21222-0.18466,0.4277c-0.08811,0.21533-0.05884,0.2275-0.14729,0.44298
			C9.25758,3.7702,9.16976,3.73408,9.08131,3.94957C8.99322,4.1649,9.03183,4.18093,8.94369,4.39625
			C8.85523,4.61173,8.84934,4.6094,8.76121,4.8249c-0.08844,0.21533,0.019,0.25939-0.06942,0.47486
			C8.60333,5.5151,8.56067,5.49752,8.47223,5.71299C8.38378,5.92848,8.28538,5.88817,8.19727,6.10364
			C8.10883,6.31913,8.22748,6.36772,8.13933,6.58335C8.05091,6.79868,8.04251,6.79527,7.95407,7.01076
			C7.86561,7.22623,7.87717,7.23092,7.78872,7.4464C7.70061,7.66189,7.71429,7.66748,7.62586,7.88296
			C7.53773,8.09829,7.41782,8.04925,7.3294,8.2646C7.24128,8.48009,7.29982,8.50422,7.21139,8.71969
			C7.12326,8.93517,7.0507,8.90546,6.96227,9.12108C6.87383,9.33657,7.03916,9.40429,6.95075,9.6198
			c-0.08846,0.21564-0.12892,0.19896-0.21734,0.41463c-0.08846,0.21564,0.01588,0.35295-0.21706,0.35328
			c-0.23293,0.00016-0.05045-0.16956-0.13857-0.38504C6.28934,9.78718,6.16351,9.83869,6.07541,9.62321
			c-0.08846-0.21533-0.06479-0.22497-0.1529-0.4403c-0.08846-0.21549,0.01372-0.25723-0.07474-0.4727
			C5.75936,8.49472,5.67867,8.52773,5.59025,8.3124c-0.08813-0.21551-0.0486-0.2317-0.1367-0.44717
			c-0.08846-0.21549-0.06103-0.22672-0.14916-0.4422C5.21597,7.2077,5.13096,7.24242,5.04281,7.02693
			C4.95436,6.81146,5.06463,6.76631,4.97617,6.55082C4.88776,6.33532,4.78714,6.3766,4.69872,6.16109
			C4.61059,5.9456,4.62025,5.94171,4.53183,5.72622C4.44337,5.51076,4.53274,5.47415,4.44429,5.25866
			c-0.08842-0.21533-0.09745-0.21158-0.1859-0.42691C4.16997,4.61627,4.08809,4.6499,3.99994,4.43441
			C3.91149,4.21875,3.96756,4.19586,3.87912,3.98024C3.79066,3.76475,3.748,3.78235,3.65959,3.56686
			c-0.08842-0.21549-0.0324-0.23855-0.12082-0.45417C3.45035,2.89704,3.43538,2.90374,3.35255,2.68576
			C3.30274,2.51945,3.23484,2.3678,3.2031,2.2143C3.16789,2.04224,3.12213,1.87984,3.10561,1.72617
			c-0.019-0.17843,0.04889-0.3475,0.04829-0.49806C3.15325,1.03862,3.04053,0.8636,3.05641,0.72473
			c0.03548-0.31046,0.35904-0.30893,0.1585-0.45402C3.09347,0.18275,3.08099,0.34154,2.9309,0.34154
			c-0.09836,0-0.09836-0.15928-0.19676-0.15928c-0.21738,0-0.21738-0.02398-0.43473-0.02398
			c-0.21765,0-0.21765,0.09359-0.43535,0.09359c-0.21734,0-0.21734-0.09219-0.43467-0.09219
			c-0.21771,0-0.21771,0.17082-0.43535,0.17082c-0.21767,0-0.21767-0.13452-0.43533-0.13452
			c-0.07941,0-0.07941-0.01308-0.15883-0.01308c-0.15009,0-0.18557-0.03287-0.31013,0.05105
			c-0.19589,0.13157,0.08377,0.16987,0.16847,0.45853C0.29556,0.81969,0.31765,0.97728,0.35784,1.1532
			c0.03207,0.13966,0.06853,0.29271,0.09747,0.46058c0.02555,0.1454,0.03085,0.30299,0.05105,0.46801
			c0.01837,0.14885-0.00557,0.30688,0.00654,0.47052c0.00189,0.03472,0.05794,0.06323,0.06012,0.0978
			c0.00249,0.03906,0.05946,0.07583,0.06166,0.11568c0.00872,0.15663-0.11895,0.32197-0.11119,0.48204
			c0.00782,0.15694,0.07442,0.31218,0.08129,0.47221c0.00652,0.1571,0.11243,0.31173,0.11833,0.47161
			c0.00561,0.1571,0.02958,0.31545,0.03457,0.47537c0.00496,0.15724-0.16128,0.32072-0.15696,0.48047
			c0.00407,0.15743,0.07631,0.31422,0.07972,0.47395C0.68356,5.77903,0.7776,5.93611,0.78007,6.0957
			C0.78229,6.25344,0.71721,6.41303,0.71873,6.5726c0.00156,0.1579,0.02711,0.31638,0.02803,0.47597
			C0.7474,7.20645,0.68636,7.36528,0.68636,7.52472c0,0.15694,0.0962,0.31342,0.0956,0.46863
			C0.78105,8.15032,0.77073,8.30678,0.76918,8.46201C0.76766,8.61895,0.73994,8.77498,0.73741,8.93021
			c-0.00216,0.1571,0.05669,0.31465,0.05358,0.46972C0.78786,9.55719,0.66643,9.71071,0.66239,9.86565
			c-0.00405,0.15726,0.03021,0.31449,0.02522,0.46928c-0.00496,0.15739-0.05823,0.31169-0.06415,0.46632
			c-0.00562,0.15739-0.05854,0.31122-0.06541,0.46583c-0.00654,0.15743,0.05854,0.3164,0.05109,0.47085
			c-0.00778,0.15755-0.02711,0.31278-0.0355,0.46692c-0.00872,0.15759,0.0847,0.3206,0.07536,0.47441
			c-0.01275,0.15165-0.18682,0.28057-0.2055,0.41852c-0.02057,0.1529,0.00529,0.30223-0.01966,0.43689
			c-0.02894,0.15539,0.00967,0.31358-0.02145,0.44281c-0.03894,0.16288-0.08846,0.30408-0.12427,0.42165
			c-0.08157,0.26669-0.40793,0.35733-0.2214,0.47128c0.1283,0.07849,0.19305-0.03564,0.34314-0.03564
			c0.05578,0,0.05578-0.03396,0.11152-0.03396c0.24192,0,0.24192-0.06662,0.4836-0.06662c0.24192,0,0.24192,0.05868,0.48387,0.05868
			c0.24198,0,0.24198,0.06355,0.48393,0.06355s0.24196-0.04875,0.48422-0.04875c0.24198,0,0.24133-0.0593,0.48329-0.06179
			c0,0-0.00432,0.00391-0.01139,0.00919c0.00693-0.00167,0.01357-0.00323,0.01637-0.00298
			c0.14976,0.01403,0.12954,0.04673,0.26562-0.01664c0.19836-0.09217-0.07876-0.05-0.11181-0.35813
			c-0.01244-0.11738,0.0405-0.26887,0.03085-0.4431c-0.00714-0.12876,0.0769-0.27621,0.07318-0.43925
			c-0.0028-0.13341-0.14416-0.27728-0.14389-0.43549c0.00033-0.13608,0.06697-0.28133,0.07038-0.43672
			c0.00313-0.13781-0.0168-0.28401-0.01059-0.43784c0.00033-0.01898-0.04515,0.05481-0.0442,0.03581
			c0.00812-0.14805,0.10928-0.29316,0.11677-0.44419c0.00714-0.14824-0.01121-0.2991-0.00469-0.45014
			c0.00627-0.14838-0.0498-0.30048-0.04418-0.45153c0.00557-0.14836,0.03143-0.29721,0.03641-0.44824
			c0.00469-0.14856-0.04764-0.29974-0.0436-0.45059c0.00374-0.14869,0.0383-0.29739,0.04142-0.44828
			c0.00309-0.14885-0.0137-0.29861-0.01121-0.44948c0.0022-0.14885,0.00716-0.25036,0.00872-0.4011
			c0.12769,0.2035,0.2158,0.15494,0.30673,0.37726c0.09124,0.22218,0.09249,0.22173,0.18374,0.4439
			c0.09091,0.22236,0.07939,0.22716,0.1703,0.4495c0.09128,0.2222,0.0841,0.22516,0.17532,0.44732
			c0.09095,0.22236,0.07258,0.22997,0.16381,0.45232c0.09122,0.22218,0.04455,0.24116,0.13577,0.4635
			c0.09124,0.22236,0.13515,0.20428,0.22641,0.42679c0.09122,0.22232,0.15786,0.19585,0.24694,0.41897
			c0.05572,0.15089,0.07534,0.30939,0.11925,0.4447c0.05014,0.15506,0.10525,0.29939,0.14136,0.43516
			c0.04239,0.16053-0.01026,0.32837,0.01497,0.46351c0.03174,0.16862-0.00529,0.31903,0.00436,0.4509
			c0.01372,0.1839,0.03456,0.31965,0.01837,0.43969c-0.03365,0.25147-0.05763,0.37619-0.12082,0.40593
			c0.14916,0.01882,0.14976-0.0137,0.29986-0.0137c0.17845,0,0.17845,0.10819,0.35657,0.10819
			c0.17843,0,0.17843-0.06228,0.35657-0.06228c0.27619,0,0.27619-0.05014,0.5524-0.05014c0.22701,0,0.52001-0.07038,0.7321,0.02382
			c0.099,0.04408,0.16161,0.11228,0.2706,0.14044c0.03456,0.00889,0.40608,0.06679,0.407,0.0556
			c0.01619-0.192,0.00374-0.39236,0.00374-0.58621c0-0.17127-0.02491-0.33755-0.01028-0.50931
			c0.01216-0.14246,0.07131-0.25875,0.09745-0.39765c0.02522-0.13515-0.05979-0.30922-0.0174-0.46972
			c0.03608-0.13579,0.07999-0.28384,0.13016-0.43878c0.04391-0.13561,0.1043-0.27728,0.16004-0.42817l0.00372,0.0008
			c0.09128-0.22251,0.12364-0.20928,0.2149-0.43144c0.09091-0.22218,0.18775-0.18248,0.27901-0.40468
			c0.09122-0.22218-0.06637-0.28662,0.02489-0.50882c0.09091-0.22234,0.20428-0.17578,0.2955-0.39795
			c0.09095-0.22236,0.03209-0.24665,0.12302-0.46896c0.09124-0.22218,0.03112-0.2468,0.12238-0.46896
			C9.44442,9.26637,9.4544,9.27041,9.54562,9.04806c0.09124-0.22232,0.17316-0.18092,0.30079-0.38471
			c0.00156,0.15054-0.03203,0.26654-0.02956,0.41523c0.00249,0.15058,0.05574,0.2991,0.05884,0.44763
			C9.87913,9.67694,9.88255,9.82626,9.8866,9.9748c0.00405,0.15054-0.12705,0.30408-0.1224,0.45244
			c0.00469,0.15074,0.04613,0.29927,0.05169,0.44763c0.00562,0.15089,0.08225,0.29754,0.08879,0.44578
			c0.00652,0.1507,0.01119,0.30003,0.01835,0.4481c0.00747,0.15087,0.0464,0.29863,0.05449,0.44652
			c0.0006,0.01652-0.15634-0.04391-0.1557-0.0274c0.00594,0.15367,0.10029,0.29663,0.10338,0.4344
			c0.00344,0.15554,0.0573,0.30112,0.05761,0.4372c0.0006,0.15821-0.11773,0.30252-0.12049,0.43613
			c-0.00378,0.163,0.13232,0.31418,0.12514,0.44281c-0.00961,0.17436-0.08219,0.31621-0.09463,0.4336
			c-0.03305,0.30797-0.30801,0.37617-0.10996,0.46836c0.13643,0.06319,0.17222,0.0045,0.32201-0.0095
			c0.00446-0.00041,0.00181-0.00897,0.00076-0.01571c0.23762,0.00148,0.23954-0.07756,0.48004-0.07756
			c0.24196,0,0.24196,0.03953,0.48391,0.03953s0.24196,0.03425,0.48393,0.03425c0.24196,0,0.24196,0.02244,0.4842,0.02244
			c0.24196,0,0.24196,0.06119,0.48391,0.06119c0.05543,0,0.05543-0.08721,0.11117-0.08721c0.15007,0,0.20614,0.12645,0.33413,0.0478
			c0.18651-0.11459-0.10899-0.19696-0.19058-0.46427C12.74023,14.27346,12.79163,14.10938,12.75239,13.94636z M10.10569,14.81426
			c-0.00255-0.01407-0.0088-0.03211-0.00921-0.04132c0.00062,0.00749,0.09747,0.00983,0.0984,0.01713
			C10.19488,14.79241,10.11571,14.8114,10.10569,14.81426z"/>
		<path class="st0" d="M24.67547,13.95879c-0.06102-0.12703-0.13729-0.26264-0.20675-0.41912
			c-0.05886-0.13281-0.11148-0.27917-0.17499-0.43347c-0.05638-0.1367-0.23359-0.23495-0.29242-0.38833
			c-0.05356-0.13951-0.00841-0.32368-0.06351-0.47706c-0.05015-0.14011-0.09188-0.28462-0.14231-0.42753
			c-0.04953-0.1406-0.14669-0.26595-0.19622-0.40902c-0.04887-0.14091-0.15694-0.26298-0.20581-0.40637
			c-0.04797-0.14122,0.00652-0.31858-0.04144-0.46198c-0.04731-0.14169-0.10774-0.27995-0.15475-0.42366
			c-0.0464-0.14215-0.15258-0.26593-0.19869-0.40994c-0.04543-0.14248-0.1152-0.27856-0.16035-0.42272
			c-0.04451-0.1428-0.0355-0.30332-0.07941-0.44781c-0.04359-0.14322-0.00216-0.31249-0.04482-0.45729
			c-0.04268-0.14355-0.09657-0.28397-0.13799-0.42895c-0.04138-0.14402-0.0498-0.29721-0.08997-0.44265
			c-0.04144-0.14869-0.14885-0.27806-0.18808-0.42537c-0.04017-0.14914-0.12518-0.28555-0.16348-0.43315
			c-0.03861-0.14945-0.02769-0.31077-0.06475-0.45851c-0.03739-0.14996-0.05482-0.30346-0.09064-0.45155
			c-0.03612-0.15025-0.06415-0.30095-0.09871-0.44933c-0.03517-0.15056-0.05698-0.30254-0.09062-0.45108
			c-0.03394-0.15072-0.06851-0.29986-0.10089-0.44839c-0.03301-0.1512-0.20428-0.27138-0.23571-0.42008
			c-0.03209-0.15149,0.09965-0.33586,0.06913-0.48455c-0.03116-0.15179-0.08036-0.29394-0.11023-0.44279
			c-0.00129-0.00983,0.0442,0.02038,0.04262,0.01043c-0.03328-0.16442-0.11833-0.31297-0.14291-0.46011
			C21.28375,2.4209,21.2819,2.26335,21.26413,2.1173c-0.02118-0.17158-0.09716-0.322-0.1065-0.46603
			c-0.01123-0.17796-0.04017-0.33676-0.03797-0.4758c0.00309-0.1912,0.11023-0.33835,0.12859-0.46431
			c0.04858-0.33257,0.30079-0.40046,0.0766-0.47907c-0.13984-0.0492-0.29738,0.00185-0.43938-0.0014
			c-0.22392-0.00529-0.44466-0.05621-0.6689-0.05621c-0.23976,0-0.23976,0.002-0.47922,0.002
			c-0.23947,0-0.23947,0.0232-0.47924,0.0232c-0.23947,0-0.23947,0.13686-0.47893,0.13686c-0.23948,0-0.23948-0.1535-0.47891-0.1535
			l-0.00033,0.01059c-0.06757,0-0.06757,0.06179-0.13513,0.06179c-0.03052,0-0.03052,0.04873-0.06137,0.04873
			c-0.21333,0-0.22796-0.1339-0.42942-0.06319c-0.22421,0.07878,0.01744,0.13873,0.06633,0.47128
			c0.01837,0.12596,0.09809,0.27247,0.1012,0.46367c0.00218,0.13919,0.03268,0.29894,0.02118,0.47706
			c-0.00934,0.14389,0.02367,0.30893,0.00249,0.48064c-0.01777,0.1462-0.15663,0.28695-0.18466,0.45448
			c-0.02458,0.147-0.06292,0.30223-0.09653,0.46663c-0.00122,0.00998,0.0847-0.01571,0.08346-0.0059
			c-0.02991,0.14885-0.01246,0.31107-0.0436,0.46272c-0.03052,0.14885-0.21737,0.26642-0.24945,0.41791
			c-0.03143,0.14869,0.03709,0.32027,0.00377,0.47146c-0.0324,0.14852-0.07691,0.29596-0.11088,0.44686
			c-0.03365,0.14838,0.00249,0.31434-0.0327,0.46492c-0.03456,0.14836-0.11584,0.28724-0.15229,0.43749
			c-0.03579,0.14809-0.11925,0.28555-0.15661,0.43551c-0.03706,0.14789-0.03739,0.30608-0.07627,0.45557
			c-0.03801,0.14776-0.19091,0.26593-0.23077,0.41507c-0.03955,0.14729-0.02022,0.31109-0.06166,0.45978
			c-0.04017,0.14529-0.10556,0.28261-0.147,0.42661c-0.04142,0.14513-0.09216,0.28635-0.13482,0.4299
			c-0.04266,0.1448,0.00687,0.31636-0.03643,0.45962c-0.04391,0.14449-0.14729,0.26996-0.1918,0.41274
			c-0.04515,0.14418-0.06697,0.29474-0.11277,0.43722c-0.04607,0.14387-0.1563,0.26593-0.2027,0.40793
			c-0.04704,0.14371-0.00778,0.31482-0.05514,0.45633c-0.04792,0.14355-0.03112,0.30828-0.07908,0.4495
			c-0.04889,0.14324-0.25939,0.22981-0.30828,0.37072c-0.04953,0.14309-0.0819,0.29069-0.13141,0.43129
			c-0.05045,0.14295-0.00718,0.31778-0.0573,0.45809c-0.05483,0.15319-0.05418,0.32152-0.10774,0.46102
			c-0.05887,0.15334-0.2432,0.24865-0.29955,0.38535c-0.06323,0.15414-0.07415,0.31887-0.13299,0.45184
			c-0.06913,0.15632-0.08624,0.32165-0.14727,0.44872c-0.0788,0.16379-0.18561,0.28695-0.24634,0.40199
			c-0.14355,0.27171-0.40702,0.21953-0.24758,0.39113c0.07226,0.07799,0.10153-0.00703,0.20772-0.00703
			c0.04391,0,0.04391,0.01933,0.08781,0.01933c0.241,0,0.241-0.02522,0.48171-0.02522c0.24104,0,0.24104-0.04811,0.48204-0.04811
			c0.24104,0,0.24104,0.01306,0.48175,0.01306c0.24104,0,0.24104,0.13454,0.48171,0.13454
			c0.24104,0,0.24104-0.17082,0.48175-0.17082c0.01713,0,0.01713,0.09219,0.03394,0.09219
			c0.24725,0,0.23201-0.02242,0.46959-0.09015c0.23884-0.06806-0.10369-0.03926-0.08781-0.40748
			c0.00562-0.13141,0.17905-0.27666,0.21082-0.47611c0.02273-0.14295-0.01119-0.31327,0.03052-0.49608
			c0.03332-0.14665,0.12582-0.29116,0.17407-0.46583c0.04111-0.14809-0.03145-0.341,0.02213-0.51071
			c0.00465-0.01524,0.00496,0.01588-0.00064,0.03085c0.00405-0.01277,0.03673-0.00125,0.04111-0.01417
			c0.1613,0.04655,0.33008,0.05868,0.49419,0.09404c0.1638,0.03532,0.32913,0.05449,0.49574,0.07832
			c0.16564,0.02365,0.32605,0.10181,0.49419,0.11364c0.1666,0.01199,0.33662-0.02832,0.50509-0.02832
			c0.01059,0,0.02086,0.05979,0.03145,0.05979c0.01057,0,0.02088-0.08781,0.03174-0.08781
			c0.16226,0,0.31985-0.01557,0.47988-0.02678c0.16163-0.01123,0.33193,0.06788,0.49137,0.04562
			c0.16008-0.02228,0.32417-0.04033,0.48175-0.07318c0.13299-0.02775,0.27598-0.12676,0.41066-0.18413
			c-0.00895-0.02606-0.01561-0.0536-0.00553-0.0608c0,0,0.01133,0.03015,0.02051,0.05488
			c0.02038-0.00819,0.04118-0.01853,0.06105-0.02404c0.05325,0.16893,0.00907,0.39016,0.05015,0.53761
			c0.04798,0.17391,0.17689,0.31002,0.21017,0.45606c0.04142,0.18184,0.0433,0.34939,0.06573,0.4917
			c0.03143,0.1985,0.00405,0.36184,0.00934,0.49261c0.01555,0.36636-0.22668,0.38006,0.01123,0.44763
			c0.23758,0.06742,0.23571,0.10868,0.48263,0.10868c0.01713,0,0.01713,0.02553,0.03425,0.02553
			c0.24104,0,0.24104-0.13577,0.48206-0.13577c0.24073,0,0.24073-0.02053,0.48173-0.02053c0.24102,0,0.24102,0.1051,0.48175,0.1051
			c0.241,0,0.241,0.04375,0.48171,0.04375c0.24104,0,0.24104-0.17861,0.48171-0.17861c0.04363,0,0.04363,0.07832,0.08754,0.07832
			c0.10646,0,0.08437,0.03894,0.15691-0.03906c0.15944-0.17127,0.01588-0.10823-0.12767-0.37977
			C24.83773,14.25384,24.75427,14.12276,24.67547,13.95879z M20.09888,9.73391c-0.17656,0.01946-0.34879,0.14544-0.5294,0.14544
			c-0.01086,0-0.02117-0.0081-0.03174-0.0081c-0.01059,0-0.02086,0.04375-0.03145,0.04375
			c-0.12861,0-0.25595-0.10013-0.38271-0.11039c-0.128-0.01028-0.25972,0.00574-0.3852-0.01419
			c-0.12674-0.02007-0.26626-0.06493-0.39049-0.09373c0.04295-0.14307,0.1912-0.27014,0.23386-0.41478
			c0.04235-0.14324,0.04548-0.2991,0.0875-0.4439c0.04202-0.1434,0.01713-0.30704,0.05887-0.45197
			c0.04108-0.14355,0.08157-0.28806,0.12267-0.43315c0.04048-0.14387,0.12518-0.27623,0.16568-0.42148
			c0.04542-0.16413,0.1015-0.32432,0.14507-0.48673c0.04391-0.1644,0.04984-0.33787,0.09155-0.50055
			c0.04239-0.16489,0.02057-0.34443,0.06107-0.50742c0.04077-0.16537,0.1448-0.27047,0.1837-0.43364
			c0.03893,0.16317,0.0629,0.28804,0.10401,0.45341c0.04017,0.16284,0.02647,0.34112,0.06882,0.50618
			c0.04173,0.16269,0.09093,0.32524,0.13483,0.48981c0.04329,0.16224,0.09869,0.32307,0.14449,0.48705
			c0.04046,0.14665,0.0492,0.30188,0.08999,0.44699c0.04142,0.14636,0.09965,0.28759,0.14137,0.43239
			c0.04204,0.1462,0.15694,0.27074,0.1993,0.41538c0.04266,0.14605,0.06569,0.29709,0.10868,0.44158
			c0.04327,0.14589,0.10278,0.28662,0.14605,0.43082C20.46102,9.74434,20.2776,9.71431,20.09888,9.73391z"/>
		<path class="st0" d="M21.45253,12.41522c-0.00249-0.00669,0.00965-0.01777,0.00716-0.02462c0,0-0.00551-0.01456-0.01156-0.03091
			c-0.005,0.00202-0.00996,0.00376-0.01498,0.00592C21.44106,12.38861,21.45077,12.41053,21.45253,12.41522z"/>
	</g>
	<g>
		<g>
			<path class="st0" d="M98.50668,3.30163c0.07646,0,0.15075,0.06231,0.22504,0.06385
				c0.07646,0.00154,0.15229-0.02795,0.22598-0.02455c0.07645,0.00336,0.15351-0.02886,0.22717-0.02396
				c0.07614,0.0049,0.15137,0.0138,0.22475,0.02025c0.06171,0.00522,0.11391,0.04269,0.167,0.07124
				c0.05804,0.031,0.11268,0.04206,0.17838,0.04238c0.10868,0.00028,0.21768-0.00707,0.32668-0.00399
				c0.10284,0.00277,0.20969,0.02301,0.307,0.05649c0.05988,0.02056,0.11729,0.04665,0.18177,0.04357
				c0.05832-0.00245,0.1179-0.02609,0.17622-0.01289c0.07982,0.01811,0.14829,0.05958,0.21431,0.07677
				c0.0835,0.02147,0.15443,0.04697,0.21429,0.06476c0.13692,0.04021,0.14122,0.16486,0.21982,0.08781
				c0.05005-0.04911-0.0006-0.05954-0.02763-0.09425c-0.031-0.0399-0.03436-0.11145-0.05219-0.15873
				c-0.02273-0.06077-0.01965-0.1277-0.02917-0.19096c-0.01134-0.0746-0.04879-0.14367-0.06599-0.21705
				c-0.01597-0.06784-0.03899-0.13877-0.05589-0.21554c-0.01534-0.06938-0.03559-0.14122-0.05125-0.21736
				c-0.01443-0.0703-0.01937-0.14553-0.03408-0.22104c-0.01414-0.07092-0.02795-0.14399-0.04178-0.21922
				c-0.01258-0.07152-0.02025-0.14581-0.03282-0.22104c-0.01198-0.07184-0.04883-0.14122-0.0602-0.21614
				c-0.01104-0.07215-0.01717-0.14644-0.0276-0.22104c-0.01015-0.07278-0.02981-0.14553-0.0393-0.22045
				c-0.00922-0.07338-0.03103-0.14613-0.0393-0.22136c-0.0083-0.07306,0.04819-0.15383,0.04081-0.22871
				c-0.00736-0.07338-0.01994-0.14647-0.02638-0.22107c-0.00616-0.0746-0.0393-0.13999-0.04452-0.21582
				c-0.10809-0.03499-0.11116,0.02056-0.22507,0.02056c-0.11418,0-0.11418-0.01471-0.22811-0.01471
				c-0.1139,0-0.1139-0.03348-0.22781-0.03348c-0.1139,0-0.1139,0.05741-0.22749,0.05741s-0.11359-0.05219-0.2272-0.05219
				c-0.11359,0-0.11359,0.02458-0.22717,0.02458s-0.11359-0.04115-0.2272-0.04115c-0.11359,0-0.11359,0.06385-0.22717,0.06385
				s-0.11359-0.04511-0.2272-0.04511c-0.11391,0-0.11391-0.02336-0.22781-0.02336c-0.11421,0-0.11421,0.03747-0.22811,0.03747
				c-0.11422,0-0.11422-0.00462-0.2284-0.00462c-0.1139,0-0.1139-0.01566-0.22812-0.01566c-0.1139,0-0.1139,0.01229-0.2278,0.01229
				c-0.11362,0-0.11362-0.01965-0.22752-0.01965c-0.1139,0-0.1139,0.05986-0.2278,0.05986s-0.1139-0.01198-0.22781-0.01198
				c-0.1139,0-0.1139-0.06077-0.22811-0.06077c-0.1142,0-0.1142,0.06722-0.22871,0.06722
				c-0.11391,0-0.11391-0.05433-0.22813-0.05433c-0.1139,0-0.1139,0.02886-0.2278,0.02886
				c-0.11422,0-0.11422-0.00644-0.22812-0.00644c-0.11327,0-0.11327,0.03376-0.22658,0.03376
				c-0.11327,0-0.11327-0.00799-0.22657-0.00799c-0.11359,0-0.11359-0.00245-0.2272-0.00245
				c-0.11391,0-0.11391-0.03439-0.22809-0.03439c-0.11453,0-0.11453-0.0227-0.22905-0.0227
				c-0.11391,0-0.11391,0.04052-0.22781,0.04052s-0.1139-0.03471-0.2278-0.03471c-0.11422,0-0.11422,0.04637-0.2284,0.04637
				c-0.11452,0-0.11452,0.01965-0.22903,0.01965c-0.11421,0-0.11421-0.03348-0.22874-0.03348
				c-0.11449,0-0.11449,0.0338-0.22871,0.0338c-0.11485,0-0.11485-0.00707-0.22934-0.00707
				c-0.11453,0-0.11453,0.00676-0.22935,0.00676c-0.11421,0-0.11421-0.06816-0.22874-0.06816
				c-0.11449,0-0.11449,0.03254-0.22871,0.03254c-0.11481,0-0.11481-0.01166-0.22965-0.01166
				c-0.11481,0-0.11481,0.00953-0.22994,0.00953c-0.11544,0-0.11544-0.02795-0.23088-0.02795
				c-0.11513,0-0.109,0.03222-0.21889,0.06753c-0.00491,0.07523-0.01413,0.1139-0.02026,0.18791
				c-0.00616,0.07492-0.03317,0.14767-0.04053,0.22136c-0.00739,0.07523-0.03807,0.14675-0.04637,0.22013
				c-0.00858,0.0752,0.02028,0.1538,0.01107,0.22689c-0.00953,0.07492,0.01566,0.1538,0.0055,0.22658
				c-0.01072,0.07492-0.09548,0.13786-0.10683,0.21029c-0.01134,0.07492-0.01289,0.14983-0.02486,0.22167
				c-0.01257,0.07523,0.027,0.15782,0.01411,0.22934c-0.01347,0.07551-0.05064,0.14462-0.06448,0.21582
				c-0.0147,0.07551-0.03436,0.14798-0.04911,0.21828c-0.01597,0.07586-0.05649,0.14279-0.07183,0.21218
				c-0.01811,0.08042-0.04207,0.16332-0.07369,0.23947c-0.02396,0.05772-0.05065,0.13078-0.05986,0.19218
				c-0.0083,0.05649-0.02763,0.08627-0.05159,0.13691c-0.02025,0.0436-0.02147,0.10164-0.02732,0.14801
				c-0.00584,0.04725-0.01474,0.19985,0.05804,0.20385c0.02792,0.00154,0.05801-0.02795,0.07982-0.04206
				c0.03314-0.0215,0.06693-0.04021,0.10529-0.05128c0.06017-0.01751,0.11943-0.08227,0.20264-0.10378
				c0.06599-0.0172,0.15134,0.0172,0.23057-0.00091c0.06844-0.01566,0.13906-0.03839,0.21706-0.05404
				c0.06969-0.01412,0.14307-0.02424,0.22013-0.03776c0.07061-0.01226,0.14398-0.02333,0.22073-0.03531
				c0.07156-0.01103,0.14462-0.02119,0.22108-0.031c0.07214-0.00953,0.14675-0.01107,0.22318-0.01933
				c0.07247-0.00799,0.14-0.0869,0.21615-0.09334c0.07337-0.00644,0.15228,0.04144,0.22874,0.03653
				c0.07307-0.0049,0.14521-0.0519,0.22104-0.05527c0.07398-0.00308,0.15106,0.04206,0.22781,0.04021
				c0.07429-0.00151,0.14921-0.04697,0.22595-0.04697c0.11207,0,0.11207-0.02641,0.22412-0.02641
				c0.11267,0,0.11267,0.06049,0.22535,0.06049c0.11267,0,0.11267-0.00676,0.22535-0.00676
				c0.08997,0,0.17439-0.02025,0.26096,0.0083c0.09824,0.03222,0.16396,0.07922,0.19281,0.18052
				C94.91,3.6074,94.87715,3.68816,94.87715,3.77226c0,0.11176-0.01506,0.11176-0.01506,0.22321
				c0,0.11145,0.02364,0.11145,0.02364,0.2229s-0.03191,0.11145-0.03191,0.22318c0,0.11239-0.01076,0.11239-0.01076,0.22444
				c0,0.11208,0.02763,0.11208,0.02763,0.22381c0,0.11176-0.02795,0.11176-0.02795,0.22381
				c0,0.11239,0.00585,0.11239,0.00585,0.22475c0,0.11205,0.05432,0.11205,0.05432,0.22412
				c0,0.11205-0.00827,0.11205-0.00827,0.22412c0,0.11173,0.01717,0.11173,0.01717,0.2235
				c0,0.11267-0.06322,0.11267-0.06322,0.22504s0.07615,0.11236,0.07615,0.22504s-0.08138,0.11267-0.08138,0.22566
				c0,0.11299,0.08014,0.1133,0.07951,0.22626c0,0.00553-0.05341-0.0172-0.05341-0.01166c0,0.07677,0.02147,0.1532,0.02119,0.22843
				c-0.00031,0.07674,0.03345,0.1532,0.03285,0.22843c-0.00031,0.07674-0.03869,0.15257-0.0393,0.2278
				c-0.00094,0.07674-0.03257,0.15226-0.03348,0.2278c-0.00092,0.07643,0.05187,0.1532,0.05064,0.2284
				c-0.00123,0.07646-0.01534,0.1526-0.01688,0.22752c-0.00155,0.07674,0.00462,0.15288,0.00276,0.2278
				c-0.00182,0.07674-0.03531,0.15166-0.03745,0.22689c-0.00217,0.07674,0.04112,0.15411,0.03867,0.22903
				c-0.00246,0.07737-0.00827,0.15411-0.01076,0.22963c-0.00304,0.07737-0.07642,0.15106-0.07951,0.22657
				c-0.00305,0.07737-0.0006,0.15383-0.00399,0.22906c-0.00336,0.07737,0.04819,0.15656,0.04452,0.23179
				c-0.004,0.07737,0.0089,0.15442,0.00491,0.22934c-0.00428,0.07734-0.03314,0.15226-0.03775,0.22717
				c-0.0046,0.07705-0.0393,0.15137-0.04421,0.22598c-0.00491,0.07706-0.01198,0.15257-0.0172,0.22717
				c-0.00553,0.07706-0.00277,0.15351-0.00858,0.2278c-0.00584,0.07705-0.02059,0.15166-0.02673,0.22598
				c-0.00644,0.07674-0.01597,0.15197-0.02273,0.22595c-0.00673,0.07677-0.01471,0.15197-0.02178,0.22566
				c-0.00768,0.07674,0.00122,0.15383-0.00645,0.2272c-0.00799,0.07705,0.00368,0.15502-0.00459,0.2284
				c-0.00861,0.07737-0.07246,0.14584-0.08108,0.2189c-0.00949,0.07737-0.01933,0.15229-0.02885,0.22535
				c-0.00981,0.07768,0.02364,0.15842,0.01321,0.2312c-0.01073,0.07765-0.0433,0.14921-0.05402,0.22164
				c-0.01198,0.07768,0.027,0.16027,0.01534,0.23211c-0.01289,0.078-0.08196,0.14339-0.09425,0.2146
				c-0.01412,0.07891,0.02486,0.16335,0.01103,0.23396c-0.01534,0.07891-0.03622,0.15226-0.05096,0.22167
				c-0.01688,0.07951-0.01748,0.15719-0.03345,0.22441c-0.01905,0.08168-0.06693,0.14767-0.08413,0.21246
				c-0.02273,0.08658-0.04483,0.15905-0.06261,0.21799c-0.04484,0.14644-0.19464,0.20077-0.08722,0.23148
				c0.12189,0.03499,0.13326-0.02578,0.26006-0.02578c0.12711,0,0.12711,0.04357,0.25421,0.04357s0.12711-0.05128,0.25422-0.05128
				c0.11021,0,0.11021-0.03037,0.22044-0.03037c0.1105,0,0.1105,0.07797,0.22073,0.07797c0.11082,0,0.11082,0.00214,0.22136,0.00214
				c0.11054,0,0.11054-0.06262,0.22136-0.06262c0.11481,0,0.11481,0.04819,0.22966,0.04819
				c0.11449,0,0.11449-0.02392,0.22934-0.02392c0.11421,0,0.11421-0.03716,0.22872-0.03716c0.11511,0,0.11511,0.0304,0.23024,0.0304
				c0.11514,0,0.11514-0.01905,0.23058-0.01905c0.11545,0,0.11545-0.00091,0.2312-0.00091
				c0.11572,0,0.11572,0.01751,0.23116,0.01751c0.12651,0,0.12651-0.02028,0.25298-0.02028
				c0.12711,0,0.12711,0.01443,0.2539,0.01443c0.12682,0,0.13477,0.05958,0.25697,0.02427
				c0.109-0.03163-0.01075-0.08168-0.05618-0.23088c-0.01811-0.05926-0.06602-0.12374-0.08872-0.21092
				c-0.0172-0.06508-0.02364-0.14122-0.04269-0.2229c-0.01594-0.06784-0.02116-0.14367-0.03835-0.22381
				c-0.01475-0.06938-0.02886-0.14367-0.04424-0.2229c-0.0138-0.07061-0.08318-0.13509-0.09698-0.21369
				c-0.0126-0.07121,0.03377-0.15625,0.02116-0.23425c-0.01198-0.07215-0.07614-0.13877-0.08781-0.21645
				c-0.01103-0.07243,0.03593-0.15597,0.02487-0.23362c-0.01012-0.07278-0.0488-0.14399-0.05895-0.22136
				c-0.00921-0.07309-0.02914-0.14707-0.03867-0.22444c-0.00861-0.07338-0.02179-0.14829-0.0304-0.22566
				c-0.0083-0.07306,0.04207-0.15502,0.03408-0.23239c-0.00767-0.07369-0.0703-0.14339-0.07768-0.22076
				c-0.00735-0.07397-0.0055-0.15043-0.01257-0.22749c-0.00645-0.07429-0.01412-0.14983-0.02028-0.22689
				c-0.00613-0.07429,0.02242-0.15257,0.01659-0.22966c-0.00584-0.07429-0.0215-0.14889-0.02703-0.22595
				c-0.00522-0.07429,0.00616-0.15075,0.00125-0.2278c-0.00493-0.07429-0.04301-0.14798-0.04759-0.22475
				c-0.00431-0.07397,0.01965-0.15075,0.01534-0.22686c-0.004-0.07432-0.06939-0.14675-0.07307-0.22321
				c-0.00368-0.07429,0.04361-0.15229,0.04021-0.22903c-0.00336-0.0746-0.06354-0.14798-0.06662-0.22444
				c-0.00308-0.07492,0.00368-0.15134,0.00091-0.22812c-0.00276-0.0752-0.00399-0.15103-0.00644-0.2278
				c-0.00246-0.0752,0.03131-0.15257,0.02917-0.22962c-0.00186-0.07432,0.02578-0.15046,0.02396-0.22661
				C97.4352,8.42601,97.35352,8.352,97.35201,8.27557c-0.00154-0.07523,0.07307-0.1526,0.07184-0.22934
				C97.42262,7.97069,97.42294,7.89486,97.422,7.8178c-0.00092-0.07492-0.03069-0.15043-0.03131-0.22689
				c-0.00092-0.07551-0.02855-0.15197-0.02917-0.22903c-0.0006-0.07551,0.02427-0.15166,0.02395-0.22843
				c-0.00031-0.07674-0.03439-0.15442-0.03439-0.23271c0-0.11113,0.03993-0.11113,0.03993-0.22258s-0.01842-0.11145-0.01842-0.22321
				c0-0.11113-0.01534-0.11113-0.01534-0.22258c0-0.11113,0.05555-0.11113,0.05555-0.22227c0-0.11145-0.0442-0.11145-0.0442-0.22258
				c0-0.11176,0.00336-0.11176,0.00336-0.22349c0-0.11176,0.03103-0.11176,0.03103-0.22321s-0.03685-0.11145-0.03685-0.22321
				c0-0.11173-0.01075-0.11173-0.01075-0.22381c0-0.11205,0.02641-0.11205,0.02641-0.22381s-0.01534-0.11176-0.01534-0.22321
				s0.04358-0.11145,0.04358-0.22287c0-0.11208-0.05464-0.11208-0.05464-0.22412c0-0.11208,0.05064-0.11208,0.05064-0.22444
				c0-0.07061-0.01748-0.14584-0.03345-0.2146c-0.01965-0.08381,0.00308-0.13386,0.03009-0.21309
				c0.01656-0.04819,0.03345-0.07643,0.08812-0.07765c0.05401-0.00094,0.10899,0.01842,0.16269,0.02242
				c0.05835,0.00428,0.11698,0.00799,0.17561,0.00799c0.11268,0,0.11268,0.02638,0.22535,0.02638
				c0.1133,0,0.11485,0.02704,0.22781,0.01905C98.39586,3.33816,98.39369,3.30163,98.50668,3.30163z"/>
		</g>
		<path class="st0" d="M65.59513,7.00638c-0.0436,0.15442-0.00921,0.15411-0.00921,0.3147c0,0.0089,0.03439,0.0089,0.03439,0.01751
			c0,0.12616-0.02886,0.12616-0.02886,0.25236c0,0.12648-0.05772,0.12648-0.05772,0.25267c0,0.12619,0.0172,0.12619,0.0172,0.25267
			c0,0.12619,0.04911,0.12619,0.04911,0.25235c0,0.12651-0.06567,0.12651-0.06567,0.2527c0,0.12616,0.05464,0.12616,0.05464,0.25267
			c0,0.12616-0.06326,0.12616-0.06326,0.25235c0,0.12648,0.02763,0.12648,0.02763,0.25298c0,0.16917,0,0.16854,0.0442,0.33218
			c0.03317,0.12129,0.06448-0.00981,0.22045-0.05464c0.06753-0.01965,0.13386-0.10192,0.2278-0.12465
			c0.07429-0.01779,0.17071,0.02672,0.26034,0.0089c0.07677-0.01534,0.15292-0.06662,0.24133-0.08105
			c0.07859-0.01258,0.16457-0.00981,0.25113-0.02087c0.08044-0.01012,0.16212-0.0359,0.24931-0.0442
			c0.08044-0.00767,0.16763,0.031,0.2542,0.02578c0.08169-0.00522,0.16455-0.00522,0.25053-0.00767
			c0.08228-0.00277,0.16518-0.01842,0.25113-0.01842c0.07429,0,0.09579-0.07306,0.15965-0.03562
			c-0.00245,0.08504-0.03069,0.18637-0.03685,0.26559c-0.00612,0.08504,0.04669,0.17407,0.03625,0.25295
			c-0.01107,0.08476-0.08967,0.15628-0.105,0.23428c-0.01597,0.0841-0.03072,0.16392-0.05037,0.24038
			c-0.0221,0.0829-0.04175,0.16181-0.06815,0.2361c-0.02886,0.08105-0.07983,0.14707-0.11296,0.21828
			c-0.03684,0.078-0.05712,0.15751-0.09887,0.22444c-0.04484,0.07306-0.11054,0.12343-0.16028,0.18451
			c-0.05401,0.06662-0.06262,0.1704-0.12094,0.22381c-0.06262,0.05772-0.16087,0.06725-0.22658,0.11176
			c-0.07001,0.04728-0.1216,0.1222-0.19344,0.15688c-0.07674,0.03653-0.15411,0.07155-0.23026,0.09579
			c-0.08105,0.02578-0.16087,0.05832-0.23887,0.07306c-0.08472,0.01597-0.17313-0.01044-0.25113-0.00399
			c-0.0884,0.00739-0.17131,0.02763-0.24622,0.02763c-0.07184,0-0.1572-0.02025-0.25236-0.02732
			c-0.07737-0.00585-0.15289-0.05373-0.24068-0.07306c-0.078-0.01688-0.15047-0.04269-0.23334-0.07583
			c-0.07369-0.03009-0.14-0.06633-0.21555-0.1133c-0.06815-0.04206-0.15842-0.0531-0.22594-0.11205
			c-0.05957-0.05219-0.12955-0.10133-0.1879-0.16948c-0.05156-0.06017-0.09393-0.13446-0.14308-0.20878
			c-0.0448-0.0663-0.08532-0.13968-0.12711-0.21796c-0.03807-0.07061-0.08041-0.14367-0.11541-0.22475
			c-0.03257-0.07366-0.08231-0.14521-0.11239-0.2284c-0.02763-0.07583-0.0055-0.17131-0.03069-0.25544
			c-0.02332-0.078-0.12342-0.13817-0.1443-0.22353c-0.01965-0.07888,0.05219-0.18174,0.03499-0.2671
			c-0.01657-0.0801-0.04788-0.1587-0.06263-0.24437c-0.01411-0.08073-0.06325-0.1581-0.07551-0.2444
			c-0.01107-0.08105,0.0172-0.16914,0.00735-0.25544c-0.00921-0.08165,0.00368-0.16669-0.00431-0.25295
			c-0.00676-0.08168-0.06263-0.1615-0.06876-0.24776c-0.00553-0.08199,0.00123-0.16672-0.00308-0.25298
			c-0.00368-0.08259-0.05895-0.16486-0.0614-0.25113c-0.00246-0.08259,0.03071-0.16794,0.02949-0.25393
			c-0.00126-0.08287-0.02396-0.167-0.02396-0.25327c0-0.08598,0.03009-0.17008,0.03131-0.25267
			c0.00122-0.08627-0.04665-0.17194-0.0442-0.25452c0.00245-0.08627,0.02823-0.17008,0.03191-0.25267
			c0.00431-0.08598,0.07555-0.1664,0.08105-0.24839c0.00553-0.08627-0.00428-0.17099,0.00308-0.25267
			c0.00735-0.08627,0.03684-0.16731,0.04543-0.24899c0.00984-0.08627-0.06445-0.1802-0.05341-0.26157
			c0.01167-0.08595,0.10991-0.15597,0.12343-0.2367c0.01474-0.08598-0.00245-0.17379,0.01352-0.25361
			c0.01779-0.08564,0.04973-0.16392,0.06938-0.24314c0.02088-0.08473-0.00494-0.17929,0.01842-0.25698
			c0.02515-0.08441,0.05156-0.16577,0.0786-0.2416c0.03008-0.08322,0.1277-0.13418,0.15965-0.20787
			c0.03561-0.08136,0.00427-0.18942,0.04175-0.26003c0.04234-0.0786,0.13264-0.1222,0.17683-0.1885
			c0.04974-0.07432,0.1007-0.13754,0.15229-0.19772c0.05832-0.06816,0.07366-0.17134,0.13383-0.22381
			c0.06693-0.05895,0.1787-0.04791,0.24685-0.08998c0.07552-0.04697,0.11359-0.15688,0.18791-0.18665
			c0.08287-0.03348,0.17313-0.04483,0.25113-0.06203c0.08781-0.01933,0.18052,0.03254,0.25789,0.02672
			c0.09516-0.00707,0.17806-0.07309,0.2499-0.07309c0.07001,0,0.15659-0.00981,0.24931-0.00274
			c0.07614,0.00613,0.15166,0.06876,0.23761,0.08749c0.07614,0.01657,0.14798,0.05187,0.22843,0.08381
			c0.07246,0.02855,0.14367,0.05954,0.21799,0.10469c0.06631,0.04052,0.14857,0.06354,0.2149,0.12003
			c0.05955,0.05036,0.13754,0.09089,0.19527,0.15597c0.05156,0.05835,0.11419,0.11881,0.16332,0.19036
			c0.04483,0.06385,0.05341,0.15719,0.09579,0.23302c0.03807,0.06847,0.05586,0.15012,0.09148,0.22871
			c0.03254,0.07187,0.0393,0.15537,0.06938,0.23579c0.02824,0.07401,0.12711,0.12588,0.15289,0.20787
			c0.02332,0.07551-0.00982,0.16917,0.01166,0.25173c0.01537,0.08998,0.01537,0.16244,0.01475,0.23183
			c-0.00123,0.0967,0.02395,0.17621,0.00553,0.23824c-0.04546,0.14798-0.2401,0.17313-0.12466,0.20539
			c0.13264,0.03716,0.13877-0.03653,0.27631-0.03653c0.10133,0,0.10133,0.02455,0.20202,0.02455
			c0.1013,0,0.1013,0.02242,0.20203,0.02242c0.12647,0,0.12647,0.00613,0.25235,0.00613c0.12589,0,0.12589-0.05404,0.25176-0.05404
			c0.12648,0,0.12648,0.05835,0.25236,0.05835s0.12588,0.00707,0.25235,0.00707c0.12588,0,0.12588-0.07338,0.25176-0.07338
			c0.1265,0,0.1265,0.03222,0.25238,0.03222c0.12585,0,0.12585-0.02701,0.25173-0.02701c0.1265,0,0.1265,0.00858,0.25239,0.00858
			c0.12588,0,0.12588,0.0304,0.25235,0.0304c0.12896,0,0.12956,0.01534,0.25666-0.0089
			c0.11975-0.02304-0.04298-0.0387-0.12588-0.19649c-0.03008-0.05744-0.06876-0.12619-0.10378-0.21922
			c-0.02455-0.06662-0.02393-0.15012-0.04974-0.23887C70.59026,4.7974,70.52764,4.7305,70.50736,4.6436
			c-0.01352-0.08045-0.03807-0.15751-0.05282-0.23488c-0.01534-0.08014,0.01415-0.16763-0.00245-0.245
			c-0.00246-0.01166,0-0.02119-0.00182-0.03317c0.00245,0.0132-0.00922,0.04147-0.01229,0.02826
			c-0.0178-0.08322-0.08841-0.15229-0.10745-0.23211C70.31027,3.84413,70.2894,3.7643,70.2679,3.6848
			c-0.0221-0.08227,0.00735-0.17715-0.01657-0.25575c-0.02458-0.08168-0.02518-0.17008-0.05158-0.24808
			c-0.02701-0.08073-0.11852-0.13754-0.14735-0.21428c-0.03012-0.07951-0.00984-0.17775-0.04115-0.25358
			c-0.03317-0.0786-0.06203-0.15873-0.09702-0.23305c-0.03622-0.07706-0.15166-0.11296-0.18973-0.18574
			c-0.0393-0.07551-0.05096-0.16301-0.09212-0.23362C69.58939,1.987,69.54152,1.91944,69.49606,1.851
			c-0.04665-0.07124-0.05404-0.16857-0.10255-0.23456c-0.05096-0.06816-0.12094-0.12035-0.17376-0.1836
			c-0.05463-0.06508-0.132-0.10746-0.1885-0.16703c-0.05832-0.06168-0.09089-0.14735-0.15166-0.20322
			c-0.06203-0.05744-0.16273-0.06756-0.22721-0.11912c-0.0657-0.05282-0.09884-0.14616-0.167-0.19344
			c-0.06938-0.04819-0.13141-0.10837-0.20264-0.15075c-0.07244-0.04298-0.15411-0.07215-0.22781-0.10928
			c-0.07488-0.03807-0.16455-0.0436-0.24129-0.07583c-0.07737-0.03317-0.15905-0.04823-0.23764-0.07555
			c-0.07922-0.02792-0.14062-0.11082-0.22105-0.13324c-0.08045-0.02301-0.17379,0.0049-0.25543-0.0132
			c-0.08168-0.01811-0.16704-0.0089-0.24931-0.02273c-0.08228-0.0138-0.15534-0.0924-0.23765-0.10192
			c-0.0835-0.00981-0.1664-0.0359-0.24927-0.04206c-0.08413-0.00613-0.16886-0.02242-0.25176-0.02515
			c-0.08413-0.00308-0.16948,0.01688-0.25235,0.01688c-0.08353,0-0.1664,0.05495-0.25053,0.05772
			c-0.0835,0.00305-0.16703,0.00151-0.25113,0.00767c-0.0829,0.00613-0.16949-0.0166-0.25298-0.00676
			c-0.0829,0.00953-0.15659,0.08073-0.23946,0.09457c-0.08231,0.01349-0.17072-0.00921-0.25299,0.0089
			c-0.08167,0.01811-0.16027,0.04574-0.24131,0.06847c-0.08046,0.0227-0.15352,0.06445-0.23335,0.09208
			c-0.07859,0.02763-0.15106,0.06511-0.22902,0.09824c-0.07677,0.03226-0.17747,0.01198-0.25299,0.05005
			c-0.07369,0.03747-0.13568,0.09979-0.20815,0.14339c-0.07124,0.04235-0.16581,0.05219-0.23579,0.1007
			c-0.06816,0.04728-0.11852,0.12157-0.18483,0.17499c-0.06448,0.0519-0.14185,0.0918-0.20448,0.14952
			c-0.0608,0.05618-0.1001,0.13663-0.15842,0.19863c-0.0565,0.05958-0.10255,0.13019-0.15719,0.19589
			c-0.05281,0.06325-0.14738,0.09639-0.19771,0.16518c-0.04914,0.06599-0.1007,0.13478-0.14798,0.2063
			c-0.04483,0.06879-0.03194,0.17561-0.07492,0.24962c-0.04175,0.07092-0.10315,0.13201-0.14244,0.20784
			c-0.03807,0.07306-0.06634,0.15197-0.10255,0.22966c-0.03499,0.07429-0.11972,0.12924-0.15288,0.20815
			c-0.03194,0.07583,0.00368,0.1802-0.02641,0.26034c-0.02885,0.07677-0.08535,0.14521-0.11299,0.22626
			c-0.02578,0.078-0.03439,0.16304-0.05894,0.245c-0.02393,0.07891-0.07306,0.15197-0.09517,0.23428
			c-0.0215,0.07982,0.00309,0.1719-0.0172,0.25512c-0.01902,0.08014-0.0835,0.15134-0.10133,0.23456
			c-0.0172,0.08073-0.02332,0.16518-0.0393,0.24899c-0.01534,0.08105,0.01044,0.1704-0.00305,0.25449
			c-0.01352,0.08136-0.05344,0.15936-0.0657,0.24377c-0.01229,0.08168-0.04851,0.1615-0.05957,0.24591
			c-0.00982,0.08199,0.0092,0.16857,0,0.25298c-0.00922,0.08231-0.05342,0.16213-0.06141,0.24685
			c-0.00735,0.08227,0.02333,0.16917,0.0166,0.2539c-0.00616,0.08259-0.04546,0.16395-0.05037,0.24868
			c-0.00554,0.08259,0.05587,0.1698,0.05219,0.25452c-0.00431,0.0829-0.0835,0.16332-0.08595,0.24808
			c-0.00308,0.08287,0.03807,0.16791,0.03622,0.25295c-0.00182,0.0829-0.05282,0.16581-0.05341,0.25053
			c-0.00123,0.08322-0.01043,0.16731-0.01043,0.25207c0,0.08504,0.04605,0.16854,0.04728,0.25176
			c0.0006,0.08473-0.04606,0.16977-0.0442,0.25267c0.00182,0.08473,0.07552,0.16669,0.07797,0.24927
			c0.00308,0.08504-0.03499,0.17039-0.03131,0.25298c0.00431,0.08504-0.00676,0.1698-0.00185,0.25239
			c0.00554,0.08504,0.00245,0.16977,0.00861,0.25236c0.00613,0.08473,0.08963,0.16178,0.09762,0.24409
			c0.00739,0.08473-0.06017,0.1759-0.05156,0.2582c0.00921,0.08441,0.07366,0.16147,0.0841,0.24374
			c0.01044,0.08413,0.02337,0.16703,0.03502,0.24871c0.01226,0.0841-0.01414,0.17313-0.00063,0.25481
			c0.01412,0.08413,0.06507,0.16027,0.08045,0.24132c0.01534,0.08381-0.00922,0.17439,0.00798,0.25512
			c0.0178,0.08322,0.0227,0.16917,0.04175,0.24931c0.01965,0.08319,0.05341,0.1621,0.07492,0.2416
			c0.0221,0.08227,0.06385,0.15842,0.08718,0.23733c0.02456,0.08168,0.09887,0.14584,0.12465,0.22381
			c0.02764,0.08105,0.02764,0.16885,0.05587,0.24622c0.03008,0.07982,0.09947,0.14154,0.13079,0.21736
			c0.03316,0.07891-0.02333,0.19526,0.01166,0.26987c0.03625,0.07768,0.15842,0.11085,0.19649,0.1836
			c0.0393,0.07583-0.00245,0.19467,0.0387,0.26556c0.04298,0.07401,0.13141,0.11943,0.17621,0.18822
			c0.04669,0.07152,0.12343,0.11849,0.17257,0.18482c0.05096,0.06844,0.09762,0.13537,0.15043,0.19863
			c0.05464,0.06571,0.10437,0.13047,0.16087,0.19036c0.05895,0.062,0.08841,0.15043,0.14921,0.2063
			c0.06203,0.05772,0.16027,0.07061,0.22475,0.12251c0.0663,0.05341,0.11663,0.12248,0.1848,0.16977
			c0.06938,0.04851,0.13204,0.10409,0.20325,0.14675c0.07307,0.04298,0.15659,0.06262,0.23089,0.1001
			c0.07551,0.03807,0.14244,0.08963,0.21922,0.12217c0.07737,0.03317,0.15596,0.06017,0.23456,0.08781
			c0.07983,0.02763,0.16885,0.01783,0.24928,0.04052c0.08105,0.02273,0.15292,0.07278,0.23456,0.09089
			c0.08228,0.01811,0.1566,0.0746,0.23887,0.08844c0.0835,0.0138,0.16578,0.04052,0.24868,0.05033
			c0.0835,0.00984,0.17376-0.04665,0.25666-0.04052c0.08413,0.00613,0.16455,0.07429,0.24808,0.07705
			c0.08413,0.00277,0.16946-0.01503,0.25299-0.01503c0.08287,0,0.167-0.02242,0.2505-0.02581
			c0.08353-0.00305,0.16335-0.05187,0.24745-0.05863c0.08291-0.00676,0.16458-0.01198,0.24748-0.02273
			c0.08287-0.01072,0.16332-0.02547,0.2456-0.04021c0.08227-0.01503,0.17747,0.03408,0.25911,0.01443
			c0.08105-0.01933,0.15842-0.05618,0.23887-0.08073c0.07983-0.02427,0.15044-0.07492,0.22966-0.10437
			c0.07737-0.02949,0.14735-0.07586,0.2235-0.11085c0.07552-0.03468,0.15779-0.05373,0.23211-0.09425
			c0.07243-0.03961,0.17253-0.03653,0.24377-0.08227c0.06998-0.04452,0.09885-0.15043,0.1664-0.20111
			c0.06631-0.04942,0.14675-0.08073,0.2112-0.1366c0.06203-0.05373,0.12465-0.10868,0.18546-0.16857
			c0.05832-0.058,0.08595-0.1449,0.14245-0.20875c0.05463-0.0614,0.1658-0.07737,0.21799-0.14462
			c0.05034-0.06476,0.0442-0.17344,0.09271-0.24346c0.04665-0.06753,0.09824-0.13169,0.14307-0.20447
			c0.04298-0.0697,0.06998-0.14858,0.11114-0.22349c0.03989-0.07184,0.0835-0.14122,0.12094-0.21799
			c0.03625-0.07338,0.08476-0.14213,0.11916-0.22013c0.03313-0.07492,0.08963-0.14153,0.12094-0.22104
			c0.03008-0.07614,0.09457-0.14245,0.12343-0.2229c0.027-0.07737-0.02578-0.18329,0-0.26465
			c0.02518-0.07828,0.09761-0.14336,0.12097-0.22535c0.0221-0.07891,0.06693-0.15411,0.0884-0.23638
			c0.02028-0.07982,0.00431-0.17011,0.02334-0.25298c0.01842-0.08045,0.03683-0.16181,0.05403-0.24531
			c0.01598-0.08073,0.04484-0.16055,0.06017-0.24409c0.01475-0.08105,0.01906-0.16518,0.03254-0.24927
			c0.01289-0.08136-0.00858-0.16886,0.00308-0.25298c0.01167-0.08168,0.02701-0.16335,0.03685-0.24777
			c0.00981-0.08199,0.07737-0.15842,0.08658-0.24286c0.00858-0.08227-0.05405-0.17222-0.04668-0.25666
			c0.00739-0.08227,0.03807-0.16332,0.04424-0.24776c0.00613-0.08259,0.01044-0.16577,0.01534-0.2505
			c0.00491-0.08259,0.04606-0.16395,0.05034-0.24871c0.00371-0.08256-0.05341-0.16854-0.05034-0.25327
			c0.00309-0.08259,0.09212-0.16118,0.09395-0.24591c0.01043-0.1305-0.01476-0.13204-0.00183-0.2622
			c0.01289-0.1305,0.12955-0.19435,0.04235-0.29197c-0.08718-0.09642-0.16332,0.03499-0.29288,0.03499
			c-0.12955,0-0.12955-0.01412-0.25974-0.01412c-0.12955,0-0.12955,0.04144-0.25911,0.04144
			c-0.13019,0-0.13019-0.03009-0.25974-0.03009c-0.12956,0-0.12956,0.00431-0.25974,0.00431
			c-0.12956,0-0.12956-0.00462-0.25912-0.00462c-0.13016,0-0.13016-0.03254-0.25971-0.03254
			c-0.12959,0-0.12959,0.03898-0.25974,0.03898c-0.12956,0-0.12956-0.06017-0.25912-0.06017
			c-0.13018,0-0.13018,0.03502-0.25974,0.03502c-0.13019,0-0.13019,0.05895-0.25974,0.05895s-0.12955-0.09057-0.25971-0.09057
			c-0.12959,0-0.12959,0.03037-0.25914,0.02823c-0.08536-0.00553-0.16455-0.03317-0.24377-0.04052
			C66.94846,7.252,66.86495,7.2609,66.78636,7.25078c-0.08598-0.01107-0.17747,0.0399-0.25544,0.02732
			c-0.08721-0.01415-0.16273-0.06633-0.23887-0.08136c-0.0884-0.01783-0.17194-0.02455-0.2456-0.04206
			c-0.09274-0.02242-0.18114-0.01933-0.24807-0.0387C65.64487,7.07145,65.62952,6.88694,65.59513,7.00638z"/>
		<path class="st0" d="M76.83775,2.9969c0-0.14983-0.0565-0.29426-0.05159-0.43335c0.00522-0.15106-0.01751-0.2975-0.00768-0.43504
			c0.01076-0.15288,0.09885-0.28967,0.11359-0.42461c0.01688-0.15628-0.07183-0.31375-0.0525-0.44394
			c0.02455-0.16486,0.05096-0.31039,0.0746-0.42982c0.05405-0.27323,0.3147-0.26433,0.12805-0.37471
			c-0.12742-0.0752-0.1262,0.00292-0.27418,0.00292c-0.21001,0-0.21001-0.03147-0.42001-0.03147
			c-0.20966,0-0.20966-0.09378-0.41967-0.09378s-0.21001,0.15226-0.42001,0.15226c-0.20998,0-0.20998-0.10959-0.4203-0.10959
			c-0.23484,0-0.23484,0.05725-0.46972,0.05725c-0.23487,0-0.23487,0.05804-0.47003,0.05804
			c-0.14829,0-0.13695-0.09378-0.26496-0.01858c-0.18665,0.11007-0.04298,0.10563,0.01106,0.37902
			c0.02364,0.11928,0.11972,0.24915,0.14427,0.41401c0.01965,0.13015,0.08353,0.26955,0.10042,0.42583
			c0.01474,0.13493,0.02792,0.28137,0.03867,0.43426c0.00984,0.13754-0.10346,0.28845-0.09824,0.43966
			c0.00494,0.13905,0.03961,0.28197,0.03961,0.4318c0,0.00138,0.06448-0.00399,0.06448-0.00261
			c0.0006,0.21523-0.00154,0.21538-0.00154,0.43058c0,0.21538,0.02795,0.21538,0.02795,0.43074
			c0,0.21538-0.13726,0.21538-0.13726,0.43061c0,0.21535,0.08045,0.21535,0.08045,0.43058
			c0,0.21538,0.04665,0.21538,0.04665,0.43058c0,0.21554-0.10438,0.21554-0.10438,0.43089
			c0,0.21523,0.12742,0.21523,0.12742,0.43061c0,0.21551-0.05373,0.21551-0.05373,0.43105
			c0,0.21535-0.05926,0.21535-0.05986,0.43074c0,0.00384,0.01104-0.01151,0.01104-0.00767
			c0,0.14965,0.03008,0.29687,0.02917,0.44133c-0.00063,0.1498,0.07859,0.29763,0.07706,0.44193
			c-0.00123,0.14999-0.09947,0.29596-0.10162,0.44026c-0.00217,0.14999,0.06477,0.29825,0.06168,0.44227
			c-0.00304,0.15043-0.04175,0.29656-0.04543,0.44023c-0.00399,0.15075-0.03899,0.2969-0.0436,0.44026
			c-0.00491,0.15075-0.03037,0.2969-0.0359,0.43998c-0.00585,0.15103-0.06693,0.29502-0.07369,0.43778
			c-0.00704,0.15137,0.06326,0.30181,0.05558,0.44394c-0.0083,0.15197-0.06847,0.29536-0.07737,0.4369
			c-0.00984,0.15257,0.04851,0.30363,0.03807,0.44457c-0.01138,0.1532-0.10654,0.29288-0.11852,0.43256
			c-0.0132,0.15442,0.05282,0.30762,0.03899,0.44611c-0.01566,0.15597,0.02858,0.30885,0.01292,0.44548
			c-0.01814,0.1581-0.04669,0.30363-0.0648,0.4375c-0.02179,0.16241-0.167,0.2892-0.18759,0.41785
			c-0.02792,0.17285-0.04665,0.31561-0.0697,0.43287c-0.06017,0.30241-0.24899,0.35921-0.03436,0.41018
			c0.27937,0.0663,0.27999,0.01965,0.56705,0.01965c0.23516,0,0.23516,0.07246,0.47003,0.07246
			c0.23488,0,0.23488-0.12465,0.46972-0.12465c0.21001,0,0.21001,0.08441,0.42002,0.08441
			c0.20998,0,0.20998,0.03226,0.41998,0.03226s0.21001-0.12374,0.41998-0.12374c0.21001,0,0.21001,0.14829,0.42001,0.14829
			c0.28675,0,0.28889-0.03653,0.56765-0.10283c0.21463-0.05096,0.00616-0.10991-0.0537-0.41263
			c-0.02336-0.1173-0.02735-0.26282-0.05527-0.43599c-0.02059-0.12893-0.11821-0.26188-0.1403-0.42429
			c-0.01783-0.13383-0.08659-0.27386-0.10469-0.43196c-0.01598-0.13663,0.11666-0.29841,0.10129-0.45406
			c-0.0138-0.13877-0.02669-0.28398-0.03989-0.43812c-0.01229-0.13999-0.18328-0.27354-0.19466-0.42674
			c-0.01044-0.14091,0.03625-0.29197,0.02641-0.44425c-0.00921-0.14185-0.01471-0.28889-0.02301-0.44086
			c-0.00799-0.14216-0.06784-0.28647-0.07492-0.43781c-0.00676-0.14276-0.00707-0.29043-0.01289-0.44149
			c-0.00584-0.14308-0.02518-0.28983-0.03009-0.44058c-0.0049-0.14336,0.05772-0.29256,0.05373-0.44331
			c-0.00368-0.14339-0.03194-0.29014-0.03471-0.44026c-0.00304-0.14399,0.0123-0.29137,0.00984-0.44149
			c-0.00185-0.14415-0.00217-0.29121-0.00368-0.44117c-0.00154-0.1443-0.04514-0.29121-0.04575-0.44105
			c-0.00094-0.14458-0.03103-0.29181-0.03103-0.44165c0-0.21475,0.15537-0.21475,0.15537-0.42951s-0.12528-0.21476-0.12528-0.42951
			c0-0.21475,0.0089-0.21475,0.0089-0.42951s0.04084-0.21476,0.04084-0.42935c0-0.21476,0.06969-0.21476,0.06969-0.42951
			c0-0.21491-0.031-0.21491-0.031-0.42967c0-0.21491-0.02949-0.21491-0.02949-0.42967c0-0.21491-0.0884-0.2229-0.06539-0.43643
			C76.72967,3.20276,76.83775,3.21181,76.83775,2.9969z"/>
		<path class="st0" d="M86.88524,3.27767c-0.11176,0-0.11176,0.0801-0.22353,0.0801c-0.11172,0-0.11172-0.04389-0.2235-0.04389
			c-0.11176,0-0.11176,0.04974-0.22353,0.04974c-0.11173,0-0.11173-0.04206-0.2235-0.04206s-0.11176-0.00953-0.22349-0.00953
			c-0.11176,0-0.11176-0.02977-0.22353-0.02977c-0.11173,0-0.11173,0.02333-0.22318,0.02333
			c-0.11176,0-0.11176-0.06693-0.22353-0.06693c-0.11173,0-0.11173,0.00893-0.2235,0.00893S84.76221,3.363,84.65049,3.363
			c-0.11177,0-0.11177-0.03282-0.22353-0.03282c-0.11173,0-0.11173-0.06542-0.2235-0.06542S84.0917,3.2485,83.97993,3.2485
			c-0.11205,0-0.11205,0.09762-0.22381,0.09762c-0.11205,0-0.12525-0.10192-0.23148-0.06662
			c0.00368,0.07306-0.02424,0.17162-0.02087,0.24531c0.00368,0.07338-0.01842,0.14767-0.01506,0.22167
			c0.0034,0.07306,0.05313,0.14458,0.05621,0.21828c0.00305,0.07338,0.0531,0.1449,0.05587,0.2189
			c0.00276,0.07338-0.02795,0.14829-0.02518,0.22199c0.00244,0.07338,0.00398,0.14704,0.00644,0.22104
			c0.00217,0.07306,0.00122,0.14675,0.00368,0.22073c0.00217,0.07338,0.02795,0.14616,0.02981,0.22013
			c0.00213,0.07338-0.0427,0.14798-0.04053,0.22199c0.00182,0.07338,0.01134,0.14675,0.0132,0.22073
			c0.00151,0.07338,0.06939,0.14553,0.0709,0.21922c0.00153,0.07369,0.02335,0.14707,0.02458,0.22073
			c0.00151,0.07369-0.07891,0.20479-0.078,0.27879c0.10469,0.03499,0.12928-0.01937,0.23947-0.01937
			c0.10991,0,0.10991-0.00399,0.22013-0.00399s0.11022,0.01015,0.22044,0.01015s0.11022-0.10623,0.22045-0.10623
			c0.11021,0,0.11021,0.0663,0.22012,0.0663c0.11022,0,0.11022-0.06448,0.22041-0.06448c0.11053,0,0.11053,0.05128,0.22076,0.05128
			c0.11022,0,0.11022,0.00616,0.22073,0.00616c0.07737,0,0.15446,0.04235,0.22874,0.04021
			c0.07796-0.00217,0.15379-0.02578,0.2278-0.02977c0.07769-0.00431,0.15166-0.03961,0.22504-0.04606
			c0.07829-0.00644,0.1572,0.01748,0.22997,0.00921c0.07828-0.00893,0.14613-0.07677,0.21828-0.08721
			c0.0786-0.01135,0.15228-0.02609,0.2235-0.03867c0.07922-0.01412,0.16027,0.00767,0.22997-0.00707
			c0.08073-0.01688,0.16364,0.00123,0.23058-0.01534c0.18727-0.04665,0.41784-0.1704,0.43105,0.11758
			c0.00491,0.10346-0.05373,0.15873-0.06756,0.25207c-0.01534,0.10129,0.07677,0.1538,0.07677,0.2499
			c0,0.11054-0.06049,0.11054-0.06049,0.22073c0,0.11054,0.03132,0.11054,0.03132,0.22076
			c0,0.11054,0.06171,0.11054,0.06171,0.22073c0,0.11022-0.03929,0.11022-0.03929,0.22076
			c0,0.11022-0.01629,0.11022-0.01629,0.22045c0,0.11051,0.05772,0.11051,0.05772,0.22073
			c0,0.11054-0.03685,0.11054-0.03685,0.22076c0,0.11019,0.02305,0.11019,0.02305,0.22073
			c0,0.11022-0.09734,0.11022-0.09734,0.22076c0,0.11051,0.12497,0.11051,0.12497,0.22104
			c0,0.11051-0.02242,0.11051-0.02242,0.22073c0,0.08504,0.02056,0.08504,0.02056,0.17008c0,0.08504,0.03194,0.12251-0.0083,0.19743
			c-0.05373,0.10038-0.11268-0.10255-0.25358-0.14399c-0.06109-0.01814-0.1483,0.00799-0.23334-0.0132
			c-0.06693-0.0166-0.15443,0.03037-0.23547,0.01349c-0.06939-0.01471-0.13631-0.06171-0.21555-0.07551
			c-0.07121-0.01258-0.136-0.0884-0.21491-0.09978c-0.07214-0.01044-0.14857-0.01902-0.22657-0.02792
			c-0.07307-0.0083-0.15198,0.01044-0.22994,0.00396c-0.07369-0.00613-0.15137,0.02427-0.22934,0.01996
			c-0.07401-0.00399-0.14952,0.01044-0.2272,0.00799c-0.07429-0.00182-0.1489-0.01044-0.22658-0.01044
			c-0.11019,0-0.11019-0.03408-0.22041-0.03408s-0.11022-0.05832-0.22044-0.05832c-0.10991,0-0.10991-0.00616-0.22013-0.00616
			c-0.11023,0-0.11023,0.1133-0.22045,0.1133S84.39655,9.1002,84.28636,9.1002c-0.11022,0-0.11022-0.0967-0.22044-0.0967
			c-0.11021,0-0.11021,0.06753-0.22076,0.06753c-0.11019,0-0.10746-0.03961-0.21183-0.00368
			c-0.00092,0.07643-0.00736,0.12742-0.00858,0.20325c-0.00154,0.07643-0.06417,0.15134-0.06571,0.22749
			c-0.00154,0.07646,0.02364,0.15288,0.0221,0.22903c-0.00185,0.07646,0.07492,0.15442,0.07307,0.23057
			c-0.00182,0.07646-0.01748,0.15229-0.01965,0.22812c-0.00214,0.07646-0.05341,0.15134-0.05555,0.22721
			c-0.00249,0.07643-0.04575,0.15103-0.04851,0.22686c-0.00249,0.07646,0.01625,0.1532,0.01349,0.22903
			c-0.00277,0.07646,0.00494,0.15292,0.00185,0.22906c-0.00277,0.07643-0.02855,0.15134-0.03163,0.22717
			c-0.00336,0.07646,0.02518,0.15383,0.02179,0.22966c-0.00336,0.07646-0.03745,0.15106-0.04112,0.22658
			c-0.00368,0.07674,0.09762,0.15779,0.09394,0.23365c-0.004,0.07643-0.02302,0.15134-0.02732,0.22686
			c-0.00092,0.01874-0.00431-0.05772-0.00462-0.03898c-0.00305,0.08045-0.00767,0.15933-0.01012,0.23547
			c-0.00245,0.08105-0.06784,0.15751-0.06938,0.23365c-0.00182,0.08105,0.05527,0.16027,0.05436,0.2361
			c-0.00063,0.08136-0.03962,0.15964-0.03962,0.23484c0.00032,0.08199-0.04514,0.16118-0.0442,0.2361
			c0.00123,0.08259,0.03376,0.16087,0.0359,0.23488c0.00245,0.0835-0.02518,0.16364-0.02148,0.23701
			c0.00428,0.08473,0.11695,0.15628,0.12217,0.22812c0.00616,0.08718,0.00771,0.16395,0.01475,0.23333
			c0.00952,0.09271-0.03653,0.17621-0.02732,0.23915c0.02364,0.1621,0.17071,0.22997,0.0565,0.2582
			c-0.14339,0.03531-0.15874,0.0172-0.3058,0.00245c-0.01443-0.00154-0.04756-0.04911-0.04634-0.06385
			c-0.00122,0.00799,0.08042,0.02179,0.07982,0.02946c-0.00031,0.00248-0.02703,0.03317-0.02979,0.03317
			c-0.10806,0.00245-0.10897-0.00431-0.21737-0.00431c-0.10837,0-0.10837,0.03653-0.21674,0.03653s-0.10837-0.08994-0.21677-0.08994
			c-0.10837,0-0.10837,0.09057-0.21674,0.09057c-0.10869,0-0.10869-0.0089-0.21706-0.0089c-0.1084,0-0.1084-0.09611-0.21677-0.09611
			s-0.10837,0.04084-0.21677,0.04084c-0.10837,0-0.10837-0.05587-0.21674-0.05587c-0.10868,0-0.10868,0.07583-0.21705,0.07583
			c-0.10868,0-0.10868-0.00644-0.21708-0.00644c-0.07275,0-0.16917,0.04728-0.23915,0.02242
			c-0.031-0.01107-0.0436-0.04637-0.07614-0.05744c-0.03654-0.01289-0.08473,0.00154-0.12343-0.00767
			c-0.16578-0.0393-0.25635-0.2063-0.15779-0.35491c0.03807-0.05772,0.09885-0.09516,0.13509-0.15565
			c0.05341-0.08935,0.04634-0.18942,0.06998-0.28766c0.01598-0.06662,0.09243-0.12343,0.10809-0.19712
			c0.01443-0.06753-0.00676-0.14553,0.00676-0.21891c0.01257-0.06847,0.06232-0.13355,0.07397-0.20693
			c0.01107-0.06907-0.07951-0.15474-0.06969-0.2278c0.00921-0.0697,0.05835-0.1354,0.06633-0.20847
			c0.00768-0.06998,0.09055-0.13537,0.09671-0.20875c0.0049-0.07614-0.06326-0.15813-0.05864-0.23519
			c0.00428-0.07643,0.02238-0.15229,0.0267-0.22934c0.00399-0.07643-0.02609-0.15502-0.0221-0.23211
			c0.00399-0.07643,0.01475-0.15288,0.01842-0.22994c0.00368-0.07646-0.02274-0.15474-0.01934-0.23179
			c0.00368-0.07674,0.06017-0.15106,0.06354-0.22812c0.0034-0.07646-0.01044-0.15411-0.00735-0.23117
			c0.00305-0.07646,0.04606-0.15197,0.04883-0.22906c0.00273-0.07643-0.00123-0.15348,0.00122-0.23085
			c0.00277-0.07646,0.05311-0.15197,0.05524-0.22906c0.00249-0.07643-0.09026-0.15625-0.08809-0.2333
			c0.00214-0.07677,0.10774-0.15075,0.10991-0.2278c0.00183-0.07677-0.08843-0.15596-0.08658-0.23305
			c0.00182-0.07674,0.05709-0.15257,0.05863-0.22963c0.00154-0.07677,0.03131-0.1532,0.03254-0.23029
			c0.00154-0.07674-0.07121-0.15502-0.06998-0.23208c0.00123-0.07677-0.0298-0.15383-0.02886-0.2312
			c0.00092-0.07674-0.01075-0.15351-0.00984-0.23057c0.00063-0.07674,0.12928-0.15257,0.12988-0.22994
			c0.00063-0.07677-0.05096-0.15383-0.05064-0.2312c0.0006-0.07674-0.05681-0.1538-0.0565-0.23088
			c0-0.07705-0.00676-0.1538-0.00676-0.23085c0-0.07523,0.01996-0.14983,0.01996-0.22444
			c-0.00031-0.07523,0.08749-0.15043,0.0869-0.22504c-0.00031-0.07492-0.06815-0.14952-0.06879-0.22412
			c-0.00063-0.07523,0.02886-0.15012,0.02823-0.22504c-0.0006-0.07492-0.0746-0.14892-0.07552-0.22353
			c-0.00091-0.0752,0.08844-0.15103,0.08722-0.22563c-0.00095-0.07523-0.00063-0.15015-0.00186-0.22475
			c-0.00154-0.07492,0.02487-0.15043,0.02333-0.22504c-0.00154-0.07492-0.08137-0.14829-0.08319-0.2229
			c-0.00154-0.07492,0.01626-0.15043,0.01443-0.22472c-0.00185-0.07523,0.02056-0.15075,0.0187-0.22535
			c-0.00214-0.07492-0.0491-0.14861-0.05127-0.22321c-0.00214-0.07492,0-0.14984-0.00246-0.22444
			c-0.00245-0.07489-0.02455-0.14921-0.027-0.22349C81.0541,4.38996,81.02678,4.3163,81.0237,4.2417
			c-0.00276-0.07492,0.09026-0.15351,0.08721-0.2278c-0.00308-0.07523-0.04851-0.14829-0.0519-0.22258
			c-0.00305-0.07523,0.00921-0.15075,0.00584-0.22507c-0.00367-0.07489-0.07155-0.14675-0.07523-0.22104
			c-0.00399-0.07492,0.0648-0.15351,0.06081-0.22749c-0.00399-0.07523-0.01289-0.14952-0.0172-0.22381
			c-0.00123-0.02458-0.07338-0.04546-0.07461-0.07001c-0.00244-0.04298,0.03776-0.08595,0.03531-0.12865
			c-0.00584-0.0786-0.04238-0.15229-0.04974-0.2278c-0.00767-0.0786,0.01289-0.1581,0.00368-0.23271
			c-0.0098-0.07891-0.0393-0.15229-0.05033-0.22689c-0.01167-0.0786,0.04021-0.16549,0.02732-0.23915
			c-0.01352-0.07891-0.04914-0.15169-0.06357-0.22444c-0.01597-0.07922,0.00063-0.16304-0.01566-0.23456
			c-0.01842-0.08014-0.08749-0.14367-0.10561-0.21369c-0.02119-0.08136-0.03929-0.15656-0.05926-0.22381
			c-0.02518-0.08567-0.01135-0.17194-0.03194-0.23365c-0.04756-0.14182-0.2195-0.15075-0.10805-0.18234
			c0.14244-0.04056,0.14153,0.02638,0.28951,0.02638c0.07828,0,0.07828-0.0442,0.15656-0.0442
			c0.10899,0,0.10899,0.03776,0.21831,0.03776c0.10899,0,0.10899,0.00644,0.21796,0.00644
			c0.10932,0,0.10932-0.01625,0.21831-0.01625c0.10928,0,0.10928-0.00553,0.2186-0.00553c0.10928,0,0.10928,0.03254,0.21859,0.03254
			c0.10378,0,0.10378-0.02487,0.20755-0.02487c0.10406,0,0.10406-0.05926,0.20784-0.05926
			c0.10406,0,0.10406-0.02025,0.20784-0.02025s0.10378,0.00399,0.20787,0.00399c0.10406,0,0.10406,0.05373,0.20815,0.05373
			c0.10375,0,0.10375-0.04637,0.20784-0.04637c0.11236,0,0.11236,0.09642,0.22444,0.09642c0.11236,0,0.11236-0.06571,0.2244-0.06571
			c0.11239,0,0.11239,0.04483,0.22475,0.04483c0.11205,0,0.11205-0.07155,0.22441-0.07155
			c0.11208,0,0.11208,0.03653,0.22443,0.03653c0.11237,0,0.11237-0.02823,0.22444-0.02823c0.11236,0,0.11236-0.04543,0.2244-0.04543
			c0.1124,0,0.1124,0.11264,0.22475,0.11264s0.11236-0.01258,0.22444-0.01258c0.11236,0,0.11236-0.09762,0.22472-0.09762
			c0.11205,0,0.11205,0.09548,0.22444,0.09548c0.11236,0,0.11236-0.05958,0.22472-0.05958
			c0.11237,0,0.11237,0.04606,0.22444,0.04606c0.11236,0,0.11236-0.07152,0.22472-0.07152
			c0.11237,0,0.11237,0.03068,0.22444,0.03068c0.11236,0,0.11236,0.02581,0.22472,0.02581
			c0.11239,0,0.11239,0.00214,0.22443,0.00214c0.11236,0,0.11236-0.00921,0.22472-0.00921c0.1124,0,0.1124,0.01811,0.22443,0.01811
			c0.11237,0,0.11237,0.01198,0.22475,0.01198c0.11236,0,0.11236-0.02487,0.22472-0.02487
			c0.11236,0,0.11236,0.03867,0.22444,0.03867c0.11235,0,0.11235-0.00428,0.22472-0.00428c0.11236,0,0.11236,0,0.22504,0
			c0.11236,0,0.1084-0.03131,0.21799-0.00585c0,0.0519,0.04388,0.0967,0.04543,0.19067
			c0.00063,0.06508-0.03867,0.13968-0.03685,0.22164c0.00154,0.06847,0.00553,0.14248,0.00799,0.22076
			c0.00185,0.0703-0.06017,0.14644-0.0574,0.22318c0.00245,0.07155,0.07246,0.14308,0.07551,0.2189
			c0.00308,0.07187,0.01107,0.14524,0.01475,0.22076c0.00368,0.07215-0.04634,0.14889-0.04206,0.22349
			c0.00399,0.07278,0.00798,0.14707,0.0126,0.22104c0.00459,0.07338,0.08564,0.14185,0.09117,0.21554
			s-0.05957,0.15288-0.05341,0.22658c0.00613,0.07369,0.10529,0.13877,0.11237,0.21215
			c0.00706,0.07401-0.04267,0.15288-0.03471,0.22566c0.00984,0.09026-0.02238,0.15229,0.00248,0.24132
			C89.09573,3.41399,89.12,3.5239,89.10186,3.61598c-0.01226,0.06234-0.37084-0.06907-0.3997-0.07614
			c-0.06757-0.01657-0.13327-0.07338-0.21491-0.09026c-0.07033-0.01471-0.1394-0.06753-0.21954-0.08136
			c-0.07184-0.01258-0.15533,0.01691-0.23484,0.00525c-0.07278-0.01047-0.14738-0.03625-0.2263-0.04515
			c-0.07397-0.0083-0.15289,0.0089-0.2318,0.00214c-0.07429-0.00613-0.15166,0.00371-0.23026-0.0006
			c-0.07491-0.00431-0.14983-0.05527-0.22843-0.05741C87.04121,3.27029,86.96352,3.27767,86.88524,3.27767z"/>
	</g>
</g>
</svg>
