<?xml version="1.0" encoding="utf-8"?>
<!-- Generator: Adobe Illustrator 21.1.0, SVG Export Plug-In . SVG Version: 6.00 Build 0)  -->
<svg version="1.1" id="レイヤー_1" xmlns="http://www.w3.org/2000/svg" xmlns:xlink="http://www.w3.org/1999/xlink" x="0px"
	 y="0px" viewBox="0 0 133 18" style="enable-background:new 0 0 133 18;" xml:space="preserve">
<style type="text/css">
	.st0{fill:#562608;}
</style>
<g>
	<g>
		<polygon class="st0" points="74.01826,6.78638 73.9935,6.56597 73.94838,6.3447 73.99242,6.12272 73.95633,5.90152 
			74.00256,5.68055 74.00028,5.45929 74.00896,5.23697 74.02733,5.01515 74.01004,4.79333 73.98355,4.57077 74.01729,4.34861 
			74.00764,4.12658 73.96213,3.90494 74.02078,3.68214 74.00476,3.459 74.02413,3.23521 74.00758,3.01142 74.02348,2.78006 
			73.96938,2.54697 74.01001,2.31751 73.98543,2.08325 74.06754,1.8575 74.0512,1.62267 74.13724,1.40122 74.11723,1.16494 
			74.1721,0.94088 74.18788,0.70718 74.28582,0.46663 73.98901,0.49435 73.77699,0.48161 73.56394,0.48803 73.35139,0.46906 
			73.13884,0.47992 72.92558,0.51982 72.71266,0.4829 72.49992,0.49917 72.28753,0.50359 72.07402,0.50006 71.86021,0.52418 
			71.64576,0.45807 71.43134,0.46221 71.14021,0.4864 71.21829,0.71344 71.27796,0.93682 71.31187,1.16555 71.35076,1.39238 
			71.3798,1.62126 71.36341,1.85529 71.39201,2.08491 71.44466,2.31373 71.46252,2.54522 71.45399,2.77849 71.42946,3.01142 
			71.45006,3.23183 71.40629,3.4531 71.4698,3.67508 71.46789,3.89628 71.44026,4.11725 71.45012,4.33852 71.46684,4.56083 
			71.47283,4.78265 71.46957,5.00447 71.4612,5.22703 71.40251,5.44919 71.46129,5.67122 71.42728,5.89286 71.41859,6.11566 
			71.44643,6.33881 71.43302,6.56259 71.43262,6.78638 71.44714,7.00838 71.46273,7.23042 71.41049,7.45196 71.4585,7.67412 
			71.42811,7.89552 71.38505,8.11648 71.40826,8.3383 71.41624,8.55991 71.44686,8.78222 71.37262,9.00398 71.41712,9.22871 
			71.42357,9.45229 71.38612,9.67408 71.38496,9.89694 71.33023,10.1172 71.34689,10.34034 71.32559,10.56142 71.33035,10.78364 
			71.32416,11.00507 71.29079,11.2244 71.25021,11.44272 71.2822,11.66651 71.21317,11.88259 71.20647,12.10414 71.21295,12.32709 
			71.21998,12.55042 71.20297,12.77117 71.11314,12.98267 71.12646,13.2071 71.0554,13.42079 71.05887,13.64479 71.02953,13.86262 
			70.98889,14.07892 70.89239,14.28346 70.86412,14.52029 71.05774,14.47569 71.24453,14.54304 71.43134,14.49095 
			71.64339,14.51458 71.85641,14.51354 72.06896,14.51204 72.28151,14.5388 72.49477,14.49813 72.70769,14.47539 72.92043,14.50688 
			73.13282,14.5431 73.34633,14.53183 73.56017,14.50025 73.77459,14.47327 73.98901,14.49331 74.17532,14.52747 74.36216,14.49611 
			74.54939,14.5024 74.47824,14.2916 74.43591,14.07392 74.41499,13.85351 74.37336,13.63663 74.32072,13.42076 74.31185,13.1983 
			74.31725,12.97457 74.22926,12.76208 74.26508,12.53575 74.17106,12.32292 74.14697,12.10269 74.16502,11.87879 74.1217,11.66 
			74.13349,11.43686 74.09092,11.21768 74.08435,10.99604 74.09605,10.77355 74.04506,10.55461 74.03935,10.33319 
			74.05639,10.11081 74.06827,9.89037 74.06999,9.66999 74.06934,9.44931 74.01315,9.22994 73.98672,9.00904 74.03233,8.78596 
			74.01373,8.5642 74.02674,8.34382 73.98957,8.12344 74.02895,7.90107 73.97692,7.6791 73.97858,7.45795 73.99564,7.23502 
			74.01112,7.01271 		"/>
	</g>
	<g>
		<polygon class="st0" points="38.48621,11.67348 38.48903,11.48035 38.49846,11.26037 38.48759,11.03935 38.51494,10.81971 
			38.51202,10.59869 38.52411,10.37803 38.52108,10.15802 38.58529,9.93958 38.56948,9.7184 38.55576,9.49707 38.56926,9.27601 
			38.60754,9.05505 38.57976,8.83381 38.59345,8.61258 38.59766,8.3906 38.55732,8.16774 38.56288,7.94567 38.58452,7.72244 
			38.55606,7.49794 38.56306,7.27272 38.61549,7.0473 38.55659,6.8226 38.58007,6.59743 38.58572,6.37248 38.59296,6.14636 
			38.58203,5.92079 38.59919,5.69498 38.51699,5.47166 38.56724,5.24563 38.51807,5.02243 38.56752,4.79674 38.53547,4.5724 
			38.4825,4.34978 38.51801,4.12474 38.47286,3.90365 38.50932,3.67879 38.49677,3.45826 38.50656,3.46308 38.52283,3.43742 
			38.49413,3.20765 38.45551,2.97705 38.47642,2.74421 38.4533,2.51493 38.39349,2.28755 38.43692,2.05787 38.42255,1.83292 
			38.44876,1.60698 38.44499,1.38065 38.47807,1.15828 38.44523,0.9278 38.51245,0.70957 38.55471,0.53179 38.27562,0.47099 
			38.08667,0.51261 37.87434,0.45598 37.66246,0.51169 37.45058,0.49723 37.238,0.52955 37.02575,0.46553 36.81369,0.49435 
			36.60197,0.48161 36.38917,0.48803 36.17601,0.46906 35.96226,0.47992 35.74851,0.51982 35.59568,0.4829 35.30799,0.49895 
			35.39265,0.70141 35.45701,0.91841 35.54062,1.13025 35.52979,1.36423 35.5812,1.58301 35.64639,1.80063 35.71042,2.0199 
			35.75373,2.24314 35.77205,2.47061 35.79572,2.69786 35.80339,2.83325 35.76462,2.88466 35.78485,3.102 35.8331,3.31827 
			35.85041,3.53644 35.84516,3.75589 35.82776,3.976 35.85704,4.19435 35.82134,4.41534 35.89231,4.63274 35.89728,4.85137 
			35.87595,5.07111 35.89154,5.29017 35.91343,5.50947 35.92402,5.72939 35.92481,5.94983 35.91993,6.16953 35.86422,6.3904 
			35.9254,6.61044 35.89326,6.83088 35.88595,7.05218 35.91459,7.27446 35.90145,7.49794 35.90075,7.7244 35.91468,7.95086 
			35.92963,8.17728 35.87675,8.403 35.92408,8.62964 35.89301,8.85521 35.84927,9.08028 35.87183,9.3064 35.8792,9.53215 
			35.90931,9.75845 35.83463,9.98316 35.8788,10.21087 35.88503,10.43721 35.84753,10.66167 35.84648,10.88702 35.79206,11.10976 
			35.80925,11.33511 35.78865,11.55985 35.79449,11.78489 35.78964,12.0085 35.75793,12.23093 35.71959,12.44987 35.74765,12.66386 
			35.67131,12.86625 35.6533,13.07598 35.64437,13.28881 35.63206,13.50225 35.59222,13.71011 35.47761,13.89811 35.4591,14.11284 
			35.35523,14.29945 35.30938,14.49055 35.59568,14.48321 35.70284,14.48358 35.92365,14.53555 36.14562,14.52167 
			36.36793,14.47569 36.59086,14.54304 36.81379,14.49095 37.02207,14.51458 37.23021,14.51354 37.438,14.51204 37.64687,14.5388 
			37.85607,14.49813 38.06583,14.47539 38.27562,14.50688 38.49514,14.5431 38.7149,14.53183 38.93433,14.50025 39.15364,14.47327 
			39.37303,14.49331 39.59084,14.52747 39.80888,14.49611 40.02742,14.50249 40.24688,14.48518 40.46701,14.48883 
			40.68637,14.50854 40.90546,14.50317 41.12492,14.48349 41.34539,14.50525 41.56535,14.53892 41.78532,14.4764 42.00604,14.53653 
			42.22636,14.46443 42.44652,14.46099 42.66635,14.49841 42.88728,14.4729 43.10858,14.50135 43.33049,14.47416 43.54805,14.48232 
			43.55956,14.28595 43.5246,14.06953 43.53556,13.85403 43.56984,13.63915 43.59943,13.4242 43.6195,13.20916 43.63801,12.99425 
			43.60194,12.77654 43.59673,12.55997 43.6648,12.34778 43.67054,12.13056 43.70961,11.91737 43.70139,11.69886 43.76526,11.53797 
			43.74077,11.36473 43.55117,11.44849 43.33172,11.48895 43.11189,11.52268 42.89596,11.56737 42.67988,11.61961 42.4603,11.6596 
			42.2347,11.63987 42.01712,11.72068 41.79128,11.6798 41.56786,11.68855 41.34813,11.72793 41.12867,11.69119 40.90884,11.69416 
			40.68803,11.72492 40.46768,11.68775 40.24737,11.68585 40.02628,11.69855 39.8056,11.69137 39.58506,11.71415 39.36487,11.72038 
			39.14357,11.69245 38.9219,11.69266 38.69851,11.7182 		"/>
	</g>
	<g>
		<polygon class="st0" points="48.03435,11.71221 48.05875,11.48566 48.01919,11.26983 48.05427,11.05691 48.03503,10.84135 
			48.09518,10.6284 48.08217,10.41235 48.09785,10.19694 48.1284,9.98276 48.12041,9.76674 48.11879,9.55026 48.14396,9.33479 
			48.12109,9.11696 48.12213,8.87896 48.34368,8.91494 48.55832,8.88424 48.77277,8.89627 48.98689,8.90846 49.20211,8.85828 
			49.41767,8.92022 49.63382,8.91933 49.84999,8.9192 50.07295,8.90045 50.29388,8.93311 50.51944,8.90312 50.73669,8.97371 
			50.96265,8.96684 51.18534,8.98759 51.39626,9.06892 51.61035,9.1324 51.83094,9.16383 52.02716,9.2243 52.05583,9.06438 
			52.0648,8.89833 52.0795,8.68415 52.05865,8.46967 52.02394,8.2542 52.06694,8.03919 52.03993,7.82418 52.03926,7.60844 
			52.01888,7.3931 52.03742,7.17787 52.02621,6.96305 52.03066,6.74706 52.0206,6.53076 52.07833,6.31388 52.05663,6.09697 
			52.0376,5.93077 52.04549,5.76109 51.81775,5.79351 51.61256,5.88157 51.39408,5.92076 51.17736,5.96094 50.96499,6.03789 
			50.74302,6.06241 50.51904,6.06376 50.29866,6.10808 50.07433,6.1102 49.84999,6.06005 49.63501,6.11751 49.42037,6.09209 
			49.20589,6.08387 48.99177,6.07346 48.77655,6.08064 48.56099,6.05919 48.34481,6.13648 48.1338,6.08156 48.0981,5.88019 
			48.15009,5.66214 48.12063,5.446 48.07029,5.23074 48.10854,5.01359 48.06612,4.79895 48.10543,4.5821 48.09568,4.36574 
			48.09629,4.14975 48.10599,3.93413 48.07944,3.71934 48.04319,3.50703 48.04715,3.32213 48.25636,3.31391 48.47357,3.26839 
			48.69057,3.32704 48.90788,3.31102 49.12621,3.33039 49.34404,3.31385 49.56187,3.32757 49.78044,3.26682 49.99864,3.29644 
			50.21668,3.25614 50.43436,3.3182 50.65314,3.27658 50.8723,3.33321 51.09206,3.27751 51.31182,3.29199 51.53782,3.2628 
			51.75964,3.33616 51.98576,3.32318 52.20902,3.35814 52.43321,3.38057 52.65159,3.43463 52.87347,3.46609 53.10263,3.4772 
			53.30963,3.57072 53.52071,3.62284 53.48869,3.46302 53.47028,3.29604 53.42123,3.08408 53.46521,2.86357 53.44186,2.64936 
			53.4011,2.43568 53.358,2.22134 53.33213,2.00551 53.32764,1.78875 53.3139,1.57316 53.3064,1.35656 53.34109,1.13863 
			53.32731,0.92375 53.28636,0.70883 53.30896,0.53296 53.09935,0.51878 52.88041,0.49205 52.66123,0.51264 52.44239,0.46887 
			52.22366,0.53238 52.00485,0.53047 51.78763,0.50285 51.57018,0.5127 51.35218,0.52943 51.13334,0.53542 50.91379,0.53213 
			50.69501,0.52378 50.47647,0.4651 50.25763,0.52384 50.03774,0.48984 49.81837,0.48118 49.59898,0.50902 49.37888,0.49558 
			49.15911,0.49518 48.93953,0.50997 48.72032,0.52633 48.49994,0.47544 48.27925,0.52532 48.05793,0.49742 47.83659,0.45742 
			47.63438,0.48428 47.43251,0.49656 47.2296,0.53219 47.02638,0.46362 46.82254,0.51454 46.61874,0.52814 46.40698,0.49858 
			46.19413,0.5062 45.98093,0.46095 45.76715,0.48806 45.55337,0.47805 45.40046,0.49508 45.11359,0.50184 45.1779,0.70785 
			45.22118,0.93016 45.32817,1.13446 45.33164,1.36454 45.39131,1.58148 45.45994,1.79854 45.52528,2.01776 45.56295,2.24185 
			45.52406,2.475 45.58529,2.69798 45.55309,2.83939 45.5925,2.88027 45.61138,3.09789 45.62228,3.31624 45.58093,3.53726 
			45.60472,3.75537 45.66,3.9725 45.60141,4.19444 45.66153,4.412 45.64539,4.63253 45.65331,4.85107 45.6611,5.07003 
			45.64011,5.29007 45.68594,5.50883 45.71328,5.72853 45.68584,5.94955 45.65312,6.16969 45.66737,6.38967 45.70137,6.61014 
			45.73022,6.83018 45.7115,7.05175 45.6782,7.2744 45.70981,7.49794 45.70315,7.72446 45.7196,7.95095 45.71454,8.17728 
			45.69284,8.40334 45.69563,8.62949 45.71218,8.85573 45.68667,9.08123 45.64867,9.30625 45.70631,9.53316 45.64069,9.75707 
			45.70662,9.98565 45.70331,10.2121 45.65855,10.43684 45.67605,10.66326 45.639,10.88733 45.65696,11.11317 45.63937,11.33717 
			45.60386,11.56129 45.63139,11.78756 45.61399,12.01064 45.57399,12.23271 45.53956,12.45214 45.50893,12.66015 
			45.47645,12.86721 45.49447,13.08261 45.47823,13.29492 45.38673,13.49222 45.35355,13.70013 45.28474,13.89909 
			45.25838,14.11136 45.15316,14.29718 45.11544,14.48549 45.40046,14.48852 45.50761,14.50694 45.72844,14.52321 
			45.95045,14.52035 46.17279,14.50304 46.39578,14.49153 46.61874,14.53352 46.82095,14.46817 47.02282,14.51848 
			47.22573,14.51287 47.42898,14.47348 47.63279,14.51019 47.83659,14.50725 48.05519,14.47646 48.27413,14.51363 
			48.49331,14.51554 48.71215,14.50286 48.93087,14.51004 49.14969,14.48724 49.36691,14.48104 49.58437,14.50894 
			49.80235,14.50875 50.02119,14.48315 50.24075,14.47336 50.45953,14.51756 50.67807,14.52109 50.89691,14.49638 51.1168,14.47014 
			51.33616,14.49779 51.55556,14.50142 51.7757,14.48886 51.99543,14.53828 52.21501,14.50955 52.43422,14.51943 52.6546,14.49012 
			52.87532,14.48549 53.09661,14.46741 53.32685,14.5403 53.31181,14.28576 53.33854,14.0706 53.29324,13.85382 53.37096,13.64037 
			53.37706,13.42472 53.36847,13.20836 53.38028,12.99293 53.40585,12.77899 53.42866,12.56481 53.40908,12.34597 
			53.45714,12.13256 53.45659,11.91534 53.46141,11.69812 53.52746,11.53747 53.51334,11.39082 53.31669,11.45562 
			53.09232,11.48585 52.86985,11.51688 52.66037,11.60985 52.43186,11.60046 52.21212,11.65313 51.99049,11.70343 
			51.76385,11.69386 51.5384,11.71636 51.31182,11.66025 51.09384,11.71973 50.87659,11.71924 50.65962,11.71602 50.44228,11.66283 
			50.22396,11.73051 50.00613,11.72458 49.7883,11.73489 49.56973,11.69512 49.35153,11.71918 49.13351,11.70758 48.91583,11.68434 
			48.69702,11.73968 48.47787,11.6937 48.25878,11.7244 		"/>
	</g>
	<g>
		<polygon class="st0" points="78.93591,11.69063 78.90617,11.48345 78.98333,11.27293 78.92237,11.05583 78.99477,10.84386 
			78.9465,10.62683 79.0155,10.41364 78.95733,10.19586 78.99471,9.98196 78.97731,9.76579 78.98155,9.54952 79.02038,9.33442 
			79.00331,9.11675 79.0236,8.89956 79.23815,8.89133 79.45278,8.92881 79.66724,8.92749 79.88136,8.89738 80.09658,8.89262 
			80.31214,8.9313 80.52831,8.88636 80.74445,8.86678 80.96704,8.91392 81.18976,8.90754 81.41195,8.92672 81.63033,8.98096 
			81.85154,9.00554 82.07216,9.03093 82.29954,9.02724 82.51381,9.0963 82.72356,9.17006 82.92691,9.22706 82.97022,9.06438 
			82.94128,8.89833 82.94386,8.68415 82.8969,8.46967 82.89751,8.2542 82.92059,8.03919 82.9434,7.82418 82.89397,7.60844 
			82.91988,7.3931 82.89201,7.17787 82.94416,6.96305 82.92369,6.74706 82.93246,6.53076 82.95668,6.31388 82.94293,6.09697 
			82.93606,5.93077 82.9539,5.75373 82.72507,5.83706 82.51442,5.91122 82.28941,5.92481 82.07821,5.99691 81.85691,6.02027 
			81.63454,6.03672 81.41735,6.10876 81.19058,6.06263 80.96775,6.07288 80.74445,6.0761 80.52948,6.09792 80.31484,6.07451 
			80.10039,6.12018 79.88627,6.07137 79.67104,6.10713 79.45546,6.12187 79.23931,6.08203 79.03232,6.06953 79.02108,5.87969 
			79.00202,5.66303 79.0275,5.44569 79.03124,5.22905 79.04014,5.01254 79.01295,4.79735 78.97136,4.58305 79.00684,4.36513 
			78.97179,4.15049 78.96249,3.93573 78.9329,3.72115 78.94158,3.50685 78.92888,3.28318 79.15083,3.28699 79.36807,3.27692 
			79.58504,3.33466 79.80238,3.31299 80.02068,3.29393 80.2385,3.30267 80.45637,3.33674 80.67493,3.30538 80.89314,3.31603 
			81.11115,3.31771 81.32883,3.27542 81.54764,3.27956 81.76679,3.30037 81.98653,3.27164 82.20629,3.27892 82.43027,3.33533 
			82.65684,3.28733 82.8798,3.32849 83.1034,3.35894 83.32516,3.39798 83.54753,3.42621 83.76306,3.48941 84.00035,3.46397 
			84.20265,3.57569 84.40707,3.60273 84.42171,3.45771 84.37527,3.29472 84.30538,3.08521 84.32736,2.86667 84.27218,2.65477 
			84.3013,2.43525 84.28411,2.21929 84.27969,2.0025 84.28666,1.78559 84.25962,1.57101 84.22482,1.35573 84.25164,1.13817 
			84.2366,0.92341 84.18725,0.70874 84.21957,0.46298 83.99381,0.47817 83.77488,0.45881 83.55569,0.47535 83.33688,0.46163 
			83.11816,0.52237 82.89935,0.49275 82.6821,0.53305 82.46464,0.47099 82.24668,0.51261 82.02781,0.45598 81.80829,0.51169 
			81.58951,0.49723 81.37097,0.52955 81.15209,0.46553 80.93224,0.49435 80.71284,0.48161 80.49345,0.48803 80.27334,0.46906 
			80.05357,0.47992 79.834,0.51982 79.61478,0.4829 79.39443,0.49917 79.17372,0.50359 78.95239,0.50006 78.73106,0.52418 
			78.52885,0.45807 78.32701,0.46221 78.12407,0.48609 77.92085,0.51433 77.71704,0.52713 77.51324,0.52022 77.30148,0.52418 
			77.08859,0.52335 76.87543,0.48173 76.66161,0.49011 76.44784,0.52722 76.29492,0.53397 76.0126,0.51786 76.08092,0.705 
			76.16828,0.91469 76.18626,1.14391 76.3014,1.34726 76.34728,1.56908 76.36205,1.79722 76.40797,2.0195 76.45518,2.24212 
			76.48636,2.4683 76.50287,2.69642 76.50323,2.83616 76.44707,2.88248 76.5176,3.09727 76.49489,3.31731 76.4968,3.53628 
			76.53455,3.75384 76.53046,3.97348 76.53875,4.19281 76.56161,4.41181 76.58549,4.63102 76.54148,4.85125 76.59765,5.06887 
			76.57546,5.28906 76.54066,5.50972 76.57212,5.7292 76.58847,5.9494 76.62758,6.16852 76.56199,6.38967 76.61533,6.60992 
			76.63083,6.83015 76.60262,7.05178 76.611,7.27431 76.56604,7.49794 76.59286,7.72443 76.582,7.95079 76.59765,8.17719 
			76.60268,8.40349 76.58102,8.62936 76.55262,8.85493 76.59756,9.08154 76.54194,9.30622 76.54964,9.53197 76.57147,9.75802 
			76.59483,9.98546 76.59516,10.21204 76.52341,10.43583 76.55711,10.66277 76.50757,10.88628 76.53538,11.11249 76.53249,11.33711 
			76.52153,11.56243 76.4584,11.7841 76.46036,12.00801 76.49366,12.23415 76.41331,12.45063 76.44474,12.66466 76.39584,12.87055 
			76.36632,13.07899 76.33191,13.28734 76.2646,13.48869 76.25784,13.7025 76.22761,13.91222 76.13866,14.10704 76.03949,14.29436 
			75.99824,14.53085 76.29492,14.50025 76.40208,14.47327 76.62294,14.49331 76.84495,14.52747 77.06729,14.49611 
			77.29025,14.50249 77.51324,14.48518 77.71545,14.48883 77.91731,14.50854 78.12023,14.50317 78.32345,14.48349 
			78.52725,14.50525 78.73106,14.53892 78.94969,14.4764 79.16862,14.53653 79.38777,14.46443 79.60662,14.46099 79.82534,14.49841 
			80.04416,14.4729 80.26141,14.50135 80.47884,14.47416 80.69682,14.48183 80.9157,14.50679 81.13522,14.46796 81.354,14.47352 
			81.57253,14.50093 81.7914,14.52223 82.01127,14.53257 82.23066,14.53975 82.45003,14.49061 82.67016,14.47054 82.88989,14.52183 
			83.10951,14.50823 83.32872,14.52551 83.54906,14.49205 83.76978,14.5345 83.99111,14.48496 84.20956,14.48886 84.21972,14.28595 
			84.23982,14.07073 84.2424,13.85535 84.23197,13.63921 84.22881,13.42291 84.28053,13.20922 84.22662,12.99022 84.28983,12.77832 
			84.299,12.56303 84.27672,12.34373 84.33261,12.13075 84.35158,11.9154 84.34612,11.6969 84.40489,11.53511 84.42236,11.35414 
			84.20493,11.43407 83.98657,11.4849 83.77267,11.55678 83.55401,11.60509 83.32813,11.61289 83.1053,11.64186 82.88379,11.68962 
			82.65955,11.71531 82.43185,11.68066 82.20629,11.68029 81.9883,11.705 81.77106,11.73127 81.55408,11.70362 81.33678,11.7 
			81.11845,11.71252 80.90063,11.66313 80.68276,11.69186 80.46423,11.68198 80.24603,11.71129 80.02798,11.71593 79.8103,11.73397 
			79.59148,11.66006 79.37237,11.70788 79.15291,11.68502 		"/>
	</g>
	<g>
		<path class="st0" d="M29.9631,0.51734l-0.22326,0.00025l-0.22326,0.00206l-0.22403-0.02317L29.06891,0.5309l-0.22348-0.06516
			l-0.22308,0.026l-0.22428-0.01639l-0.22461,0.04509l-0.22523-0.03619l-0.22523,0.02618l-0.24969-0.04561l-0.25037,0.00881
			l-0.2504-0.01734l-0.21841,0.00617l-0.21823,0.03935l-0.21786,0.0333l-0.21903-0.031l-0.21936,0.0113l-0.21995-0.0012
			l-0.21998,0.01906l-0.15291-0.00586l-0.29361-0.04859l0.09601,0.22112l0.04788,0.2225l0.10574,0.20617l0.00546,0.231
			l0.06878,0.21645l0.06329,0.21958l-0.00847,0.23155l0.07719,0.21875l-0.04196,0.23391l0.0896,0.22145l-0.05642,0.1205
			l0.06071,0.07597l-0.04969,0.22041l0.07615,0.21409l-0.02053,0.21924l0.033,0.21694l0.01028,0.21823l-0.02547,0.2198
			l0.02928,0.21786l-0.01003,0.21946l0.01513,0.21746l-0.03125,0.21918l0.00703,0.21841l0.03524,0.21814l0.00936,0.21915
			l-0.03462,0.22019l0.0484,0.21798l0.02253,0.21912l-0.04165,0.22044l0.01753,0.21921l-0.00227,0.22053l-0.03165,0.2217
			l0.0042,0.22262l0.00961,0.22643l0.04589,0.22658l-0.02084,0.22621L25.5783,8.40318l0.01286,0.22621l-0.0473,0.22529
			l0.0252,0.22624l-0.00688,0.2256l0.04205,0.22658L25.5981,9.75854l-0.02922,0.22603l-0.02953,0.22554l0.04199,0.2275
			l-0.03386,0.22461l0.01922,0.22621l-0.06133,0.22253l0.01056,0.22514l-0.01937,0.22486l-0.03542,0.22302l0.00187,0.22391
			l-0.00574,0.22388l-0.03361,0.21943l0.0065,0.21206l-0.00912,0.21117l-0.06728,0.20334l-0.00571,0.21363l-0.05304,0.20512
			l-0.05844,0.20255l-0.00365,0.21663l-0.11826,0.1864l-0.06393,0.19902l-0.0585,0.2205l0.29457-0.02118l0.10721,0.02339
			l0.21151-0.04567l0.21105,0.04883l0.21105-0.03576l0.21172-0.01476l0.21142,0.03987l0.21123,0.01397l0.2109-0.02735
			l0.21197-0.01486l0.21231,0.03017l0.21292,0.00896l0.21381,0.0147l0.01875-0.04438l-0.00319-0.01587l-0.01943,0.04751
			l0.19852-0.02683l0.19613-0.00068l0.18815-0.01872l-0.07001-0.19392l-0.07336-0.21375l-0.04899-0.22151l-0.05519-0.22059
			l0.01888-0.23296l-0.05289-0.22029l-0.04441-0.2225l-0.01117-0.22627l0.0194-0.22799l-0.04088-0.22477l0.00583-0.22747
			l0.00154-0.22698l-0.03806-0.22897l0.0127-0.22821l0.01866,0.03094l-0.01906-0.21792l0.01614-0.21544l0.06157-0.21473
			l-0.04972-0.21964l0.03257-0.21633l0.01485-0.21857l0.01213-0.207l0.19407-0.07216l0.21437-0.0578l0.17652-0.15331
			l0.22511-0.03355l0.18511-0.12805L29.233,9.40232l0.18913-0.1178l0.17633-0.13818l0.21544-0.06215l0.17667-0.13643
			l0.21498-0.06783l0.18984-0.11372l0.19373-0.10786l0.19724-0.10341l0.17572-0.13686l0.16725-0.14742l0.19966-0.10196
			l0.17182-0.14101l0.14619-0.17259l0.20856-0.09546l0.15798-0.15721l0.17793-0.1349l0.14957-0.16522l0.16283-0.14573
			l0.1016-0.20123l0.16252-0.14619l0.10156-0.19536l0.17716-0.13972l0.08536-0.20414l0.16133-0.15669l0.05672-0.21737
			l0.11062-0.1876l0.06021-0.21065l0.14119-0.17686l0.04696-0.2143l0.07799-0.2031l0.05157-0.21139l0.06796-0.20786l0.03026-0.21614
			l-0.00734-0.22072l0.0597-0.21099l-0.00258-0.21814L33.9856,3.40132L33.981,3.18555l-0.0461-0.21163l0.02198-0.22394
			l-0.0663-0.20767L33.7965,2.34452l-0.10923-0.18867l-0.10826-0.18548l-0.10641-0.1856l-0.13155-0.16848l-0.14325-0.15832
			l-0.13168-0.1756l-0.17839-0.12406L32.6857,1.07498l-0.19254-0.09371L32.3028,0.88072L32.109,0.78069l-0.21338-0.04423
			L31.69618,0.6402L31.4712,0.65767l-0.21203-0.03824l-0.21053-0.05666l-0.21645-0.01295L30.61457,0.5496L30.398,0.54413
			l-0.21722-0.00988L29.9631,0.51734z M30.38548,5.78602l-0.17121,0.14475l-0.17606,0.13904l-0.19573,0.11123L29.6741,6.33288
			L29.4492,6.39286l-0.18207,0.13097L29.0609,6.61041l-0.18422,0.13505l-0.2201,0.05285L28.4563,6.9009l-0.22572,0.02563
			L28.03724,6.9981l0.02324-0.21249l-0.00822-0.22778l-0.04199-0.22719l-0.03649-0.22695l0.02719-0.2291l-0.01568-0.22808
			l-0.00377-0.22802l-0.02465-0.22713l-0.00034-0.22741l0.04236-0.22845l-0.03861-0.22563l0.01286-0.22698l-0.05568-0.22532
			l0.04015-0.2283l-0.03168-0.2244l-0.03238-0.22452l0.02729-0.21574l0.21258-0.04647l0.21568,0.06743l0.21531-0.07023
			l0.21645,0.06384l0.21679-0.05635l0.21737,0.0616l0.2174-0.0651l0.21363,0.03312l0.2139-0.01636l0.21381,0.01212l0.21031,0.0558
			l0.2139,0.01314l0.20233,0.07047l0.1977,0.07808l0.13382,0.16132l0.10381,0.17443l0.0857,0.19217l0.02078,0.21292
			l-0.05347,0.20881l0.00292,0.2174L31.1452,4.74431l-0.12578,0.17962l-0.08969,0.19503L30.80687,5.2952l-0.15813,0.14622
			l-0.14214,0.15893L30.38548,5.78602z"/>
	</g>
	<g>
		<path class="st0" d="M65.58375,0.53097l-0.22327-0.05104l-0.2233,0.00095l-0.224,0.03112l-0.22363-0.03766l-0.22348,0.00942
			l-0.22311-0.0244l-0.22428-0.00212l-0.22461,0.04091l-0.22522,0.0139l-0.22526-0.03938l-0.24966,0.01572L62.84356,0.5205
			l-0.25037-0.06728l-0.21841,0.07772l-0.21823-0.03812L61.93866,0.517l-0.219-0.0268l-0.21937,0.0446l-0.21994-0.00712
			l-0.21998,0.00678l-0.15292-0.06191l-0.28594,0.03358L60.686,0.70791l0.09466,0.20776l0.07213,0.21568l0.0038,0.23106
			l0.0849,0.21286l0.02378,0.22658l0.06019,0.22044l0.03082,0.22526l0.02719,0.22679l-0.00344,0.22953l0.04168,0.11433
			l-0.06059,0.08275l0.03772,0.21568l-0.00525,0.2182l0.05552,0.21553l-0.02627,0.21961l0.03539,0.21709l-0.03689,0.22019
			l0.01682,0.21826l-0.00991,0.21934l0.01298,0.21746l0.04561,0.21697l0.03898,0.21774l-0.02584,0.21967l0.01587,0.21906
			l0.00286,0.21961l0.02253,0.21848l-0.00291,0.21952l-0.04675,0.2205l0.03305,0.21909l-0.01958,0.22069l0.04776,0.22148
			l-0.04926,0.2228l0.02139,0.22652l0.02084,0.22652L61.19913,8.177l0.04503,0.22664l-0.07001,0.22529l0.06706,0.22692
			l-0.06758,0.22477l0.05206,0.22676l-0.06648,0.22418l0.05955,0.22698l-0.0372,0.22581l0.01642,0.22695l-0.00635,0.22593
			l-0.04211,0.22431l0.01265,0.22587l-0.02674,0.22394l-0.00156,0.22461l-0.04807,0.22348l-0.00988,0.22422l0.0182,0.22477
			l-0.00785,0.22382l-0.05175,0.21823l0.0243,0.21366l-0.00608,0.21175l-0.07428,0.20252l-0.02047,0.21102l-0.04478,0.20657
			l-0.07809,0.19773l-0.04819,0.2039l-0.04895,0.20531l-0.02066,0.21415l-0.09718,0.1763l0.28732,0.01608l0.10715-0.01541
			l0.21151,0.04414l0.21105-0.02894l0.21105,0.00258l0.21175-0.04699l0.21138,0.00064l0.21126,0.02305l0.21087,0.02281
			l0.212-0.04939l0.2123,0.0259l0.21292-0.02787l0.21313,0.05215l-0.00998-0.01605l0.01216-0.01522l-0.00488,0.04368
			l0.19804-0.01363l0.19613-0.00688l0.20528,0.0186l-0.08938-0.23287l-0.07851-0.21249l-0.01725-0.22885l-0.07529-0.21599
			l-0.02627-0.22584l-0.01943-0.22569l-0.07545-0.21958l0.04181-0.23125l-0.0155-0.22581l-0.00967-0.22618l-0.02661-0.22689
			l0.02321-0.22722l-0.04141-0.22906l0.0573-0.22679l-0.03782,0.02916l-0.00512-0.21752l0.04871-0.21412l0.02228-0.21627
			l-0.01958-0.2186l-0.00774-0.21765l0.03677-0.21789l0.01028-0.20574l0.20049-0.05077l0.1995-0.09742l0.1923-0.11375
			l0.22047-0.04546l0.19186-0.11341l0.20083-0.09257l0.19067-0.11363l0.20479-0.08131l0.19018-0.11123l0.19598-0.10083
			l0.18732-0.11688l0.22013-0.06191l0.17812-0.13392l0.17689-0.13474l0.18965-0.11489l0.20187-0.09773l0.1619-0.155l0.18382-0.12471
			l0.17581-0.13579l0.14445-0.17345l0.17038-0.14125l0.17836-0.13333l0.14045-0.17339l0.15706-0.14905l0.186-0.12452
			l0.09657-0.20313l0.15362-0.15519l0.13388-0.17173l0.12904-0.176l0.10703-0.19011l0.12456-0.18057l0.02882-0.22919
			l0.14051-0.17452l0.04196-0.21722l0.12667-0.18487l0.04239-0.21488l0.01399-0.22065l0.09202-0.20083l0.00528-0.21952
			l0.07781-0.20786l0.02081-0.21599l0.02235-0.21716l0.02173-0.21829l-0.02547-0.21713l-0.04868-0.21335l-0.00986-0.21835
			L69.49879,2.5463L69.3847,2.35683l-0.02937-0.22271L69.2424,1.94649L69.14397,1.7502l-0.14469-0.16507l-0.13729-0.17087
			l-0.20113-0.10058l-0.15398-0.15319l-0.20344-0.08045l-0.16231-0.15549l-0.21538-0.04954l-0.18459-0.12848l-0.22462-0.01099
			L67.3104,0.66783l-0.21805-0.01292l-0.2027-0.09969L66.6703,0.55432l-0.21465-0.03548l-0.21777-0.01056L66.02137,0.4778
			l-0.21893,0.00427L65.58375,0.53097z M66.01514,5.79627l-0.20393,0.10519l-0.1755,0.13723l-0.16387,0.15512l-0.20731,0.09122
			l-0.1857,0.12339l-0.20631,0.0868l-0.1989,0.09889L64.4883,6.72508l-0.20086,0.09908l-0.22295,0.0411l-0.20645,0.08382
			l-0.22995,0.08521l0.05607-0.24871l-0.07977-0.22704l0.03551-0.22799l-0.02741-0.22713l0.02299-0.22906l-0.04895-0.22744
			l0.00215-0.22808l-0.0124-0.22744l0.05571-0.229l-0.04085-0.226l0.01488-0.22738l-0.03619-0.22523l-0.02075-0.22667
			l0.04177-0.22839l-0.04816-0.22366l0.0077-0.22649l-0.01992-0.24536l0.22357-0.00157l0.21568-0.00206l0.21531,0.02314
			l0.21645-0.03441l0.21679,0.06513l0.21737-0.02597l0.2174,0.01639l0.21406-0.04306l0.21175,0.04297l0.21455-0.01301
			l0.20822,0.06707l0.20973,0.02508l0.19819,0.06921l0.1895,0.0767l0.18311,0.10393l0.13818,0.16967l0.03069,0.2197l0.02744,0.21449
			l-0.01645,0.2159l-0.02339,0.21706l-0.07105,0.20537l-0.13039,0.17756L66.5609,5.1254l-0.13741,0.16685l-0.09772,0.19779
			l-0.18367,0.12511L66.01514,5.79627z"/>
	</g>
	<g>
		<polygon class="st0" points="11.86964,2.89203 11.91224,2.82723 11.86012,2.6997 11.87918,2.47239 11.97418,2.25505 
			12.01196,2.03206 12.03351,1.80582 12.08879,1.58571 12.1247,1.3626 12.1464,1.1352 12.177,0.90671 12.31033,0.71181 
			12.35146,0.52357 12.07056,0.52136 11.91764,0.49591 11.68581,0.47839 11.45319,0.472 11.22096,0.5073 10.98892,0.5 
			10.75728,0.46083 10.52441,0.53342 10.29117,0.48222 10.05728,0.50804 9.8234,0.5131 9.63451,0.53149 9.35004,0.51049 
			9.41782,0.70009 9.44203,0.9158 9.41198,1.1351 9.50161,1.34674 9.47549,1.56389 9.48151,1.78221 9.44866,1.99793 
			9.37368,2.20667 9.38979,2.43123 9.33715,2.64445 9.26091,2.85093 9.25569,2.85034 9.14517,3.03975 9.08461,3.24954 
			8.96527,3.43521 8.8933,3.64036 8.84956,3.85727 8.75938,4.0554 8.6979,4.26568 8.57022,4.44923 8.50585,4.65834 8.41647,4.85693 
			8.36199,5.06973 8.26457,5.26494 8.18517,5.46773 8.10616,5.67104 7.96841,5.8505 7.89527,6.05612 7.80491,6.25348 
			7.7275,6.45581 7.67096,6.66661 7.5624,6.85633 7.51,7.06965 7.4647,7.28683 7.34205,7.47302 7.23272,7.66387 7.19917,7.88551 
			7.12796,8.09208 7.03567,8.29106 6.95053,8.49247 6.88358,8.70134 6.79199,8.90091 6.64556,9.07758 6.59025,9.29142 
			6.50182,9.49133 6.3982,9.6862 6.33104,9.89642 6.30111,10.12254 6.18288,10.2986 6.11284,10.1067 6.0017,9.91766 
			5.95419,9.70253 5.86312,9.50523 5.80327,9.29492 5.72273,9.09287 5.60222,8.9068 5.50655,8.71012 5.46033,8.49358 
			5.36321,8.29815 5.25097,8.10902 5.23068,7.88219 5.07617,7.71022 5.02875,7.49395 4.92353,7.30117 4.86564,7.08929 
			4.7421,6.90556 4.66657,6.70246 4.57814,6.50473 4.55322,6.28073 4.43928,6.09265 4.37719,5.88233 4.26813,5.69059 
			4.17431,5.49339 4.13904,5.27246 4.02096,5.0851 3.95491,4.87534 3.84948,4.68228 3.7663,4.48007 3.68118,4.27787 
			3.61952,4.06645 3.50464,3.87701 3.48204,3.65012 3.37468,3.45679 3.30642,3.24703 3.181,3.06004 3.13082,2.84224 
			3.10614,2.85071 3.09159,2.62883 3.03349,2.42033 3.01004,2.20551 2.97256,1.99305 2.91145,1.78129 2.86618,1.56509 
			2.89559,1.34707 2.89371,1.12897 2.91624,0.91104 2.93187,0.69281 3.01195,0.52621 2.73184,0.47823 2.5427,0.50942 
			2.31088,0.48852 2.07828,0.53548 1.84605,0.48591 1.61401,0.50758 1.38237,0.52931 1.1495,0.48404 0.91629,0.53109 
			0.68241,0.46365 0.44852,0.53388 0.2957,0.47001 0.01531,0.52513 0.05601,0.71442 0.18597,0.91138 0.21657,1.13873 
			0.29272,1.35272 0.34146,1.57454 0.34981,1.80444 0.40693,2.02555 0.4201,2.25311 0.45337,2.47902 0.43551,2.70928 
			0.44303,2.80811 0.47934,2.91812 0.49576,3.13411 0.4682,3.35258 0.52351,3.56719 0.55282,3.78346 0.51798,4.00264 
			0.5422,4.21955 0.54659,4.43741 0.52154,4.65641 0.53222,4.87307 0.54831,5.08998 0.6007,5.30643 0.58643,5.52491 0.57464,5.7436 
			0.59407,5.96195 0.5534,6.18043 0.58526,6.39844 0.58511,6.61747 0.63391,6.83558 0.63462,7.05528 0.61236,7.27612 
			0.58983,7.49794 0.63894,7.72458 0.61218,7.95098 0.63864,8.17756 0.58449,8.40337 0.60239,8.6297 0.59045,8.85558 
			0.56249,9.08099 0.57194,9.30695 0.57387,9.53264 0.54788,9.75756 0.56881,9.98488 0.57854,10.21167 0.53416,10.43638 
			0.55684,10.66296 0.53621,10.88763 0.51476,11.11182 0.55503,11.33837 0.48253,11.56077 0.47222,11.78505 0.46043,12.00828 
			0.46964,12.23305 0.43311,12.45235 0.4581,12.66638 0.38419,12.86917 0.38895,13.08277 0.36749,13.29403 0.28717,13.49351 
			0.22713,13.69507 0.20159,13.9051 0.15721,14.11259 0.06356,14.30255 0,14.5264 0.2957,14.54193 0.40285,14.52109 
			0.61436,14.48638 0.82541,14.52938 1.03645,14.50237 1.24821,14.50169 1.45959,14.48131 1.67083,14.49982 1.88172,14.48865 
			2.09369,14.4931 2.30603,14.48303 2.51892,14.54076 2.73224,14.51906 2.73049,14.4965 2.72643,14.47404 2.72797,14.54267 
			3.02352,14.51118 2.99942,14.27349 2.97358,14.0466 2.91185,13.82199 2.90228,13.59243 2.914,13.36367 2.88005,13.13537 
			2.88536,12.9052 2.9396,12.67595 2.88564,12.44563 2.91695,12.21543 2.93315,11.98425 2.94074,12.02225 2.945,11.80724 
			2.97726,11.59291 2.91023,11.37369 2.97551,11.16041 2.94132,10.94399 3.00578,10.73107 2.98877,10.51462 2.9509,10.29725 
			3.00154,10.08236 2.97155,9.86474 3.02324,9.65011 3.02594,9.43347 3.03905,9.21641 3.06127,8.99986 3.04733,8.78139 
			3.03377,8.55865 3.085,8.77224 3.17619,8.96929 3.30083,9.15333 3.32882,9.37623 3.42578,9.57055 3.49018,9.77859 
			3.58812,9.97392 3.65792,10.1803 3.79659,10.35842 3.85193,10.57152 3.97182,10.75774 3.99699,10.98263 4.11789,11.16786 
			4.14834,11.39144 4.28287,11.57268 4.35266,11.78112 4.46583,11.97182 4.40558,11.99398 4.5069,12.19063 4.56473,12.40272 
			4.63569,12.61021 4.67648,12.82586 4.73934,13.03473 4.82326,13.24182 4.82206,13.46502 4.86119,13.68077 4.87276,13.89967 
			4.85419,14.11775 4.82663,14.33893 4.67304,14.53714 4.96506,14.53306 5.19348,14.50921 5.42254,14.48097 5.65161,14.46814 
			5.86287,14.47508 6.07521,14.47112 6.28792,14.47195 6.5012,14.51354 6.71449,14.50516 6.94297,14.46808 7.17207,14.46133 
			7.4012,14.47652 7.6907,14.50326 7.55,14.33331 7.54279,14.1109 7.46479,13.89712 7.47409,13.67592 7.52455,13.46161 
			7.54975,13.24446 7.57808,13.02608 7.62514,12.81042 7.68772,12.59919 7.76077,12.39155 7.88652,12.20134 7.90586,11.97378 
			7.93753,11.98612 8.02746,11.78959 8.08397,11.57839 8.17891,11.38223 8.2615,11.1818 8.32998,10.97588 8.39708,10.769 
			8.52679,10.58675 8.5631,10.3667 8.67138,10.17619 8.79112,9.98957 8.84888,9.77794 8.92003,9.57196 8.96948,9.3575 
			9.11573,9.18148 9.15158,8.95984 9.22218,8.7518 9.3331,8.55935 9.3521,8.77835 9.3102,8.9956 9.34114,9.21156 9.33559,9.4293 
			9.35763,9.64615 9.37018,9.86284 9.35713,10.07997 9.33853,10.29706 9.3944,10.51136 9.35087,10.72883 9.37187,10.94506 
			9.40812,11.15976 9.44716,11.37333 9.46435,11.58695 9.41076,11.80451 9.4637,12.01467 9.42043,11.98456 9.46545,12.21408 
			9.47828,12.44428 9.48147,12.67451 9.43043,12.90468 9.44234,13.13464 9.48301,13.36656 9.40655,13.5939 9.4448,13.82475 
			9.40161,14.05065 9.37497,14.27781 9.3428,14.51176 9.63798,14.53862 9.62926,14.47484 9.66048,14.49512 9.63439,14.50688 
			9.84602,14.5431 10.05707,14.53183 10.26812,14.50025 10.47987,14.47327 10.69126,14.49331 10.90252,14.52747 11.11338,14.49611 
			11.32538,14.50249 11.53769,14.48518 11.75061,14.48883 11.9635,14.50854 12.07056,14.50317 12.35524,14.48404 12.28959,14.30461 
			12.25668,14.09451 12.13836,13.90965 12.14474,13.69188 12.02802,13.50265 11.9833,13.29529 11.98425,13.08031 11.92835,12.87482 
			11.93096,12.66061 11.88333,12.45143 11.87771,12.22774 11.89005,12.00312 11.8394,11.78167 11.83376,11.55749 11.85061,11.3321 
			11.86203,11.10685 11.86313,10.88192 11.86172,10.65694 11.80469,10.43371 11.77734,10.21044 11.82191,9.98463 11.80224,9.76036 
			11.81399,9.53488 11.77562,9.31021 11.81374,9.08366 11.76049,8.8596 11.76092,8.63394 11.7767,8.40751 11.79097,8.18063 
			11.78667,7.95429 11.7685,7.72673 11.75675,7.49794 11.79898,7.27769 11.73443,7.05722 11.78606,6.83736 11.78229,6.61729 
			11.74533,6.39688 11.78495,6.17751 11.78551,5.95775 11.75877,5.73758 11.80055,5.5176 11.80761,5.29726 11.80067,5.07682 
			11.81414,4.85727 11.79827,4.6371 11.7995,4.41774 11.83548,4.20003 11.84392,3.98167 11.82765,3.7613 11.82774,3.54242 
			11.88241,3.32708 11.89711,3.10958 		"/>
	</g>
	<g>
		<path class="st0" d="M21.45326,7.50525l-0.02931-0.2229l-0.02652-0.22323l-0.09757-0.20408l-0.0806-0.20872l-0.01863-0.22458
			l-0.0566-0.21461L21.109,5.98583l-0.04429-0.21857L20.9467,5.56662l0.01366-0.23158l-0.0721-0.21102l-0.02904-0.22053
			l-0.05611-0.21403l-0.05086-0.21485L20.69087,4.2608l-0.04527-0.21642l-0.05417-0.21363L20.5319,3.61903l-0.00663-0.2228
			l-0.08545-0.20884l0.07692,0.01188l-0.05157-0.22894l-0.05328-0.22342l-0.06351-0.22247l-0.0299-0.22765l0.00095-0.23023
			l-0.00439-0.22821l-0.05734-0.2271l-0.02155-0.23051l0.07197-0.22477l0.01351-0.22621l0.01891-0.23026l0.09193-0.20746
			L20.22641,0.4589l-0.2054,0.02274l-0.05909,0.01725l-0.12989-0.02145l-0.00031,0.01789l-0.22983,0.01851l-0.2298-0.05003
			l-0.2306,0.04963l-0.2302-0.03886l-0.23005,0.05997L18.4516,0.53511l-0.23085-0.0705l-0.23121-0.00746l-0.23186,0.01473
			l-0.23186-0.01375l-0.00034,0.01185l-0.12989,0.03296L17.33635,0.5344l-0.2054-0.06885l-0.19484,0.05727l0.09607,0.1771
			l0.01992,0.23075l0.00678,0.22796l0.00338,0.22716l0.03391,0.22689l-0.01774,0.22738l-0.05709,0.22412l0.04745,0.23576
			l-0.08118,0.22056l-0.00985,0.23023l-0.03515,0.2279l-0.02557,0.22504l-0.00819-0.01645l-0.03932,0.2193l-0.05378,0.21384
			l-0.09478,0.20546l0.03337,0.23253l-0.07014,0.21099l-0.02928,0.21995l-0.05829,0.21384l-0.09091,0.20512l0.00761,0.22784
			l-0.05221,0.21473L16.3929,5.56211l-0.05672,0.2143L16.2541,5.98482l-0.03023,0.22004l-0.09291,0.20509l-0.04429,0.21798
			l-0.01581,0.22627l-0.0651,0.21298l-0.03634,0.22219l-0.10654,0.20439l-0.03956,0.21488L15.75668,7.9159l-0.03128,0.21743
			l-0.07667,0.2042l-0.05875,0.20939l-0.05902,0.20927l-0.12035,0.19033l-0.05448,0.21034l-0.07366,0.20537L15.2213,9.57131
			l-0.04036,0.21565l-0.09441,0.19788l-0.03708,0.21642l-0.03014,0.21869l-0.10967,0.19183l-0.09678,0.19564l-0.02029,0.22283
			l-0.05902,0.20893l-0.08048,0.2007l-0.07409,0.20365l-0.05543,0.20829l-0.08008,0.19751l-0.14165,0.18895l-0.05203,0.22293
			l-0.08788,0.20868l-0.10485,0.2007l-0.07081,0.21452l-0.03692,0.2306l-0.13972,0.18514l-0.09503,0.20414l-0.07127,0.21556
			l-0.13613,0.18201l-0.09951,0.2023l-0.11657,0.2287l0.2174,0.00448l0.08438-0.04091l0.23112-0.0139l0.23109,0.03938
			l0.23189-0.01571l0.23149-0.03211l0.23134,0.06728l0.23094-0.07772l0.23214,0.03812l0.2325-0.02419l0.23315,0.02676
			l0.23315-0.04457l0.03281,0.00712l0.23781-0.00678l0.24346,0.06114l-0.05976-0.23183l0.01759-0.21722l-0.01449-0.21887
			l0.01369-0.21617l0.08514-0.20534l0.00436-0.22023l0.06599-0.20878l0.02925-0.21725l0.05687-0.21053l0.05921-0.2112
			l0.08665-0.20304l0.02541,0.04533l-0.02388-0.02406l0.20982,0.03069l0.20589,0.06627l0.21989-0.00046l0.20552,0.07268
			l0.21673,0.00454l0.20924,0.06906l0.21599,0.00826l0.21531,0.02756l0.21663-0.00276l0.03033-0.03996l0.03026-0.03269
			l0.23256,0.02692l0.23152-0.02342l0.23161-0.01903l0.22793-0.04702l0.22977-0.03005l0.23772,0.00457l0.22029-0.08168
			l0.22655-0.03877l0.10608,0.19122l0.01301,0.2229l0.07768,0.20411l0.07366,0.20565l0.00331,0.22109l0.08806,0.20469
			l-0.03198,0.22541l0.095,0.20623l-0.05058,0.21955l0.05104,0.219l-0.08075,0.23213l0.24524-0.06409l0.23772,0.03106
			l0.03296-0.02317l0.23112-0.00101l0.23109,0.03416l0.23189-0.02127l0.23149,0.0175l0.23134-0.00832l0.23094,0.03751
			l0.23214-0.00132l0.2325-0.03011l0.23315-0.00476l0.23315,0.03867l0.08438-0.04497l0.19325-0.01734l-0.0918-0.1709
			l-0.12084-0.18923l-0.09966-0.20129l-0.06989-0.2159l-0.0988-0.2007l-0.10135-0.20027l-0.13272-0.18784l-0.06927-0.21544
			l-0.06961-0.21568L23.0918,12.47l-0.03868-0.22759l-0.10479-0.20316l-0.06998-0.20377l-0.1163-0.18769L22.691,11.4438
			l-0.04939-0.21175l-0.04914-0.21194l-0.11694-0.18886l-0.04512-0.2136l-0.09555-0.19674l-0.01869-0.22133l-0.08708-0.19899
			l-0.05872-0.20862l-0.04337-0.21378l-0.07894-0.20264l-0.07173-0.20528l-0.0449-0.21384l-0.08944-0.19951l-0.0787-0.20344
			l-0.0267-0.2194l-0.09073-0.20003l-0.04908-0.2131L21.54856,7.7069L21.45326,7.50525z M18.71716,9.73522l-0.03033-0.02907
			l-0.21982-0.038l-0.22308,0.02578l-0.22366-0.00138l-0.21268-0.07357L17.5935,9.57773l0.08085-0.19788l0.06998-0.20479
			l-0.00426-0.22581l0.12437-0.18849l0.03864-0.21412l0.0799-0.20267l0.05181-0.21019l0.05598-0.21l0.04497-0.21409l0.05973-0.21086
			l0.04902-0.21246l0.04193-0.21403l0.09291-0.20141l0.0135-0.2217l0.11685-0.19438l0.04622-0.212l0.0392-0.21415l0.02369-0.21636
			l0.06013-0.21556l0.03459,0.22354l0.03806,0.2136l0.09745,0.19788l0.0725,0.20454l-0.00623,0.22538l0.06544,0.20767
			l0.08155,0.20282l0.04269,0.21455l0.02637,0.22053l0.08085,0.20522l0.07597,0.20629l0.03941,0.21749l0.07759,0.20617
			l0.07851,0.20531l0.01301,0.22391l0.10899,0.19536l0.02465,0.22059l0.11955,0.19125l0.05921,0.23889l-0.24386-0.00927
			l-0.20411,0.02373l-0.20258,0.03717l-0.20595-0.00003L18.74742,9.6858L18.71716,9.73522z M20.56278,12.18182l0.02299-0.00823
			l0.02087-0.01013L20.56278,12.18182z"/>
	</g>
	<g>
		<polygon class="st0" points="121.21527,2.93402 121.23151,2.79353 121.26646,2.71226 121.22098,2.47997 121.2987,2.25986 
			121.31367,2.03246 121.30759,1.7998 121.40514,1.58575 121.42985,1.35877 121.47227,1.13507 121.55802,0.92166 121.58829,0.6933 
			121.70265,0.46743 121.40624,0.5217 121.25278,0.52998 121.02089,0.46718 120.78826,0.45389 120.55601,0.46958 120.32391,0.52345 
			120.0922,0.53468 119.8593,0.4724 119.62603,0.50107 119.39211,0.46642 119.1582,0.50307 118.96996,0.53357 118.673,0.46497 
			118.6737,0.70837 118.70645,0.91773 118.72754,1.12946 118.74034,1.3421 118.79648,1.55306 118.81035,1.76588 118.76462,1.98006 
			118.74153,2.19314 118.77551,2.40597 118.76146,2.61907 118.7795,2.83322 118.78976,3.04586 118.77834,3.26099 118.79006,3.4772 
			118.72481,3.6923 118.73573,3.91289 118.769,4.0298 118.69868,4.0225 118.74881,4.24036 118.6861,4.45481 118.72886,4.67317 
			118.67297,4.88719 118.66066,5.10306 118.67895,5.32009 118.68122,5.53694 118.6908,5.75422 118.6795,5.97134 118.65688,6.18752 
			118.68542,6.40504 118.66136,6.62244 118.66465,6.84071 118.63352,7.05841 118.64825,7.2775 118.6424,7.49764 118.69427,7.73643 
			118.671,7.97179 118.58233,7.76608 118.42963,7.59886 118.29099,7.42274 118.20581,7.21317 118.08629,7.02453 117.98568,6.82524 
			117.87638,6.63199 117.70201,6.47935 117.64194,6.25609 117.50607,6.07945 117.40674,5.8796 117.28259,5.69403 117.16196,5.50545 
			117.03216,5.32347 116.91573,5.13351 116.79069,4.94849 116.65972,4.76592 116.57449,4.55564 116.42034,4.38799 
			116.35742,4.16301 116.23419,3.97713 116.10481,3.79368 115.96304,3.61836 115.84531,3.4268 115.7488,3.2217 115.64172,3.02241 
			115.48306,2.85498 115.46394,2.86176 115.43189,2.63359 115.34184,2.43187 115.24574,2.23064 115.19967,2.01373 115.1834,1.7913 
			115.12545,1.57773 115.08708,1.3599 115.10344,1.13965 115.09875,0.91902 115.11547,0.69674 115.20541,0.46485 114.90848,0.51341 
			114.71962,0.47452 114.48776,0.5345 114.2551,0.53508 114.02285,0.46458 113.79078,0.45712 113.55907,0.47185 113.32617,0.4581 
			113.0929,0.46995 112.85899,0.50291 112.62504,0.53434 112.47219,0.4655 112.19162,0.52351 112.28619,0.69564 112.32971,0.91942 
			112.37299,1.14155 112.42004,1.36082 112.50205,1.57377 112.53674,1.79784 112.53413,2.02733 112.63652,2.24188 112.61077,2.4738 
			112.65614,2.69835 112.6694,2.82864 112.69128,2.89049 112.68278,3.10909 112.69849,3.32661 112.6991,3.54515 112.65794,3.76568 
			112.74766,3.98075 112.7318,4.20055 112.75788,4.4189 112.75448,4.63851 112.71746,4.85794 112.7817,5.07473 112.78501,5.29376 
			112.77216,5.51343 112.77151,5.73313 112.74512,5.95354 112.77219,6.1722 112.73517,6.39237 112.74883,6.61241 112.79253,6.83171 
			112.7856,7.05264 112.8093,7.27456 112.76104,7.49764 112.78056,7.71559 112.7724,7.93339 112.80141,8.15135 112.78345,8.36893 
			112.78455,8.58652 112.78563,8.80404 112.7228,9.0204 112.72913,9.23768 112.71584,9.45446 112.71584,9.67141 112.73784,9.88884 
			112.70309,10.10587 112.72872,10.32441 112.76175,10.54304 112.71098,10.75835 112.67366,10.97364 112.71752,11.19193 
			112.72025,11.40826 112.69994,11.62449 112.68655,11.84014 112.69223,12.05589 112.67093,12.27053 112.58984,12.47844 
			112.59631,12.70978 112.56086,12.93799 112.50343,13.163 112.47876,13.39317 112.48705,13.63129 112.38226,13.84332 
			112.32063,14.06643 112.28001,14.29506 112.17784,14.52017 112.47219,14.51148 112.5795,14.53592 112.791,14.53803 
			113.00204,14.49712 113.2131,14.48321 113.42485,14.52256 113.63624,14.50685 113.84747,14.47474 114.05836,14.54202 
			114.27033,14.46431 114.48267,14.50246 114.69556,14.47824 114.90857,14.50504 114.86765,14.49426 114.94415,14.47659 
			114.91225,14.46096 115.20313,14.5221 115.14319,14.27827 115.13763,14.04789 115.09,13.82189 115.06419,13.59314 
			115.10627,13.36318 115.06284,13.13528 115.07932,12.90517 115.05593,12.67534 115.05918,12.44557 115.06302,12.21451 
			115.09414,11.98416 115.05704,12.01884 115.13407,11.79729 115.11934,11.57133 115.14629,11.34715 115.11115,11.12001 
			115.15654,10.8961 115.13898,10.66943 115.19251,10.44516 115.19104,10.22011 115.21507,9.99544 115.21501,9.76963 
			115.18119,9.54271 115.15283,9.31576 115.18816,9.08977 115.18057,8.86386 115.18494,8.63753 115.16845,8.41031 
			115.17634,8.18281 115.22695,7.95586 115.19662,7.72725 115.2178,7.49764 115.17033,7.30896 115.21867,7.12118 115.21953,6.92471 
			115.35455,7.10399 115.43066,7.31575 115.58545,7.47922 115.64242,7.70221 115.81694,7.85356 115.8771,8.07486 116.04005,8.23385 
			116.10242,8.45444 116.27249,8.60834 116.36018,8.81184 116.49404,8.98682 116.60893,9.17328 116.69389,9.37825 
			116.82648,9.55483 116.92638,9.75235 117.04873,9.937 117.13154,10.14485 117.24738,10.3323 117.38795,10.50501 
			117.50742,10.69181 117.58955,10.9008 117.74308,11.06624 117.87534,11.24555 117.9525,11.45672 118.0812,11.63775 
			118.19329,11.82848 118.28135,12.03523 118.40062,12.22332 118.52533,12.40886 118.68175,12.57562 118.66142,12.58756 
			118.70961,12.80435 118.78098,13.01463 118.78512,13.239 118.85017,13.45262 118.87008,13.67355 118.92076,13.89448 
			118.89767,14.11852 118.81391,14.32907 118.67911,14.51112 118.96996,14.46188 119.15878,14.48779 119.3721,14.45995 
			119.58539,14.5121 119.79942,14.49159 120.01307,14.50037 120.22658,14.52462 120.43971,14.51087 120.65398,14.50399 
			120.86856,14.52447 121.08375,14.49743 121.29894,14.48091 121.40624,14.51793 121.6912,14.48782 121.6118,14.28466 
			121.55293,14.06007 121.44247,13.85142 121.44744,13.61161 121.39811,13.38507 121.35606,13.15707 121.29885,12.93111 
			121.29253,12.69676 121.22371,12.46841 121.25901,12.24158 121.21064,12.01967 121.18393,11.79613 121.21245,11.56955 
			121.21579,11.34408 121.17853,11.1202 121.15434,10.89543 121.17586,10.66867 121.17678,10.44261 121.18415,10.2176 
			121.15656,9.99323 121.1157,9.7687 121.15314,9.54179 121.12119,9.31616 121.11617,9.08961 121.09207,8.86423 121.10738,8.63759 
			121.09361,8.41067 121.09602,8.18302 121.08452,7.95583 121.1414,7.72716 121.11938,7.49764 121.1006,7.27931 121.11015,7.06111 
			121.14554,6.84322 121.11597,6.62496 121.12899,6.40716 121.1336,6.18939 121.0947,5.97098 121.10287,5.75342 121.1282,5.5351 
			121.10459,5.31598 121.11749,5.09802 121.17699,4.88176 121.12629,4.66255 121.15907,4.44628 121.17522,4.22986 
			121.19415,4.01246 121.19612,3.79521 121.2273,3.58014 121.16039,3.36121 121.22703,3.1485 		"/>
	</g>
	<g>
		<path class="st0" d="M126.34021,0.53216l0.00253-0.05156l-0.22784,0.01624l-0.22759-0.03223l-0.22832,0.03441l-0.22793-0.04325
			l-0.22781,0.05985l-0.22738-0.0395l-0.22857,0.01765l-0.22895,0.00341l-0.22958,0.01019l-0.22958-0.01792l-0.15285,0.02919
			l-0.29447-0.0423l0.11675,0.21676l0.05436,0.22136l0.02788,0.22725l0.06605,0.21544l0.03042,0.2244l0.03063,0.2244l0.0484,0.22145
			l0.04923,0.22197l0.03947,0.22501l-0.01587,0.23011l0.02523,0.11703l0.01068,0.07597l0.00343,0.21762l-0.01857,0.21894
			l0.07548,0.21461l-0.04328,0.22044l0.02477,0.21756l0.05151,0.21685l-0.04844,0.22078l0.03098,0.21811l0.01872,0.21743
			l-0.01952,0.21897l0.04524,0.21759l-0.05424,0.22035l0.05988,0.21814l0.01231,0.21952l-0.0593,0.21983l-0.01035,0.21949
			l0.01808,0.21973l0.05574,0.219l0.01258,0.22059l-0.06145,0.22194l0.02892,0.22268l-0.03493,0.22646l0.0358,0.22652
			l0.02909,0.22658l-0.07152,0.22563l-0.00374,0.226l0.01083,0.22609l0.00193,0.2259l-0.00402,0.22569l0.04134,0.22661
			l0.00083,0.22566l-0.05727,0.22526l-0.03315,0.22541l0.0252,0.22689l-0.02155,0.22498l0.01169,0.22584l0.00495,0.22532
			l-0.01563,0.22403l0.00842,0.22627l-0.0663,0.22151l0.00862,0.22434l0.02634,0.22581l-0.08483,0.21627l0.03787,0.21498
			l-0.0799,0.20205l0.01897,0.21571l-0.08437,0.19985l-0.04703,0.20512l-0.02302,0.20991l-0.04497,0.20525l-0.04505,0.20721
			l-0.07201,0.19733l-0.07808,0.21151l0.29423-0.03091l0.10715,0.02164l0.21151-0.00519l0.21105,0.02977l0.21104-0.01553
			l0.21175,0.00556l0.21139-0.05089l0.21123,0.03085l0.2109,0.03263l0.21198-0.04193l0.2123-0.02526l0.21292,0.03775
			l0.21292-0.00243l0.22005,0.01746l0.22038,0.00325l0.21664-0.07738l0.22351,0.05252l0.21764-0.04091l0.22128-0.00276
			l0.21761-0.03646l0.21725-0.03751l0.21387-0.05445l0.21529-0.04537l0.21129-0.06163l0.20703-0.07446l0.22099-0.03079
			l0.19211-0.11501l0.22839-0.02256l0.19873-0.09767l0.19122-0.11151l0.17818-0.13217l0.18677-0.1151l0.19601-0.1031
			l0.18443-0.12234l0.13873-0.17673l0.14702-0.16246l0.19835-0.11209l0.13947-0.17109l0.11858-0.1868l0.1431-0.167l0.15132-0.16384
			l0.09692-0.19978l0.09297-0.20027l0.11949-0.18631l0.07669-0.20724l0.0683-0.20942l0.12526-0.18766l0.02489-0.22412
			l0.1024-0.19831l0.00104-0.22649l0.05234-0.21163l0.11641-0.19877l0.04993-0.21504l0.02298-0.22013l0.04631-0.21667
			l0.01634-0.22072l-0.00928-0.22136l-0.01189-0.22127l0.08426-0.21507l-0.04724-0.22397l0.01158-0.21937l0.03032-0.22096
			l0.01909-0.22182l0.00482-0.22065l-0.04008-0.21952l-0.00089-0.22013l0.02734-0.22207l-0.08788-0.21427l0.03162-0.22326
			l-0.04921-0.21571l-0.03284-0.21691l-0.05052-0.21406l-0.01709-0.21949l-0.04672-0.21442l-0.0379-0.21645l-0.00418-0.2275
			l-0.13707-0.19122l-0.04208-0.21734l-0.08894-0.20184l-0.06842-0.20878l-0.04546-0.21986l-0.14555-0.17446l-0.09772-0.1953
			l-0.09196-0.19908l-0.11115-0.18864l-0.09874-0.1984l-0.15079-0.1616l-0.1093-0.19533l-0.15669-0.15611l-0.18472-0.12606
			l-0.15613-0.15353l-0.18291-0.12164l-0.14626-0.17041l-0.19293-0.10715L130.15335,1.339l-0.2061-0.07956l-0.18837-0.11194
			l-0.20108-0.08625l-0.20447-0.07759l-0.18697-0.12974l-0.21338-0.05675l-0.21001-0.06771l-0.21539-0.04739l-0.22087-0.0186
			L128.0955,0.596l-0.22215-0.00147l-0.22243,0.01219l-0.21338-0.06535l-0.21664-0.04665l-0.22277,0.03947l-0.21918,0.00328
			l-0.2189-0.01519L126.34021,0.53216z M126.50403,12.04235l0.04919-0.24699l-0.00497-0.22538l0.04276-0.22339l-0.0245-0.22667
			l0.05246-0.22363l-0.05117-0.2279l0.04742-0.2244l-0.01035-0.22523l0.00332-0.22517l-0.00408-0.22575l0.02341-0.22541
			l-0.02425-0.22686l0.04727-0.22575l-0.05111-0.22655l0.01759-0.22609l0.03632-0.22661l-0.01096-0.22771l0.01897-0.22713
			l0.01218-0.22845l-0.01221-0.22965l-0.01919-0.2271l-0.01528-0.22692l0.03419-0.22716l-0.01982-0.22667l-0.00896-0.22661
			l0.00519-0.2267l0.02605-0.22698l-0.06939-0.22636l0.04827-0.22845l-0.02108-0.22664l-0.04902-0.22544l0.04976-0.22796
			l-0.03088-0.22517l-0.01983-0.22511l0.01716-0.22615l-0.04881-0.22446l0.04942-0.22778l-0.06577-0.22167l-0.01952-0.22403
			l0.04328-0.20525l0.20116,0.03226l0.22271,0.00184l0.22808-0.02833l0.22398,0.02311l0.20718,0.10519l0.22314,0.02759
			l0.20165,0.10071l0.22078,0.04721l0.21643,0.06924l0.15956,0.17142l0.18155,0.12557l0.18048,0.12845l0.16406,0.14938
			l0.14751,0.16593l0.17189,0.15058l0.12778,0.18606l0.06372,0.22081l0.07095,0.21169l0.11345,0.19374l0.05963,0.21485
			l0.08211,0.20859l0.06721,0.21418l0.03929,0.2205l0.05592,0.21777l-0.0247,0.22894l0.04379,0.21961l0.05641,0.22075
			l-0.05981,0.22603l0.06555,0.22314l-0.0526,0.22578l0.04791,0.22418l-0.05611,0.2236l-0.01808,0.22357l0.00635,0.22523
			l-0.01617,0.2236l-0.01608,0.22391l-0.04439,0.21943l-0.06355,0.21452l-0.02281,0.22415l-0.08354,0.20847l-0.06796,0.21274
			l-0.11121,0.19506l-0.08115,0.20718l-0.11255,0.1914l-0.07886,0.21504l-0.15991,0.15967l-0.17157,0.14371l-0.13153,0.18349
			l-0.1588,0.1608l-0.20633,0.09487l-0.19202,0.11228l-0.20865,0.07768l-0.20891,0.07228l-0.19177,0.13241l-0.23244-0.00912
			l-0.21304,0.0659l-0.22256,0.01335l-0.21961,0.0329l-0.22118,0.02087L126.50403,12.04235z"/>
	</g>
	<g>
		<path class="st0" d="M108.92062,7.49371l-0.09055-0.20598l-0.01728-0.22581l-0.05292-0.2159l-0.06912-0.21154l-0.05817-0.21433
			l-0.09818-0.20417l-0.02351-0.22431L108.42928,5.782l0.00466-0.23002l-0.05801-0.21461l-0.10593-0.20331l-0.00789-0.22547
			l-0.05614-0.21412l-0.07683-0.20927l-0.05175-0.21605l0.02723-0.23189l-0.07084-0.21007l-0.01845-0.2201l-0.05651-0.21255
			l-0.03775-0.20918l0.01443,0.01427l-0.05209-0.22796L107.799,2.75332l-0.03303-0.22771l-0.01259-0.22999l0.01694-0.23149
			l-0.04712-0.22468l-0.04391-0.22814l-0.00777-0.23045l0.01231-0.22857l0.08714-0.21909l0.02655-0.2255l0.06676-0.2325
			l-0.21206,0.02646l-0.2054-0.01501l-0.05905,0.0449l-0.12993-0.01627l-0.00031-0.03585l-0.22984,0.02099l-0.22983,0.01102
			l-0.23058,0.01599l-0.23022-0.04684l-0.23002,0.01624l-0.22965-0.03223l-0.23087,0.03441l-0.23118-0.04325l-0.23186,0.05985
			l-0.23186-0.0395l-0.00031,0.01765l-0.12993,0.00341l-0.05905,0.01019l-0.20546-0.01792l-0.19702,0.02769l0.05396,0.19432
			l0.09837,0.21418l0.01013,0.23026l-0.02385,0.22974l0.01157,0.2267l-0.0279,0.2263l-0.02934,0.22606l-0.01219,0.22867
			l-0.01166,0.2294l-0.02112,0.22867l-0.07514,0.22053l-0.02667,0.22953l0.01851-0.01467l-0.05172,0.21513l-0.0732,0.20976
			l0.019,0.2291l-0.09748,0.20503l-0.03091,0.21924l-0.00494,0.2252l-0.10283,0.20396l-0.0251,0.21983l-0.03736,0.21765
			l-0.07489,0.20933l-0.01218,0.22443l-0.10933,0.20169l0.00123,0.22867l-0.04512,0.21654l-0.11504,0.19957l-0.06805,0.21191
			l-0.04107,0.21955l-0.00504,0.22888l-0.04758,0.21921l-0.11977,0.20073l-0.03112,0.21749l-0.09294,0.19994l-0.02523,0.21934
			l-0.03204,0.21755l-0.12879,0.18876l-0.064,0.2078l-0.0503,0.21194l-0.059,0.20927l-0.06516,0.20838l-0.0221,0.22194
			l-0.06081,0.20951l-0.11605,0.19119l-0.09309,0.19822l-0.03763,0.21633l-0.08199,0.20126l-0.0504,0.21166l-0.05712,0.2105
			l-0.07633,0.20316l-0.05319,0.21047l-0.12394,0.18631l-0.05242,0.20948l-0.0349,0.21384l-0.14472,0.18741l-0.0252,0.23284
			l-0.1333,0.19058l-0.038,0.22756l-0.13241,0.18858l-0.09543,0.20405l-0.07099,0.21513l-0.0891,0.20657l-0.08628,0.20767
			l-0.10902,0.19561l-0.12443,0.1884l-0.09168,0.18864l0.2003,0.02078l0.08438-0.00519l0.23112,0.02977l0.23109-0.01553
			l0.23189,0.00556l0.23149-0.05089l0.23134,0.03085l0.23093,0.03263l0.23213-0.04193l0.23251-0.02526l0.23315,0.03775
			l0.23315-0.00243l0.03281,0.01921l0.23779,0.00869l0.22826-0.06676l-0.00147-0.18017l-0.02726-0.21381l0.03407-0.21439
			l0.0174-0.21338l0.03109-0.21317l0.02738-0.21547l0.0488-0.21237l0.04398-0.21332l0.04224-0.2143l0.09766-0.19966l0.02318-0.22145
			l-0.02262,0.02406l0.0465,0.00697l0.20614,0.04263l0.21614,0.02268l0.2104,0.04423l0.2077,0.06255l0.21191,0.04414
			l0.21946-0.02287l0.21525-0.00328l0.2121,0.07216l0.21623-0.00746l0.03033-0.02732l0.03023,0.01529l0.23416,0.02894
			l0.23232-0.03493l0.23087-0.03748l0.23407-0.00697l0.22759-0.05374l0.22498-0.06188l0.23833-0.00252l0.22728-0.10519
			l0.03622,0.23075l0.11816,0.19236l0.0575,0.21031l-0.01593,0.22753l0.03993,0.21169l0.05605,0.20964l0.02084,0.21568
			l0.03683,0.21132l0.04595,0.21286l0.02609,0.2205l-0.08855,0.23075l0.24503-0.05823l0.23769,0.00335l0.033,0.02548l0.23109,0.0175
			l0.23112,0.00641l0.23189-0.0353l0.23149,0.00727l0.23131,0.03916l0.23093-0.07256l0.23213,0.0512l0.23251-0.02584
			l0.23315-0.00506l0.23318-0.01835l0.08437,0.02035l0.19687-0.00301l-0.1166-0.16805l-0.06207-0.22093l-0.17437-0.16271
			l-0.07732-0.21311l-0.11188-0.19546l-0.08272-0.20948l-0.04957-0.22394l-0.1406-0.18536l-0.08263-0.21083l-0.06544-0.21716
			l-0.0751-0.21418l-0.04908-0.2236l-0.09463-0.19503l-0.03432-0.21666l-0.0822-0.19997l-0.11065-0.19036l-0.06286-0.20721
			l-0.09187-0.19751l-0.02373-0.22084l-0.08784-0.19926l-0.06118-0.20718l-0.09647-0.19595l-0.05178-0.21096l-0.0698-0.2054
			l-0.06967-0.20577l-0.00856-0.22514l-0.07431-0.20463l-0.05519-0.20994l-0.06776-0.20657l-0.08871-0.20089l-0.03392-0.21667
			l-0.0918-0.20064l-0.0989-0.19978L108.92062,7.49371z M106.14299,9.69212l-0.03033,0.03441l-0.22034-0.04761l-0.21915-0.02026
			l-0.22038-0.01289l-0.21817-0.03309l-0.2466-0.01627l0.08865-0.2236l0.03315-0.21562l0.11673-0.19008l0.05368-0.20927
			l0.00534-0.22375l0.10077-0.19656l0.05174-0.21016l0.03042-0.21719l0.05442-0.21129l0.13116-0.19097l0.0326-0.21709
			l0.08244-0.20325l0.04371-0.21464l0.05961-0.20982l0.05623-0.21004l0.04562-0.21215l0.00852-0.2217l0.05375-0.20893
			l0.06805-0.20445l0.01028,0.22032l0.07971,0.20344l0.0844,0.2011l0.0592,0.20792l0.05167,0.21046l-0.0062,0.22633l0.07342,0.20512
			l0.05663,0.21089l0.08487,0.20442l0.04444,0.21531l0.10255,0.19877l0.04436,0.21599l0.0259,0.2209l0.08091,0.20466
			l0.07161,0.20681l0.0767,0.20476l0.01701,0.22283l0.07762,0.20374l0.03374,0.19377L106.997,9.6424l-0.21025-0.01151
			l-0.19852,0.08207l-0.20905-0.02563l-0.20596,0.02225L106.14299,9.69212z M108.02931,12.16718l0.0015-0.00046l0.01406,0.03815
			L108.02931,12.16718z"/>
	</g>
	<g>
		<polygon class="st0" points="100.46201,4.65134 100.29663,4.52903 100.21047,4.32111 100.12235,4.11844 100.0715,3.90144 
			99.92785,3.71105 99.93457,3.47855 99.91517,3.49098 99.84506,3.26833 99.81916,3.03616 99.75013,2.81391 99.63181,2.61084 
			99.60572,2.39062 99.47908,2.21404 99.37423,2.02942 99.26514,1.84817 99.16085,1.6642 99.04872,1.48317 98.90861,1.32273 
			98.78148,1.14468 98.59053,1.02857 98.40812,0.90543 98.20551,0.81513 98.04279,0.66089 97.83597,0.58219 97.63004,0.50721 
			97.43149,0.41639 97.2244,0.34717 97.0167,0.2767 96.81106,0.19423 96.59135,0.16881 96.38358,0.07873 96.16618,0.03407 
			95.9412,0.0608 95.72356,0.00442 95.50185,0 95.28145,0.05384 95.06313,0.08333 94.83918,0.04598 94.62448,0.10694 
			94.39938,0.09721 94.18105,0.13585 93.96884,0.20123 93.75669,0.26409 93.57449,0.37428 93.36903,0.41633 93.19141,0.52737 
			92.97745,0.56292 92.79804,0.67034 92.65332,0.8309 92.45704,0.9104 92.29663,1.04275 92.15418,1.20825 92.00483,1.36322 
			91.79964,1.47129 91.68307,1.65913 91.53087,1.81957 91.42199,2.0106 91.30695,2.19725 91.20379,2.39111 91.12074,2.5943 
			91.0862,2.81535 91.01601,3.02069 90.94127,3.22652 90.85318,3.433 90.85063,3.65313 90.86282,3.87207 90.85767,4.08735 
			90.85548,4.30224 90.80217,4.52308 90.84993,4.73722 90.89284,4.95082 90.97915,5.15186 91.03642,5.36116 91.16601,5.53973 
			91.24854,5.73853 91.32586,5.94387 91.46509,6.11106 91.60376,6.27668 91.75375,6.43175 91.86137,6.62607 92.0249,6.76959 
			92.15826,6.94531 92.34476,7.06403 92.48917,7.23711 92.70639,7.30761 92.87143,7.45767 93.07198,7.5492 93.26756,7.64886 
			93.46732,7.73775 93.65598,7.85089 93.86783,7.91666 94.04757,8.05015 94.27216,8.0879 94.46709,8.19226 94.65416,8.31506 
			94.86141,8.39226 95.05474,8.49922 95.25176,8.60159 95.45634,8.68114 95.66293,8.75662 95.87306,8.84486 96.05406,8.98703 
			96.25805,9.08725 96.45061,9.20702 96.62665,9.34919 96.77834,9.51929 96.98892,9.62923 97.09322,9.83881 97.2341,10.01388 
			97.38106,10.19427 97.4038,10.42849 97.47667,10.64248 97.50813,10.86734 97.47391,11.09122 97.47655,11.32145 97.33447,11.50601 
			97.25626,11.72326 97.09684,11.88894 96.87376,11.95954 96.671,12.0437 96.46944,12.13412 96.26707,12.24591 96.04562,12.2972 
			95.81557,12.25444 95.5939,12.29275 95.36517,12.25171 95.13344,12.277 94.89953,12.28326 94.68658,12.16921 94.46896,12.10853 
			94.25285,12.03897 94.05239,11.93268 93.87535,11.79137 93.686,11.65156 93.55531,11.45605 93.51099,11.22256 93.48502,11.01639 
			93.42397,10.8151 93.43171,10.60513 93.42253,10.39396 93.44193,10.18141 93.51019,9.97951 93.61461,9.83276 93.40482,9.77527 
			93.1852,9.79719 92.96633,9.83878 92.74773,9.7622 92.52879,9.82466 92.30885,9.76622 92.08939,9.81962 91.8699,9.7672 
			91.6497,9.76072 91.42989,9.78626 91.21021,9.79415 90.99094,9.80922 90.77049,9.80149 90.54971,9.78107 90.3283,9.81468 
			90.1042,9.792 90.25374,9.97085 90.34512,10.17601 90.45754,10.36965 90.53259,10.58033 90.65195,10.78208 90.67538,11.0128 
			90.63947,10.99896 90.72095,11.19549 90.79189,11.39202 90.80515,11.60221 90.86844,11.80082 90.91825,12.00312 
			90.98811,12.19932 91.14443,12.36561 91.17995,12.59014 91.3083,12.76693 91.40564,12.96226 91.53758,13.13565 91.67374,13.30456 
			91.82733,13.45805 91.97656,13.61422 92.14123,13.754 92.3121,13.87555 92.45486,14.03435 92.65369,14.11462 92.79632,14.28328 
			92.98508,14.37877 93.18085,14.45909 93.38493,14.51547 93.58029,14.59169 93.77068,14.68518 93.98634,14.76584 94.22084,14.7783 
			94.44756,14.80979 94.6595,14.91786 94.88847,14.93923 95.11849,14.93293 95.34627,14.96099 95.57592,15 95.8036,14.97188 
			96.02978,14.94193 96.25842,14.9454 96.48208,14.89948 96.70332,14.84549 96.93668,14.85568 97.14712,14.75439 97.37753,14.73736 
			97.57139,14.61225 97.77906,14.53874 98.01304,14.5253 98.21989,14.43889 98.41104,14.32177 98.61159,14.22158 98.79195,14.08865 
			98.95118,13.92932 99.10314,13.76253 99.31797,13.66484 99.42877,13.45956 99.57674,13.29302 99.73447,13.13178 
			99.87674,12.95643 99.99989,12.76684 100.0737,12.55082 100.16817,12.35776 100.28011,12.16915 100.26704,11.94106 
			100.37081,11.74521 100.38503,11.52814 100.41112,11.31439 100.41314,11.0992 100.44629,10.88582 100.44245,10.67023 
			100.44301,10.45427 100.47551,10.23254 100.35709,10.03205 100.33678,9.81659 100.25949,9.61496 100.19856,9.40889 
			100.15541,9.1913 100.00127,9.02746 99.89056,8.83786 99.78258,8.64508 99.65286,8.46626 99.53368,8.27642 99.36315,8.13207 
			99.23289,7.94693 99.05806,7.8081 98.85812,7.70236 98.68731,7.56194 98.49281,7.45448 98.33679,7.28923 98.13737,7.18975 
			97.95049,7.07023 97.74158,6.98981 97.55473,6.86977 97.35626,6.77106 97.15553,6.67514 96.98312,6.52048 96.77723,6.43405 
			96.57971,6.33034 96.37585,6.24053 96.16201,6.17236 95.9745,6.04937 95.7599,5.9835 95.54219,5.9226 95.36705,5.77957 
			95.18915,5.6463 94.97028,5.58249 94.77629,5.47313 94.60189,5.33482 94.43148,5.19182 94.25852,5.05027 94.12185,4.87283 
			94.06565,4.64668 93.95036,4.45868 93.90177,4.2438 93.90395,4.02471 93.89861,3.80669 93.88839,3.57474 94.02489,3.38855 
			94.14265,3.20314 94.26952,3.01716 94.46954,2.91367 94.65778,2.79955 94.87224,2.74669 95.08421,2.6978 95.29814,2.62552 
			95.52196,2.60154 95.75695,2.64955 95.99289,2.65547 96.23245,2.66889 96.42987,2.8137 96.67573,2.85406 96.83772,3.03377 
			97.01848,3.18981 97.11971,3.39006 97.2546,3.5748 97.30559,3.79598 97.33775,4.02029 97.26651,4.24048 97.27023,4.46414 
			97.19714,4.6852 97.41832,4.65586 97.63518,4.64303 97.85178,4.6976 98.06872,4.6569 98.28667,4.67654 98.50414,4.65064 
			98.7216,4.65036 98.93977,4.64818 99.15759,4.67286 99.37524,4.63618 99.59252,4.70561 99.81097,4.67792 100.02972,4.69539 
			100.24752,4.64738 		"/>
	</g>
</g>
</svg>
