<?xml version="1.0" encoding="utf-8"?>
<!-- Generator: Adobe Illustrator 21.1.0, SVG Export Plug-In . SVG Version: 6.00 Build 0)  -->
<svg version="1.1" id="レイヤー_1" xmlns="http://www.w3.org/2000/svg" xmlns:xlink="http://www.w3.org/1999/xlink" x="0px"
	 y="0px" viewBox="0 0 149 18" style="enable-background:new 0 0 149 18;" xml:space="preserve">
<style type="text/css">
	.st0{fill:#562608;}
</style>
<g>
	<path class="st0" d="M34.88696,2.39673c-0.04053-0.14368-0.0611-0.30792-0.11853-0.45721
		c-0.05402-0.14032-0.17279-0.26556-0.25293-0.40369c-0.07489-0.12921-0.15161-0.27441-0.25781-0.39581
		c-0.09705-0.11078-0.25323-0.17572-0.38312-0.27582c-0.11542-0.08887-0.25507-0.14966-0.40118-0.22681
		c-0.1283-0.06787-0.23358-0.21564-0.38892-0.27228c-0.1369-0.04987-0.30054-0.05713-0.46039-0.09686
		c-0.14185-0.03528-0.2984-0.04309-0.46014-0.06921c-0.1452-0.02362-0.29224-0.10681-0.45428-0.1225
		c-0.1474-0.0141-0.31067,0.11267-0.47272,0.10577c-0.14825-0.00647-0.29962-0.09851-0.46106-0.09851
		c-0.22931,0-0.22931-0.06464-0.45892-0.06464s-0.22961,0.00195-0.45886,0.00195c-0.22931,0-0.22931,0.02277-0.45862,0.02277
		c-0.22961,0-0.22961,0.13519-0.45892,0.13519s-0.22931-0.15149-0.45856-0.15149c-0.1922,0-0.1922,0.01044-0.38434,0.01044
		s-0.19214,0.06091-0.38428,0.06091c-0.26154,0-0.26154,0.04803-0.52307,0.04803c-0.26184,0-0.26184-0.06274-0.52338-0.06274
		c-0.26184,0-0.26184-0.05774-0.52338-0.05774c-0.07825,0-0.07825,0.06573-0.15656,0.06573
		c-0.14795,0-0.15436-0.05481-0.27747,0.02777c-0.19244,0.12909,0.12402,0.10437,0.20752,0.38818
		c0.03687,0.12518-0.03473,0.30615,0.00519,0.47931c0.03168,0.13751,0.0531,0.28931,0.08197,0.45441
		c0.02484,0.14319,0.11725,0.28564,0.13721,0.448c0.01813,0.14661,0.08197,0.29852,0.09393,0.45953
		c0.00244,0.04126-0.151,0.09009-0.14856,0.13165c0.00153,0.02551,0.10437,0.04578,0.10559,0.07172
		c0.00861,0.15497,0.00586,0.31262,0.01349,0.47119c0.00769,0.15527,0.08624,0.30908,0.09302,0.46765
		c0.00677,0.15546-0.03314,0.31458-0.02734,0.47314c0.00586,0.15564-0.03619,0.31433-0.03125,0.47272
		c0.00488,0.15576,0.04755,0.31171,0.05151,0.46997c0.00403,0.15588-0.10834,0.31555-0.10492,0.47375
		c0.00305,0.15613,0.06659,0.31171,0.06903,0.46979c0.00244,0.15625-0.02087,0.31342-0.01935,0.4715
		c0.00153,0.15625-0.00616,0.31311-0.00549,0.47101c0.00092,0.15643,0.09668,0.31311,0.09668,0.47107
		c0,0.15472-0.0611,0.30847-0.06201,0.46149c-0.00061,0.15485,0.0224,0.30884,0.02087,0.46185
		c-0.00183,0.15466-0.07001,0.30756-0.07245,0.46039c-0.00244,0.15503,0.08472,0.31018,0.08167,0.46307
		c-0.00305,0.15497,0.0611,0.31061,0.05707,0.46332c-0.00397,0.15503-0.17645,0.30408-0.1814,0.4566
		c-0.00458,0.15503,0.0083,0.30896,0.00244,0.46136c-0.00549,0.15521,0.0863,0.31262,0.07983,0.4649
		c-0.00647,0.15515,0.0448,0.31189,0.03741,0.46411c-0.00732,0.15533-0.14948,0.30219-0.15778,0.45416
		c-0.00854,0.15527,0.03687,0.31201,0.02765,0.46381c-0.01288,0.1496,0.02393,0.30023,0.00549,0.43616
		c-0.0202,0.15076-0.08191,0.28888-0.10651,0.42163c-0.0285,0.15314-0.07642,0.29114-0.10712,0.4187
		c-0.03864,0.16052-0.07306,0.30139-0.10864,0.41742c-0.08014,0.26324-0.34137,0.29712-0.15747,0.40979
		c0.12646,0.07733,0.15222-0.02374,0.30017-0.02374c0.05499,0,0.05499-0.04742,0.10992-0.04742
		c0.23846,0,0.23846,0.01288,0.47699,0.01288s0.23853,0.13257,0.47705,0.13257c0.23846,0,0.23883-0.16821,0.47699-0.16833
		c0.14978-0.00018,0.27747,0.06372,0.41589,0.10864c0.20874,0.06818,0.39203,0.01672,0.59802,0.01923
		c0.20013,0.00244,0.35785,0.09357,0.56323,0.03711c0.22406-0.06152-0.12769-0.21393-0.20508-0.508
		c-0.03284-0.12482,0.00525-0.29285-0.02789-0.47028c-0.02551-0.13739-0.07031-0.28589-0.09149-0.45459
		c-0.01813-0.14294-0.06293-0.29425-0.0752-0.45972c-0.01105-0.14575-0.02979-0.30096-0.03503-0.46423
		c-0.00458-0.14777,0.05347-0.30328,0.05469-0.46533c0.00153-0.14886-0.03992-0.3045-0.03259-0.46539
		c0.00067-0.01624,0.05682,0.05103,0.05743,0.03485c0.008-0.17139-0.07184-0.34839-0.06506-0.5238
		c0.00641-0.17157,0.00275-0.34521,0.00861-0.52032c0.00555-0.17218,0.09912-0.32092,0.10376-0.49585
		c0.13165-0.04529,0.24951-0.06738,0.38953-0.12128c0.13104-0.0506,0.22498-0.20428,0.36188-0.26227
		c0.13013-0.05524,0.31036-0.00659,0.44446-0.0686c0.12897-0.05969,0.2207-0.20428,0.35211-0.27026
		c0.12769-0.06403,0.26917-0.10468,0.39783-0.1745c0.12585-0.0683,0.2735-0.10303,0.39966-0.1767
		c0.12366-0.07257,0.20288-0.22131,0.32599-0.29926c0.12152-0.0769,0.30267-0.06604,0.42267-0.14813
		c0.11877-0.08136,0.25385-0.14655,0.37048-0.23309c0.11572-0.08612,0.14886-0.28137,0.26154-0.37238
		c0.11237-0.091,0.20813-0.19843,0.31647-0.29437c0.10834-0.09607,0.28455-0.11847,0.388-0.21948
		c0.11328-0.11078,0.25446-0.19751,0.35419-0.31152c0.10413-0.11945,0.06384-0.35059,0.15381-0.47229
		c0.09454-0.12738,0.2428-0.20886,0.32233-0.33746c0.0838-0.13495,0.10315-0.29761,0.17188-0.43219
		c0.07245-0.14166,0.25232-0.22858,0.30945-0.36823c0.06079-0.14746,0.10065-0.30188,0.14606-0.44525
		c0.04852-0.15271,0.0777-0.30835,0.11084-0.45386c0.03589-0.1579,0.07275-0.31152,0.09332-0.45776
		c0.02301-0.16302-0.08899-0.32721-0.08197-0.47168c0.00861-0.17065,0.11176-0.32306,0.10315-0.46057
		C34.89923,2.67773,34.9176,2.50641,34.88696,2.39673z M32.04517,4.32635c-0.04303,0.14111-0.07373,0.32001-0.15967,0.47229
		c-0.07367,0.12994-0.24585,0.21625-0.35699,0.349c-0.09668,0.11523-0.18756,0.25385-0.31677,0.36755
		c-0.1142,0.10071-0.24005,0.19122-0.36249,0.28229c-0.1225,0.09113-0.30823,0.08594-0.43652,0.16693
		c-0.13013,0.08197-0.23761,0.19116-0.37079,0.26202c-0.1366,0.07275-0.2431,0.20044-0.38031,0.26093
		c-0.14276,0.06293-0.28607,0.12018-0.42639,0.16925c-0.14886,0.05206-0.28729,0.05713-0.42975,0.0929
		c-0.00055-0.14734,0.01965-0.27472,0.01813-0.42053c-0.00153-0.14716-0.04083-0.29333-0.04297-0.43896
		c-0.00214-0.14716-0.06873-0.29236-0.07153-0.43787c-0.00305-0.14734,0.10162-0.29608,0.09827-0.44153
		c-0.00372-0.1474-0.03442-0.29315-0.0387-0.43854c-0.00427-0.14746,0.04694-0.29578,0.04175-0.44092
		c-0.00494-0.14752-0.01691-0.29407-0.02271-0.43896c-0.00616-0.14764-0.02362-0.29376-0.0304-0.43866
		c-0.00677-0.14764-0.04449-0.20673-0.05219-0.35156c0.2486-0.07062,0.2345-0.01367,0.49298-0.01367
		c0.25873,0,0.25873-0.07495,0.51721-0.07495c0.25879,0,0.25879,0.02014,0.51721,0.02014c0.18262,0,0.34534-0.01276,0.49023-0.00507
		c0.19153,0.00995,0.36676-0.06445,0.5025-0.04266c0.20966,0.03345,0.33362,0.19305,0.44385,0.24835
		c0.19244,0.0965,0.31061,0.1825,0.37048,0.31445c0.04852,0.10712,0.10193,0.28949,0.09546,0.49066
		C32.13043,3.98138,32.0979,4.1546,32.04517,4.32635z"/>
	<path class="st0" d="M44.46094,11.33911c-0.12433,0.03101-0.25476,0.16345-0.4267,0.19373
		c-0.13629,0.02405-0.30969-0.1084-0.47333-0.08984c-0.14178,0.01617-0.28638,0.07751-0.4469,0.08661
		c-0.14459,0.00793-0.29535,0.0827-0.45398,0.0827c-0.22595,0-0.22595-0.00934-0.45184-0.00934
		c-0.22626,0-0.22626-0.11572-0.45215-0.11572c-0.22595,0-0.22595,0.04712-0.45215,0.04712
		c-0.22595,0-0.22595,0.03345-0.45215,0.03345c-0.22595,0-0.22595,0.06567-0.45184,0.06567
		c-0.22626,0-0.22595-0.06842-0.45184-0.05786c-0.2226,0.01025-0.22559,0.0238-0.4408-0.04498
		c0.00708-0.14197-0.02271-0.24921-0.0163-0.3938c0.00647-0.14209,0.12952-0.28076,0.13538-0.42529
		c0.00555-0.14227-0.08099-0.28931-0.07611-0.4339c0.00488-0.14227-0.00739-0.28619-0.00336-0.43066
		c0.00427-0.1424,0.0282-0.28528,0.03162-0.42975c0.00336-0.14258-0.06848-0.28741-0.06567-0.43188
		c0.00275-0.14258-0.01202-0.28607-0.00989-0.43036c0.0022-0.1427,0.03687-0.28546,0.03839-0.42969
		c0.00122-0.14276-0.00891-0.28613-0.0083-0.43036c0.00061-0.14294-0.00519-0.28607-0.00519-0.43036
		c0-0.15411,0.05585-0.30731,0.05493-0.45984c-0.00061-0.15405-0.02856-0.30713-0.03009-0.45953
		c-0.00153-0.15411,0.10437-0.30878,0.10223-0.46118c-0.00244-0.15424-0.06909-0.30652-0.07214-0.45874
		c-0.00336-0.15424-0.04449-0.30652-0.04822-0.45862c-0.00397-0.15442,0.00372-0.30774-0.00122-0.45984
		c-0.00458-0.15436,0.03534-0.30908,0.02979-0.46106c-0.00555-0.15436-0.01227-0.30756-0.01868-0.45917
		c-0.00647-0.15454-0.08167-0.30481-0.08905-0.45642c0-0.00171-0.03931-0.00171-0.03931-0.00342
		c-0.00092-0.00781,0.10773-0.01105,0.10681-0.01898c-0.00763-0.15857-0.00702-0.31653-0.01562-0.47211
		c-0.0083-0.159-0.04852-0.31451-0.05804-0.46967c-0.00952-0.1593,0.07367-0.32001,0.06323-0.47455
		c-0.00061-0.1452-0.03955-0.27472-0.03497-0.39886c0.00525-0.14935,0.01965-0.28058,0.03009-0.40033
		c0.01349-0.15851-0.08289-0.30554-0.06598-0.41498c0.04205-0.26965,0.3186-0.28455,0.13751-0.37372
		C39.44617,0.03802,39.43665,0,39.2887,0c-0.09668,0-0.09668,0.12659-0.19342,0.12659c-0.23938,0-0.23938-0.00903-0.47882-0.00903
		s-0.23944,0.01227-0.47882,0.01227c-0.23944,0-0.23944,0.01459-0.47888,0.01459s-0.23944-0.12769-0.47913-0.12769
		c-0.23944,0-0.23944,0.06262-0.47888,0.06262c-0.07825,0-0.07825-0.07721-0.15686-0.07721
		c-0.14795,0-0.12494,0.07904-0.24768,0.16144c-0.1925,0.12909,0.05829,0.07123,0.14148,0.35468
		c0.03687,0.12512-0.02332,0.30066,0.01624,0.47351c0.03168,0.13721,0.08203,0.28223,0.11084,0.4472
		c0.0249,0.14294,0.18048,0.27734,0.20074,0.43939c0.01782,0.1463,0.00861,0.3067,0.02087,0.46741
		c0.0025,0.04736-0.10284,0.09973-0.10004,0.14764c0.00092,0.01562,0.08777,0.02655,0.08868,0.04205
		c0.00861,0.15546-0.02515,0.31525-0.01721,0.47437c0.00769,0.15582-0.0144,0.31464-0.00732,0.47363
		c0.00677,0.15613,0.10345,0.31006,0.10956,0.46906c0.00586,0.15607-0.1062,0.31769-0.10126,0.47656
		c0.00488,0.15625,0.11658,0.31079,0.12091,0.46948c0.00397,0.15656-0.00244,0.31464,0.00061,0.47333
		c0.00336,0.15649-0.08899,0.31586-0.08655,0.47455c0.00244,0.15668,0.0144,0.31403,0.01599,0.47253
		c0.00146,0.15674,0.09021,0.3139,0.09082,0.47229c0.00092,0.15698-0.05829,0.31494-0.05829,0.47333
		c0,0.15472,0.0451,0.30865,0.04449,0.46179c-0.00098,0.15454-0.06171,0.30804-0.06323,0.46106
		c-0.00159,0.15472,0.00671,0.30865,0.00427,0.46155c-0.00244,0.15485,0.02399,0.3092,0.02087,0.46191
		c-0.00305,0.15503,0.0141,0.30945,0.01013,0.46216c-0.00397,0.15503-0.08319,0.30664-0.08777,0.45935
		c-0.00494,0.15503,0.11261,0.31293,0.10681,0.46533c-0.00555,0.15521-0.06506,0.30713-0.07153,0.45935
		c-0.00647,0.15521,0.05127,0.31238,0.04388,0.46448c-0.00763,0.15527-0.17249,0.30078-0.18079,0.4527
		c-0.00861,0.15533-0.04083,0.30591-0.05035,0.4577c-0.01257,0.14966,0.0636,0.29962,0.04517,0.43555
		c-0.02026,0.15076-0.13263,0.27661-0.15717,0.40936c-0.02826,0.15332,0.1059,0.32904,0.0752,0.45642
		c-0.0387,0.16071-0.20569,0.26599-0.24097,0.38202c-0.08044,0.26306-0.31067,0.36389-0.12708,0.47656
		c0.12616,0.07733,0.1817-0.03778,0.32965-0.03778c0.05499,0,0.05499-0.02502,0.10992-0.02502
		c0.1897,0,0.1897,0.01904,0.37909,0.01904c0.18964,0,0.18964-0.00476,0.37939-0.00476c0.1897,0,0.1897,0.01782,0.37909,0.01782
		c0.24957,0,0.24957,0.03882,0.49908,0.03882c0.24957,0,0.24957-0.0531,0.49915-0.0531c0.24951,0,0.24951-0.0545,0.49908-0.0545
		c0.22498,0,0.22498,0.13434,0.45032,0.13434c0.22498,0,0.22498-0.05853,0.44995-0.05853c0.22534,0,0.22534-0.0979,0.45038-0.0979
		c0.22528,0,0.22528-0.01825,0.45026-0.01825c0.22534,0,0.22534,0.16852,0.45032,0.16852s0.22498-0.06781,0.45032-0.06781
		c0.22498,0,0.22498-0.08978,0.45032-0.08978c0.22498,0,0.22498,0.06641,0.45026,0.06641c0.22504,0,0.22504-0.02405,0.45038-0.02405
		c0.22498,0,0.22498,0.06073,0.45026,0.06073c0.22504,0,0.22504-0.09558,0.45032-0.09558s0.21857,0.05603,0.43896,0.01044
		c0-0.09332-0.01843-0.20612-0.01355-0.42389c0.00342-0.14105-0.0528-0.30579-0.04633-0.48151
		c0.00549-0.15082,0.1286-0.30707,0.13751-0.47412c0.0083-0.15546-0.01996-0.31812-0.00861-0.48035
		c0.01111-0.15881,0.07153-0.31506,0.08624-0.47363c0.01508-0.16193,0.078-0.31512,0.09705-0.46967
		c0.01471-0.11664-0.04053-0.23999-0.02332-0.349C44.90973,11.22876,44.74243,11.26929,44.46094,11.33911z"/>
	<path class="st0" d="M49.76514,2.90149c0.23944,0,0.23944,0.08716,0.47888,0.08716c0.23938,0,0.23938,0.05511,0.47882,0.05511
		s0.23944-0.02533,0.47888-0.02533s0.23944-0.06171,0.47882-0.06171c0.23975,0,0.23975-0.01349,0.47919-0.01349
		c0.23938,0,0.23938,0.10681,0.47888,0.10681c0.15985,0,0.31183-0.05676,0.45825-0.04865
		c0.16174,0.00903,0.31891-0.02686,0.46228-0.01062c0.16516,0.01874,0.32111,0.02661,0.45917,0.05066
		c0.17316,0.0304,0.29901,0.17621,0.42487,0.20703c0.28363,0.06952,0.25568,0.16595,0.47241,0.08984
		c-0.01721-0.10913-0.07001-0.25757-0.08472-0.37451c-0.01935-0.15442,0.08038-0.32599,0.06537-0.48792
		c-0.01508-0.15857-0.11938-0.31036-0.13049-0.46918c-0.01166-0.16211-0.03802-0.32184-0.04633-0.47729
		c-0.00861-0.16687,0.00427-0.32892-0.00122-0.47968c-0.00671-0.1759-0.08624-0.33594-0.08929-0.47717
		c-0.00494-0.21759,0.04694-0.30109,0.04694-0.39429c-0.22931-0.04553-0.21667-0.03143-0.45032-0.03143
		c-0.23389,0-0.23389,0.01123-0.46777,0.01123s-0.23389,0.00629-0.46783,0.00629c-0.23389,0-0.23389-0.05621-0.46747-0.05621
		c-0.23389,0-0.23389,0.02673-0.46783,0.02673c-0.23389,0-0.23389-0.10791-0.46777-0.10791S51.65295,0.091,51.41907,0.091
		c-0.23395,0-0.23395,0.03748-0.46753,0.03748c-0.23389,0-0.23389-0.01184-0.46777-0.01184
		c-0.23395,0-0.23395-0.04529-0.46783-0.04529s-0.23389,0.00061-0.46808,0.00061c-0.23395,0-0.23395,0.0683-0.46783,0.0683
		c-0.20782,0-0.20782,0.04065-0.41565,0.04065c-0.20776,0-0.20776-0.10925-0.41589-0.10925
		c-0.20782,0-0.20782-0.00848-0.41595-0.00848c-0.27258,0-0.27258,0.03131-0.54541,0.03131
		c-0.27258,0-0.27258-0.09357-0.54547-0.09357c-0.07831,0-0.07831,0.04138-0.15656,0.04138
		c-0.14825,0-0.20447-0.07916-0.32751,0.00342c-0.19214,0.12891,0.15253,0.18463,0.23602,0.46826
		c0.03656,0.12494,0.03314,0.28851,0.07275,0.46136c0.03162,0.13721-0.04053,0.30756-0.01166,0.47241
		c0.02484,0.14288,0.17279,0.27582,0.19275,0.43787c0.01813,0.14624,0.0249,0.30237,0.03687,0.46301
		c0.00305,0.04742,0.01843,0.09229,0.02118,0.14014c0.00092,0.01581,0.01624,0.03088,0.01691,0.0462
		c0.00885,0.15564-0.11053,0.3197-0.10254,0.47882c0.00763,0.15582,0.07764,0.31006,0.08435,0.46906
		c0.00677,0.15607-0.06415,0.31647-0.05798,0.47534c0.00586,0.15607,0.18726,0.30756,0.19214,0.46643
		c0.00525,0.15625-0.03345,0.31555-0.02948,0.47424c0.00403,0.15656-0.0957,0.31647-0.09235,0.47516
		c0.00305,0.15656,0.02606,0.31354,0.0285,0.47229c0.0025,0.15668,0.13843,0.31274,0.14001,0.47131
		c0.00153,0.15668-0.0224,0.31506-0.02148,0.47363c0.00061,0.1568-0.10773,0.31494-0.10773,0.47333
		c0,0.15472,0.08563,0.30878,0.08502,0.46179c-0.00092,0.15472-0.04419,0.30835-0.04578,0.46136
		c-0.00153,0.15472-0.03284,0.30823-0.03497,0.46106c-0.00244,0.15485,0.08533,0.31049,0.08228,0.4632
		c-0.00311,0.15503-0.12402,0.30615-0.12799,0.45892c-0.00403,0.15497,0.09882,0.31183,0.09393,0.46442
		c-0.00464,0.15503-0.02032,0.30865-0.02582,0.46118c-0.00549,0.15503-0.10681,0.30493-0.11328,0.4574
		c-0.00641,0.15515-0.00366,0.30908-0.01099,0.46118c-0.00745,0.15533,0.07178,0.31335,0.06348,0.46533
		c-0.00854,0.15533-0.07703,0.30524-0.08655,0.45703c-0.01257,0.14954,0.01691,0.29791-0.00153,0.4339
		c-0.01996,0.15076-0.10223,0.28369-0.12677,0.41638c-0.02826,0.15332-0.04852,0.29517-0.07916,0.42267
		c-0.0387,0.16077-0.04944,0.30743-0.08508,0.42346c-0.08038,0.26306-0.32043,0.26263-0.1369,0.37512
		c0.12646,0.07751,0.1311,0.07013,0.27936,0.07013c0.05463,0,0.05463-0.12262,0.10956-0.12262
		c0.1897,0,0.1897,0.05328,0.37909,0.05328c0.1897,0,0.1897-0.06476,0.37939-0.06476s0.1897,0.15698,0.37939,0.15698
		c0.20782,0,0.20782,0.02362,0.41565,0.02362c0.20813,0,0.20813-0.09222,0.41589-0.09222c0.20782,0,0.20782,0.091,0.41595,0.091
		c0.23358,0,0.23358-0.16852,0.46753-0.16852c0.23389,0,0.23389,0.13263,0.46777,0.13263s0.23389,0.01288,0.46777,0.01288
		c0.23364,0,0.23364-0.0473,0.46753-0.0473s0.23389-0.02502,0.46777-0.02502c0.23395,0,0.23395,0.01904,0.46783,0.01904
		s0.23389-0.00476,0.46777-0.00476c0.23364,0,0.23364,0.01782,0.46753,0.01782S53.05542,14.5,53.28931,14.5
		s0.23389-0.0531,0.46783-0.0531c0.23389,0,0.23389-0.0545,0.46777-0.0545c0.23425,0,0.25635,0.17834,0.48566,0.13263
		c0-0.09332,0.01562-0.34888,0.02051-0.56665c0.00336-0.14105-0.0899-0.30615-0.08344-0.48193
		c0.0058-0.1507-0.00525-0.31372,0.00336-0.48065c0.0083-0.15552,0.18597-0.3056,0.19733-0.46783
		c0.01141-0.15887-0.04352-0.32355-0.0285-0.48206c0.01501-0.16193-0.05713-0.33258-0.03778-0.4873
		c0.01477-0.11664,0.09607-0.22314,0.11328-0.33228c0,0-0.14246,0.0918-0.42603,0.16132
		c-0.12585,0.03082-0.28949,0.00409-0.46265,0.03436c-0.13782,0.02423-0.27747,0.14148-0.44263,0.16022
		c-0.14331,0.0163-0.30048,0.02087-0.46228,0.02979c-0.14636,0.0083-0.30328-0.01239-0.46313-0.01239
		c-0.2395,0-0.2395,0.06091-0.47888,0.06091c-0.23944,0-0.23944-0.11603-0.47888-0.11603c-0.23914,0-0.23914,0.0379-0.47852,0.0379
		c-0.23944,0-0.23944-0.04761-0.47888-0.04761c-0.23938,0-0.23938-0.04614-0.47913-0.04614
		c-0.23944,0-0.23944,0.07117-0.47888,0.07117s-0.24585,0.06567-0.47302-0.01025c0.008-0.15765-0.07275-0.30219-0.06567-0.46307
		c0.00702-0.15778,0.16974-0.31079,0.17584-0.47162c0.00616-0.15796-0.03711-0.3194-0.03186-0.4801
		c0.00519-0.15808-0.06049-0.31952-0.05621-0.48022c0.00433-0.1582,0.01721-0.31726,0.02057-0.47791
		c0.00336-0.15839,0.06879-0.24127,0.07153-0.40179c0.20721-0.07526,0.19275-0.04242,0.41315-0.04242
		c0.22046,0,0.22046-0.03345,0.4408-0.03345c0.2204,0,0.2204-0.06567,0.4411-0.06567c0.2204,0,0.2204,0.05774,0.4411,0.05786
		c0.00031,0-0.00153,0.06293-0.00122,0.06293c0.15869,0,0.31036-0.04346,0.4552-0.03546
		c0.16052,0.00909,0.31836-0.03839,0.46014-0.02222c0.16364,0.01868,0.31958,0.03113,0.45612,0.05518
		c0.17163,0.03027,0.28888,0.21094,0.41321,0.24176c0.28143,0.07001,0.30481,0.22192,0.41498,0.02271
		c0.08228-0.14905-0.02887-0.14703-0.02887-0.31708c0-0.18311-0.00214-0.18311-0.00214-0.36603
		c0-0.18311,0.06476-0.18311,0.06476-0.36603c0-0.23578,0.08875-0.23578,0.08875-0.4715s-0.13782-0.23572-0.13782-0.4715
		c0-0.15393,0.05676-0.29425,0.07703-0.44464c0.02673-0.1972,0.01196-0.40424,0.01196-0.60394
		c0-0.10114,0.05835-0.43494-0.0061-0.51093c-0.12805-0.15009-0.30945,0.1076-0.46448,0.1463
		c-0.12427,0.03094-0.26215,0.12384-0.43372,0.15405c-0.13629,0.02411-0.29248,0.02673-0.45612,0.04529
		c-0.14185,0.01611-0.29193,0.08533-0.45245,0.09436c-0.1449,0.008-0.30145-0.01746-0.46014-0.01746
		c-0.00153,0,0.00397,0.01978,0.0025,0.01978c-0.22046,0.00012-0.22076-0.16418-0.44116-0.16418
		c-0.2207,0-0.2207,0.13995-0.44141,0.13995s-0.2207,0.00134-0.44141,0.00134s-0.24799,0.06006-0.45551-0.01501
		c-0.00244-0.16052-0.02521-0.35822-0.0282-0.5166c-0.00342-0.16071,0.01221-0.32043,0.00824-0.4787
		c-0.00427-0.16071,0.04053-0.32172,0.03558-0.4798c-0.00519-0.16083-0.05768-0.31879-0.06378-0.47668
		c-0.00586-0.16083-0.08105-0.31708-0.08783-0.47504c-0.00708-0.16083,0.05066-0.36835,0.04266-0.52594
		C49.49841,2.84009,49.5257,2.90149,49.76514,2.90149z"/>
	<path class="st0" d="M2.82465,14.42804c-0.00024,0.00189,0.03296-0.02191,0.0498-0.03467
		c-0.02625,0.00616-0.07104,0.02075-0.07007,0.00964C2.80377,14.4104,2.82526,14.42065,2.82465,14.42804z"/>
	<path class="st0" d="M24.32361,13.60693c-0.06018-0.12524-0.13531-0.25891-0.2038-0.41315
		c-0.05804-0.13092-0.10986-0.27521-0.17249-0.42731c-0.0556-0.13477-0.23029-0.23163-0.28827-0.38281
		c-0.0528-0.13751-0.0083-0.31903-0.06262-0.47021c-0.04944-0.13812-0.09052-0.28058-0.14026-0.42145
		c-0.04883-0.13861-0.14459-0.26215-0.19342-0.4032c-0.04816-0.13892-0.15472-0.25922-0.20288-0.40057
		c-0.0473-0.13922,0.00647-0.31403-0.04083-0.45538c-0.04663-0.13965-0.1062-0.27594-0.15253-0.4176
		c-0.04578-0.14014-0.15039-0.26215-0.19586-0.40411c-0.0448-0.14044-0.11359-0.2746-0.15808-0.41669
		c-0.04388-0.14075-0.03497-0.29901-0.07825-0.44141C22.39136,8.4118,22.43219,8.245,22.39014,8.10223
		c-0.04205-0.14148-0.09521-0.27991-0.13605-0.42279c-0.04077-0.14203-0.04907-0.29303-0.08868-0.43634
		c-0.04083-0.14661-0.14673-0.27417-0.18536-0.41931c-0.03961-0.14703-0.12341-0.28149-0.16119-0.427
		c-0.03802-0.14734-0.02728-0.30634-0.06384-0.45197c-0.0368-0.14783-0.05402-0.29913-0.08929-0.44513
		c-0.03564-0.14807-0.06323-0.29663-0.09735-0.44287c-0.03467-0.14844-0.05615-0.29828-0.08929-0.44464
		c-0.03345-0.14862-0.0675-0.29559-0.09949-0.44202c-0.03253-0.14905-0.20135-0.26752-0.23236-0.41412
		c-0.03162-0.14929,0.09827-0.33105,0.06818-0.4776c-0.0307-0.14966-0.07922-0.28979-0.10864-0.43652
		c-0.00128-0.00964,0.04352,0.02014,0.04199,0.01031c-0.03278-0.16205-0.11664-0.30853-0.14087-0.45355
		c-0.02765-0.16516-0.02948-0.32043-0.04694-0.46442c-0.02087-0.16913-0.09583-0.31738-0.10498-0.45935
		c-0.01111-0.17548-0.03961-0.33197-0.03748-0.46906c0.00305-0.18848,0.1087-0.3335,0.12677-0.45764
		c0.04785-0.32788,0.29651-0.39478,0.0755-0.47229c-0.13782-0.04846-0.29315,0.00183-0.43311-0.00134
		c-0.2207-0.00525-0.43829-0.05542-0.65936-0.05542c-0.23633,0-0.23633,0.00195-0.47241,0.00195
		c-0.23602,0-0.23602,0.02289-0.47235,0.02289c-0.23608,0-0.23608,0.13495-0.47211,0.13495
		c-0.23608,0-0.23608-0.15137-0.47211-0.15137c-0.00031,0-0.00031,0.01044-0.00031,0.01044
		c-0.06659,0-0.06659,0.06091-0.13324,0.06091c-0.03009,0-0.03009,0.04803-0.06049,0.04803
		c-0.21027,0-0.22467-0.13196-0.42328-0.06226c-0.22101,0.07764,0.01721,0.13672,0.06537,0.46454
		c0.01813,0.12415,0.09668,0.26862,0.09979,0.45709c0.00214,0.13721,0.03223,0.29468,0.02087,0.47021
		c-0.00922,0.14185,0.02332,0.30457,0.00244,0.47382c-0.01752,0.1441-0.15442,0.28284-0.18201,0.448
		c-0.02423,0.1449-0.06201,0.29791-0.09515,0.45996c-0.00122,0.00983,0.0835-0.0155,0.08228-0.0058
		c-0.02954,0.14673-0.01233,0.30664-0.04297,0.45612c-0.03009,0.14673-0.21429,0.26263-0.24591,0.41193
		c-0.03101,0.14661,0.03656,0.31573,0.00372,0.46478c-0.03198,0.14636-0.07587,0.29175-0.10931,0.44049
		c-0.03314,0.14624,0.00244,0.30981-0.03223,0.45825c-0.03406,0.14624-0.1142,0.28314-0.15015,0.43127
		c-0.03528,0.14594-0.11755,0.28143-0.15436,0.42926c-0.03656,0.14581-0.03687,0.30176-0.0752,0.4491
		c-0.03748,0.14563-0.18817,0.26215-0.22748,0.40918c-0.039,0.14514-0.0199,0.30664-0.06073,0.45319
		c-0.03961,0.14325-0.10413,0.27863-0.14496,0.42053c-0.04083,0.14307-0.09082,0.28229-0.13287,0.42377
		c-0.04205,0.14276,0.00677,0.31189-0.03595,0.45306c-0.04327,0.14246-0.14514,0.26611-0.18903,0.40686
		c-0.04449,0.14215-0.06604,0.29059-0.11115,0.43097c-0.04541,0.14185-0.15411,0.26221-0.19983,0.40216
		c-0.04639,0.14166-0.00769,0.3103-0.05432,0.44983c-0.04724,0.14148-0.0307,0.30389-0.078,0.44312
		c-0.04816,0.14117-0.25568,0.2265-0.30383,0.36542c-0.04883,0.14105-0.08075,0.2865-0.12958,0.42511
		c-0.04968,0.14093-0.00708,0.31323-0.05646,0.45154c-0.05402,0.151-0.05341,0.31696-0.1062,0.45447
		c-0.05804,0.15118-0.23975,0.24512-0.29529,0.37988c-0.06232,0.15192-0.07306,0.31433-0.1311,0.44537
		c-0.06812,0.15411-0.08502,0.31708-0.14514,0.44232c-0.0777,0.16144-0.18298,0.28284-0.24286,0.39624
		c-0.14148,0.26788-0.40118,0.21643-0.24402,0.38556c0.07123,0.0769,0.1001-0.0069,0.20477-0.0069
		c0.04327,0,0.04327,0.01904,0.08655,0.01904c0.23755,0,0.23755-0.02484,0.47485-0.02484c0.23761,0,0.23761-0.04742,0.47516-0.04742
		c0.23761,0,0.23761,0.01288,0.47485,0.01288c0.23761,0,0.23761,0.13257,0.47485,0.13257c0.23761,0,0.23761-0.16833,0.47491-0.16833
		c0.01685,0,0.01685,0.09088,0.03345,0.09088c0.24371,0,0.2287-0.02216,0.46289-0.08887
		c0.23541-0.06708-0.10223-0.0387-0.08655-0.40167c0.00549-0.12958,0.17645-0.27271,0.20776-0.46936
		c0.0224-0.14087-0.01105-0.30878,0.03009-0.48895c0.03284-0.14459,0.12402-0.28705,0.17157-0.45923
		c0.04053-0.14594-0.03094-0.33612,0.02185-0.50342c0.00458-0.01501,0.00488,0.01569-0.00061,0.0304
		c0.00397-0.01257,0.03619-0.00122,0.04047-0.01398c0.15906,0.0459,0.32538,0.05786,0.48718,0.09271
		c0.16144,0.03485,0.3244,0.05371,0.48865,0.07721c0.16333,0.02332,0.32141,0.10034,0.48712,0.112
		c0.16425,0.01184,0.33185-0.02789,0.49792-0.02789c0.01044,0,0.02057,0.05896,0.03101,0.05896s0.02057-0.08661,0.03131-0.08661
		c0.15991,0,0.31525-0.01532,0.47302-0.02637c0.1593-0.01105,0.32721,0.06689,0.48438,0.04498
		c0.15778-0.02197,0.31952-0.03979,0.47485-0.07214c0.13202-0.02753,0.27283-0.12115,0.40637-0.17749
		c-0.00995-0.0274-0.01782-0.05627-0.00702-0.06396c0.00018,0,0.01208,0.03235,0.02142,0.05737
		c0.01935-0.00775,0.04004-0.02173,0.05896-0.02698c0.05249,0.16656,0.00897,0.38464,0.04944,0.52997
		c0.0473,0.17145,0.17438,0.3056,0.20721,0.44952c0.04083,0.17926,0.04266,0.34442,0.06476,0.48468
		c0.03101,0.19568,0.00397,0.35669,0.00922,0.4856c0.01532,0.36115-0.22345,0.37469,0.01105,0.44128
		c0.23419,0.06647,0.23236,0.10712,0.47577,0.10712c0.01691,0,0.01691,0.02515,0.03375,0.02515
		c0.23761,0,0.23761-0.13379,0.47522-0.13379c0.23724,0,0.23724-0.02026,0.47485-0.02026s0.23761,0.10358,0.47485,0.10358
		c0.23755,0,0.23755,0.04315,0.47485,0.04315c0.23761,0,0.23761-0.17603,0.47485-0.17603c0.04303,0,0.04303,0.07715,0.0863,0.07715
		c0.10492,0,0.08313,0.03839,0.15466-0.03851c0.15717-0.16882,0.01562-0.10663-0.12585-0.37433
		C24.48352,13.89777,24.40131,13.76855,24.32361,13.60693z M19.81226,9.44226c-0.17401,0.01917-0.34381,0.14337-0.52179,0.14337
		c-0.01074,0-0.02087-0.008-0.03131-0.008s-0.02057,0.04315-0.03101,0.04315c-0.12677,0-0.25232-0.09869-0.37726-0.10883
		c-0.12616-0.01013-0.25604,0.00568-0.3797-0.01398c-0.12494-0.01978-0.26245-0.06403-0.38495-0.09241
		c0.04236-0.14099,0.18848-0.2663,0.23053-0.40887c0.04175-0.14117,0.04486-0.2948,0.08624-0.43756
		c0.04144-0.14136,0.01691-0.30267,0.05804-0.4455c0.04053-0.14154,0.08038-0.284,0.12091-0.427
		c0.03992-0.14185,0.12341-0.27228,0.16333-0.41547c0.0448-0.1618,0.10004-0.3197,0.14301-0.4798
		c0.04327-0.16205,0.04913-0.33307,0.09027-0.49341c0.04175-0.16254,0.02026-0.33948,0.06018-0.50018
		c0.04022-0.16302,0.14276-0.2666,0.18109-0.42743c0.03839,0.16083,0.06201,0.28387,0.10254,0.4469
		c0.03961,0.16052,0.02606,0.3363,0.06781,0.49896c0.04114,0.1604,0.08966,0.32062,0.13293,0.48285
		c0.04266,0.15991,0.09729,0.31848,0.1424,0.4801c0.03992,0.14453,0.04852,0.29755,0.08875,0.44061
		C19.7951,7.86407,19.85248,8.0033,19.89362,8.146c0.04144,0.1441,0.15472,0.26691,0.19647,0.40948
		c0.04205,0.14398,0.06476,0.29285,0.10712,0.43524c0.04266,0.14386,0.10132,0.28259,0.14398,0.42468
		C20.16925,9.45258,19.98846,9.42297,19.81226,9.44226z"/>
	<path class="st0" d="M12.57056,13.59467c-0.0307-0.12775-0.14673-0.24866-0.17499-0.4021
		c-0.02484-0.13293-0.11353-0.26678-0.13385-0.41779c-0.01807-0.13617-0.02332-0.28455-0.03589-0.43439
		c-0.00952-0.15179,0.11914-0.31384,0.11084-0.46918c-0.00861-0.15179-0.02429-0.3045-0.03162-0.45966
		c-0.00739-0.1521-0.11542-0.30115-0.12219-0.45612c-0.00647-0.15228,0.01013-0.30701,0.00427-0.46185
		c-0.00549-0.1524,0.06909-0.30865,0.06415-0.4635c-0.00458-0.15253-0.14606-0.30237-0.15009-0.45721
		c-0.00397-0.15253,0.08533-0.30865,0.08228-0.46332c-0.00305-0.15289,0.02979-0.30701,0.02734-0.46185
		C12.20868,8.495,12.07019,8.3429,12.06866,8.18823c-0.00153-0.15308,0.16052-0.30804,0.15991-0.46259
		c-0.00092-0.15302-0.11511-0.30652-0.11511-0.46106c0-0.15826,0.07458-0.31543,0.07556-0.47211
		c0.00061-0.15826,0.02606-0.31525,0.02789-0.4718c0.00153-0.15839-0.08136-0.31677-0.07916-0.47314
		c0.00244-0.15857-0.05066-0.31726-0.0473-0.47351c0.00305-0.15869,0.17096-0.31219,0.17499-0.46844
		c0.00427-0.15869,0.00922-0.31537,0.0141-0.47144c0.00494-0.15875-0.16541-0.32214-0.15961-0.47809
		c0.00586-0.15869,0.07489-0.31384,0.08167-0.46967c0.00708-0.15887,0.01776-0.31598,0.02545-0.47162
		c0.008-0.15887-0.04175-0.3194-0.03284-0.47473c0.00092-0.01965,0.11389-0.03314,0.11511-0.05249
		c0.00275-0.04541-0.05768-0.09204-0.05524-0.13702c0.01196-0.16089,0.14392-0.30176,0.16205-0.44806
		c0.01996-0.16217-0.04816-0.32642-0.02332-0.46948c0.02887-0.1651,0.04358-0.32062,0.07489-0.45795
		c0.03992-0.17297,0.09949-0.31836,0.13629-0.44354c0.08319-0.28351,0.29773-0.25159,0.10529-0.38068
		c-0.12311-0.0824-0.10864,0.02917-0.25659,0.02917c-0.07831,0-0.07831-0.03314-0.15656-0.03314
		c-0.21429,0-0.21429,0.01123-0.42883,0.01123s-0.21454,0.00629-0.42883,0.00629c-0.21454,0-0.21454-0.05621-0.42883-0.05621
		c-0.21454,0-0.21454,0.02673-0.42908,0.02673c-0.2146,0-0.2146-0.10791-0.42914-0.10791
		c-0.09668,0-0.09668,0.06403-0.19373,0.06403c-0.14795,0-0.15472-0.05621-0.27441,0.03052
		C9.48566,0.26471,9.74377,0.26196,9.77844,0.56799c0.01569,0.1369-0.01837,0.3031-0.01898,0.48993
		C9.75916,1.20618,9.75208,1.36719,9.73303,1.54303C9.7171,1.6947,9.7597,1.86749,9.72504,2.03711
		C9.69409,2.18842,9.6925,2.3623,9.64337,2.52625L9.53961,2.4931C9.45276,2.70551,9.44482,2.70227,9.3576,2.91467
		C9.27075,3.12695,9.29962,3.13892,9.2124,3.35132C9.12555,3.5636,9.039,3.52802,8.95184,3.74042
		C8.86499,3.9527,8.90302,3.96851,8.81616,4.18073c-0.08722,0.2124-0.09302,0.21014-0.17987,0.42255
		C8.54913,4.81555,8.65503,4.85895,8.56787,5.07135C8.48065,5.28363,8.4386,5.2663,8.35144,5.4787
		c-0.08722,0.2124-0.1842,0.17267-0.27106,0.38507c-0.08722,0.2124,0.02979,0.26031-0.05713,0.47284
		C7.9361,6.54889,7.9278,6.54553,7.84064,6.75793S7.76483,6.97498,7.67767,7.18738c-0.08685,0.2124-0.07336,0.2179-0.16058,0.43036
		C7.43024,7.82996,7.31207,7.78162,7.22491,7.9939C7.138,8.2063,7.19574,8.2301,7.10858,8.4425
		C7.02167,8.65491,6.9502,8.62561,6.86298,8.8382C6.77582,9.0506,6.93878,9.11737,6.85162,9.32977
		C6.76447,9.54236,6.72455,9.52594,6.63739,9.73853c-0.08722,0.21252,0.01562,0.3479-0.21399,0.34821
		c-0.22961,0.00018-0.04968-0.16711-0.1366-0.37952C6.19965,9.49475,6.07562,9.54559,5.98877,9.33313
		c-0.08716-0.21222-0.06384-0.22174-0.1507-0.43402C5.75085,8.68671,5.85156,8.64557,5.7644,8.43317S5.59772,8.2533,5.51056,8.04102
		c-0.08691-0.2124-0.04791-0.22839-0.13477-0.4408c-0.08722-0.2124-0.06018-0.22345-0.14703-0.43585
		C5.1416,6.95209,5.0578,6.98633,4.97089,6.77386c-0.08716-0.21234,0.02155-0.2569-0.06567-0.4693
		c-0.08716-0.2124-0.18634-0.17175-0.2735-0.38416C4.54486,5.70801,4.55438,5.70416,4.46722,5.4917
		C4.38,5.27936,4.46814,5.24323,4.38092,5.03082C4.29376,4.81854,4.28485,4.82227,4.19769,4.61005
		C4.11053,4.39758,4.02979,4.43079,3.94293,4.21832C3.85571,4.00574,3.91095,3.98322,3.82379,3.77063
		c-0.08716-0.2124-0.12921-0.19507-0.21637-0.40747S3.57544,3.12799,3.48828,2.91547
		C3.40112,2.70288,3.38641,2.70947,3.30475,2.49463C3.25562,2.33069,3.18872,2.18121,3.15741,2.02991
		C3.12274,1.86029,3.07758,1.7002,3.06134,1.54871C3.0426,1.3728,3.1095,1.20618,3.10889,1.05774
		C3.10828,0.87097,2.99719,0.69843,3.01282,0.56158c0.03497-0.30603,0.35394-0.30457,0.15625-0.44757
		C3.04938,0.02728,3.03705,0.18384,2.8891,0.18384c-0.09698,0-0.09698-0.15698-0.19397-0.15698
		c-0.21429,0-0.21429-0.02368-0.42853-0.02368c-0.21454,0-0.21454,0.09229-0.42914,0.09229
		c-0.21423,0-0.21423-0.09088-0.42847-0.09088c-0.2146,0-0.2146,0.1684-0.42914,0.1684c-0.2146,0-0.2146-0.13263-0.42914-0.13263
		c-0.07825,0-0.07825-0.01288-0.15656-0.01288c-0.14795,0-0.18292-0.03241-0.30573,0.05029
		c-0.19305,0.1297,0.08258,0.16748,0.16608,0.45203c0.0368,0.12537,0.05859,0.2807,0.09821,0.4541
		c0.03162,0.1377,0.06757,0.28857,0.09607,0.45404c0.02521,0.14331,0.0304,0.29865,0.05035,0.4613
		C0.51727,2.04596,0.49365,2.20178,0.50562,2.3631c0.00183,0.03418,0.05707,0.06232,0.0592,0.09637
		c0.00244,0.03851,0.05865,0.07477,0.06079,0.11401c0.00861,0.15442-0.11725,0.31738-0.10956,0.47522
		c0.00769,0.15466,0.0733,0.30768,0.08008,0.46545c0.00647,0.15485,0.11084,0.30731,0.11664,0.4649
		c0.00555,0.15485,0.02917,0.31091,0.03412,0.46857c0.00488,0.15503-0.159,0.31616-0.15472,0.47363
		c0.00397,0.15515,0.0752,0.30975,0.07855,0.46716c0.00311,0.15533,0.09576,0.31018,0.09827,0.46753
		C0.77112,6.01141,0.70697,6.16876,0.7085,6.32605c0.00153,0.15564,0.02673,0.31189,0.02759,0.46918
		c0.00067,0.15564-0.05951,0.31219-0.05951,0.46936c0,0.15472,0.09485,0.30896,0.09424,0.46198
		C0.7699,7.88123,0.75977,8.03546,0.75818,8.18848C0.75671,8.3432,0.72937,8.49701,0.72693,8.65002
		c-0.00214,0.15485,0.05585,0.31018,0.0528,0.46301c-0.00311,0.15503-0.1228,0.30634-0.12677,0.45911
		c-0.00403,0.15503,0.02972,0.31,0.02484,0.46259c-0.00488,0.15515-0.05737,0.30725-0.06323,0.45966
		c-0.00555,0.15515-0.05774,0.30676-0.06445,0.45917c-0.00647,0.15521,0.05768,0.31189,0.05035,0.46417
		c-0.00769,0.15527-0.02673,0.30829-0.03497,0.46027c-0.00867,0.15533,0.08344,0.31598,0.07428,0.46765
		c-0.01257,0.14948-0.1842,0.27655-0.20264,0.41254c-0.02026,0.1507,0.00525,0.29791-0.01935,0.43066
		c-0.0285,0.15314,0.00952,0.30908-0.02112,0.43646c-0.03839,0.16058-0.08722,0.29974-0.1225,0.41565
		c-0.08044,0.26294-0.4021,0.35223-0.21826,0.4646c0.12646,0.07733,0.19031-0.03516,0.33826-0.03516
		c0.05499,0,0.05499-0.03351,0.10992-0.03351c0.23846,0,0.23846-0.06561,0.47668-0.06561c0.23846,0,0.23846,0.0578,0.47699,0.0578
		s0.23853,0.06268,0.47705,0.06268c0.23846,0,0.23846-0.0481,0.47729-0.0481c0.23853,0,0.23792-0.05847,0.47638-0.06091
		c0.00055,0-0.00916,0.0069-0.01404,0.01062c0.00616-0.0014,0.01642-0.0047,0.01898-0.00446
		c0.14764,0.01379,0.12769,0.04602,0.26184-0.01642c0.1955-0.09088-0.0777-0.04932-0.11023-0.35303
		c-0.01227-0.11572,0.03992-0.26501,0.0304-0.43677c-0.00702-0.12695,0.07581-0.27228,0.07214-0.43298
		c-0.00275-0.13153-0.14209-0.27338-0.14185-0.42932c0.00031-0.13409,0.06604-0.27728,0.0694-0.43048
		c0.00305-0.13586-0.0166-0.27997-0.01044-0.43158C3.065,11.8396,3.0202,11.91235,3.02112,11.89362
		c0.008-0.14594,0.10773-0.289,0.11511-0.43787c0.00702-0.14612-0.01105-0.2948-0.00464-0.44373
		c0.00616-0.14624-0.04907-0.29614-0.04358-0.44507c0.00555-0.14624,0.03101-0.29297,0.03595-0.44183
		c0.00458-0.14642-0.047-0.29547-0.04297-0.44415c0.00366-0.14661,0.03772-0.29315,0.04083-0.44189
		C3.12488,9.09235,3.10828,8.9447,3.11072,8.79596c0.0022-0.14667,0.00708-0.24677,0.00861-0.39532
		C3.24518,8.6012,3.33203,8.55334,3.42169,8.77246c0.0899,0.21906,0.09119,0.21863,0.18109,0.43762
		c0.08966,0.21918,0.07831,0.22388,0.16791,0.44305c0.08997,0.21906,0.08289,0.22198,0.17279,0.44098
		c0.08966,0.21918,0.07159,0.22668,0.1615,0.44586c0.0899,0.21899,0.04388,0.23773,0.13385,0.45691
		c0.0899,0.21918,0.13318,0.20135,0.22314,0.42065c0.08997,0.21918,0.15564,0.19305,0.24341,0.41302
		c0.05493,0.14874,0.07428,0.30499,0.11755,0.43835c0.04944,0.15283,0.10376,0.2951,0.13934,0.42896
		c0.04181,0.1582-0.01013,0.32367,0.01477,0.45691c0.03131,0.1662-0.00525,0.31445,0.00427,0.44446
		c0.01355,0.18127,0.03412,0.31506,0.01813,0.43341c-0.03314,0.24786-0.05682,0.37085-0.11908,0.40015
		c0.14703,0.01855,0.14764-0.01349,0.29559-0.01349c0.17584,0,0.17584,0.10663,0.35144,0.10663
		c0.1759,0,0.1759-0.0614,0.3515-0.0614c0.27228,0,0.27228-0.04938,0.54449-0.04938c0.22382,0,0.51263-0.0694,0.72168,0.02344
		c0.0976,0.04346,0.1593,0.11072,0.26672,0.13843c0.03412,0.00879,0.40033,0.06586,0.40125,0.05481
		c0.01593-0.18921,0.00366-0.38672,0.00366-0.57782c0-0.16882-0.02454-0.33276-0.01013-0.50208
		c0.01196-0.14038,0.07031-0.25507,0.09607-0.39197c0.02484-0.13318-0.05896-0.30481-0.01715-0.46301
		c0.03558-0.13385,0.07886-0.27979,0.1283-0.4325c0.04327-0.13373,0.10278-0.27338,0.15778-0.42212
		c0.00031-0.00043,0.00366,0.00079,0.00366,0.00049c0.08997-0.21899,0.12183-0.20599,0.21179-0.42499
		c0.08966-0.21899,0.18512-0.17987,0.27502-0.39886c0.08997-0.21906-0.06537-0.28259,0.0246-0.50159
		c0.0896-0.21918,0.20135-0.17328,0.29126-0.39227c0.08966-0.21918,0.03162-0.24316,0.12128-0.46228
		c0.0899-0.21899,0.03064-0.24329,0.12061-0.46228c0.08997-0.21918,0.09979-0.21521,0.1897-0.43439
		C9.49945,8.54706,9.5802,8.58783,9.70599,8.38696c0.00153,0.14838-0.03156,0.26276-0.02911,0.4093
		C9.67932,8.9447,9.73181,9.09113,9.73486,9.23755c0.00342,0.14856,0.00677,0.29578,0.01074,0.4422
		C9.74963,9.82812,9.62036,9.97943,9.625,10.12573c0.00458,0.14856,0.04541,0.29498,0.0509,0.44122
		c0.00555,0.14874,0.08112,0.29327,0.08752,0.43945c0.00647,0.1485,0.01105,0.29572,0.01813,0.44165
		c0.00732,0.14874,0.04572,0.29443,0.05371,0.44019c0.00061,0.0163-0.15411-0.04327-0.1535-0.02698
		c0.00586,0.15149,0.09888,0.29236,0.10193,0.42816c0.00336,0.15338,0.05646,0.29688,0.05676,0.43097
		c0.00061,0.15594-0.11603,0.29822-0.11877,0.42993c-0.00372,0.16071,0.13043,0.30969,0.12341,0.43646
		c-0.00952,0.17194-0.08105,0.31171-0.09332,0.42743c-0.03253,0.30359-0.30359,0.37085-0.1084,0.46173
		c0.13452,0.06226,0.1698,0.00439,0.31744-0.0094c0.00446-0.00043,0.00189-0.00891,0.00079-0.01569
		c0.23364,0.0014,0.23627-0.07623,0.47314-0.07623c0.23846,0,0.23846,0.03894,0.47699,0.03894s0.23853,0.03375,0.47705,0.03375
		c0.23846,0,0.23846,0.02216,0.47729,0.02216c0.23846,0,0.23846,0.0603,0.47699,0.0603c0.05463,0,0.05463-0.08594,0.10962-0.08594
		c0.14795,0,0.20319,0.12463,0.32935,0.04712c0.18384-0.11298-0.10742-0.19415-0.18787-0.45764
		C12.55853,13.91711,12.60925,13.75531,12.57056,13.59467z M9.96161,14.4502c-0.0025-0.01385-0.00867-0.03168-0.00909-0.04077
		c0.00061,0.00739,0.09607,0.0097,0.09698,0.01691C10.0495,14.42871,9.96698,14.44843,9.96161,14.4502z"/>
	<path class="st0" d="M21.14661,12.08533c-0.00244-0.00659,0.00952-0.01752,0.00708-0.02423
		c-0.00012-0.00006-0.0058-0.01532-0.01019-0.02722c-0.00476,0.00189-0.00964,0.00458-0.0144,0.00659
		C21.13635,12.06055,21.14508,12.08118,21.14661,12.08533z"/>
	<path class="st0" d="M64.8866,14.75006c-0.01324,0.00012-0.01959,0.00006-0.03149,0.00012
		c-0.01385,0.0014-0.03491,0.00244-0.0351,0.00452C64.8197,14.75745,64.8894,14.75006,64.8866,14.75006z"/>
	<path class="st0" d="M131.80206,3.22791c0.24158,0,0.24158,0.00964,0.48309,0.00964c0.24158,0,0.24158,0.00043,0.48322,0.00043
		c0.24158,0,0.24158-0.10962,0.48346-0.10962c0.24121,0,0.24121,0.07617,0.48279,0.07617s0.24158-0.03082,0.48315-0.03082
		s0.24158-0.05975,0.48315-0.05975c0.16138,0,0.31531,0.09479,0.46271,0.10315c0.16351,0.00909,0.32489-0.04926,0.46954-0.03284
		c0.16632,0.01886,0.32391,0.03717,0.46332,0.06165c0.17468,0.03064,0.31958,0.10974,0.44659,0.14087
		c0.28613,0.07031,0.24652,0.28479,0.46582,0.20813c-0.0174-0.11005-0.06012-0.29205-0.07501-0.41016
		c-0.01978-0.15594-0.09137-0.31238-0.10651-0.47577c-0.0152-0.15991,0.04828-0.32843,0.03687-0.48871
		c-0.01147-0.16351,0.00494-0.3266-0.00342-0.48346c-0.00897-0.16833-0.01331-0.33026-0.01923-0.48236
		c-0.00647-0.17731-0.09473-0.33807-0.09784-0.48035c-0.00494-0.21979,0.04523-0.46582,0.04523-0.55981
		c-0.23138-0.04614-0.25085,0.01813-0.48718,0.01813c-0.23602,0-0.23602,0.11566-0.47198,0.11566
		c-0.23602,0-0.23602-0.06195-0.47198-0.06195c-0.23602,0-0.23602-0.04736-0.47235-0.04736
		c-0.23566,0-0.23566-0.01532-0.47168-0.01532c-0.23596,0-0.23596,0.0777-0.47198,0.0777s-0.23602-0.07104-0.47198-0.07104
		c-0.23602,0-0.23602,0.12463-0.47198,0.12463c-0.23602,0-0.23602-0.05219-0.47174-0.05219
		c-0.23596,0-0.23596,0.07019-0.47198,0.07019c-0.23596,0-0.23596-0.03363-0.47198-0.03363s-0.23602-0.10596-0.47198-0.10596
		c-0.20972,0-0.20972-0.02704-0.41937-0.02704c-0.20996,0-0.20996,0.03015-0.41968,0.03015
		c-0.20966,0-0.20966,0.07684-0.41931,0.07684c-0.27502,0-0.27502-0.06616-0.55035-0.06616
		c-0.27502,0-0.27502,0.03442-0.55035,0.03442c-0.07898,0-0.07898,0.04999-0.15826,0.04999
		c-0.14929,0-0.16199-0.1059-0.28583-0.02277c-0.19391,0.12994,0.08203,0.12885,0.16595,0.41455
		c0.03687,0.12622,0.04584,0.28662,0.08582,0.461c0.03192,0.13861,0.14771,0.27661,0.17651,0.44293
		c0.02539,0.14417-0.0285,0.31213-0.00836,0.47571c0.01831,0.1474,0.0827,0.29932,0.09509,0.46161
		c0.0025,0.04846-0.09509,0.10156-0.09229,0.15063c0.00122,0.01459,0.03467,0.02698,0.03564,0.04187
		c0.00861,0.15698,0.0932,0.31201,0.10126,0.4726c0.00769,0.15729-0.05109,0.31946-0.04401,0.47986
		c0.00684,0.15753,0.07153,0.31439,0.07745,0.47479c0.00586,0.15765,0.02972,0.31635,0.03467,0.47668
		c0.00494,0.15778-0.11395,0.32037-0.10992,0.48065c0.00403,0.15796,0.04364,0.31604,0.04706,0.47632
		c0.00311,0.15796,0.07153,0.31604,0.07404,0.4762c0.00244,0.15808-0.1084,0.31866-0.10687,0.47864
		c0.00159,0.15826,0.11737,0.31653,0.11835,0.47644c0.00061,0.15833-0.00031,0.31763-0.00031,0.4776
		c0,0.15594-0.10382,0.31097-0.10437,0.46552c-0.00098,0.15613-0.01154,0.31091-0.01306,0.46552
		c-0.00153,0.15607-0.02692,0.31061-0.02942,0.46484c-0.00244,0.15637,0.06537,0.3125,0.06226,0.46674
		c-0.00311,0.15637,0.02045,0.31219,0.01672,0.46613c-0.00403,0.15637-0.00775,0.31152-0.01239,0.46576
		c-0.00494,0.15613,0.01117,0.31219,0.00555,0.46613c-0.00586,0.15643-0.01019,0.31189-0.01666,0.46552
		c-0.00684,0.15637-0.01208,0.31189-0.01953,0.46545c-0.00745,0.15674-0.08453,0.30823-0.0929,0.46149
		c-0.00867,0.15674-0.05823,0.30817-0.06757,0.46118c-0.013,0.15082,0.00281,0.2951-0.01575,0.43237
		c-0.02045,0.15204-0.00842,0.29974-0.03314,0.43359c-0.0285,0.15479-0.13409,0.27875-0.1651,0.40723
		c-0.039,0.16199,0.08301,0.34656,0.04736,0.46332c-0.08112,0.26575-0.36664,0.20105-0.18115,0.315
		c0.12726,0.078,0.10559,0.11517,0.25488,0.11517c0.05548,0,0.05548-0.03186,0.1109-0.03186
		c0.19141,0,0.19141,0.05048,0.38281,0.05048c0.19135,0,0.19135-0.06628,0.38275-0.06628s0.19141-0.03003,0.38251-0.03003
		c0.20996,0,0.20996-0.03131,0.41968-0.03131c0.20966,0,0.20966,0.07031,0.41968,0.07031c0.20966,0,0.20966,0.0415,0.41901,0.0415
		c0.23633,0,0.23633,0.00867,0.47229,0.00867c0.23633,0,0.23633-0.12634,0.47235-0.12634c0.23596,0,0.23596,0.15698,0.47192,0.15698
		c0.23602,0,0.23602-0.03033,0.47205-0.03033s0.23602-0.04303,0.47168-0.04303c0.23602,0,0.23602,0.00153,0.47198,0.00153
		c0.23602,0,0.23602,0.01801,0.47198,0.01801c0.23602,0,0.23602-0.02478,0.47205-0.02478c0.23596,0,0.23596,0.0672,0.47198,0.0672
		c0.23566,0,0.23566-0.01428,0.47168-0.01428c0.23596,0,0.23596,0.00623,0.47198,0.00623s0.24341-0.00714,0.47449-0.05328
		c0-0.09412,0.01611-0.27716,0.02136-0.49677c0.00311-0.14215,0.06537-0.30322,0.07184-0.48065
		c0.00586-0.1521-0.14801-0.32208-0.13934-0.4903c0.00836-0.15704,0.01886-0.32056,0.03033-0.48407
		c0.01147-0.1604,0.17407-0.31,0.18921-0.47015c0.0152-0.16321-0.01855-0.32892,0.00092-0.48499
		c0.01489-0.11737-0.04675-0.245-0.02936-0.35522c0,0-0.08459,0.11176-0.37073,0.18207
		c-0.12732,0.03101-0.29395-0.00244-0.46863,0.0282c-0.13934,0.02448-0.27966,0.15082-0.44598,0.16974
		c-0.1449,0.01642-0.31213-0.11926-0.4754-0.10992c-0.14771,0.0083-0.29852,0.13776-0.4599,0.13776
		c-0.24158,0-0.24158-0.03278-0.48315-0.03278c-0.24188,0-0.24188-0.0849-0.48346-0.0849s-0.24158,0.12543-0.48315,0.12543
		s-0.24158-0.07306-0.48315-0.07306c-0.24152,0-0.24152-0.02045-0.48315-0.02045c-0.24158,0-0.24158,0.09259-0.48309,0.09259
		c-0.24158,0-0.27563,0.08051-0.50482,0.00372c0.00806-0.15887,0.09503-0.3819,0.10217-0.54419
		c0.00714-0.15912,0.02386-0.31989,0.03003-0.48218c0.00592-0.15948-0.04926-0.32275-0.04395-0.48499
		c0.00494-0.15955-0.07062-0.32245-0.06659-0.48474c0.00433-0.15948,0.09259-0.31836,0.09601-0.48035
		c0.00311-0.15979-0.02478-0.37567-0.02228-0.53766c0.20935-0.07587,0.24243,0.04834,0.46515,0.04834
		c0.22266,0,0.22266-0.07867,0.44507-0.07867c0.22266,0,0.22266,0.05511,0.44501,0.05511c0.22272,0,0.22272,0.02014,0.44507,0.02014
		c0.00128,0-0.00305,0.03131-0.00214,0.03131c0.1601,0,0.3103,0.04022,0.45648,0.04828
		c0.16199,0.00897,0.31934-0.04736,0.4624-0.03125c0.1651,0.01886,0.30103,0.13721,0.4389,0.16132
		c0.1731,0.03064,0.33752-0.01575,0.46326,0.0152c0.28406,0.07062,0.30573,0.31622,0.41693,0.11523
		c0.08295-0.15057-0.0155-0.15857-0.0155-0.3302c0-0.1499,0.06036-0.1499,0.06036-0.29974c0-0.24536,0.0542-0.24536,0.0542-0.49048
		c0-0.24542-0.12854-0.24542-0.12854-0.49072s0.10535-0.2453,0.10535-0.4906c0-0.24512-0.04712-0.24512-0.04712-0.49036
		c0-0.31641-0.08112-0.31641-0.08112-0.63293c0-0.17188,0.21368-0.22314,0.13068-0.37384
		c-0.11084-0.20111-0.21832,0.05811-0.50232,0.12872c-0.12573,0.03125-0.27441,0.06207-0.44757,0.09277
		c-0.13782,0.02417-0.28058,0.11023-0.44568,0.12897c-0.14307,0.01624-0.29572,0.06238-0.4577,0.07141
		c-0.146,0.00818-0.30255-0.10913-0.46246-0.10938c-0.22198,0.00018-0.22211,0.04553-0.4444,0.04553
		c-0.22266,0-0.22266,0.07263-0.44501,0.07263c-0.22241,0-0.22241-0.1203-0.44476-0.1203s-0.21057,0.07031-0.41968-0.00543
		c-0.00275-0.16217-0.01575-0.25427-0.01923-0.41406c-0.00336-0.16211-0.0647-0.32166-0.06903-0.48132
		c-0.00403-0.16211,0.10162-0.32623,0.09662-0.48578c-0.00525-0.16223-0.16443-0.31775-0.17029-0.47711
		c-0.00623-0.16223,0.08173-0.32672,0.07458-0.4859c-0.00677-0.16241-0.0105-0.2843-0.01825-0.44336
		C131.56079,3.14581,131.56049,3.22791,131.80206,3.22791z"/>
	<path class="st0" d="M126.55121,13.88562c-0.02106-0.12976-0.02039-0.27814-0.04236-0.44196
		c-0.01831-0.13501-0.11371-0.27161-0.13226-0.43109c-0.01581-0.13782-0.0827-0.28027-0.09821-0.43762
		c-0.01398-0.13971,0.12207-0.30103,0.1087-0.45654c-0.01208-0.14117-0.02325-0.28802-0.03497-0.44257
		c-0.01056-0.14185-0.18152-0.27875-0.19141-0.43262c-0.00928-0.14276,0.03931-0.29456,0.03101-0.44788
		c-0.00812-0.14337-0.01245-0.29175-0.01959-0.4444c-0.00677-0.14404-0.06628-0.29022-0.07214-0.44257
		c-0.00586-0.14435-0.00494-0.29333-0.00989-0.44537c-0.00464-0.14465-0.02356-0.29303-0.02728-0.44476
		c-0.00403-0.14496,0.06012-0.29486,0.05701-0.44659c-0.00281-0.14496-0.03033-0.29297-0.03253-0.44446
		c-0.00214-0.14539,0.01398-0.29407,0.01239-0.44531c-0.00122-0.14557-0.00092-0.29413-0.00153-0.44507
		c-0.00061-0.14587-0.04401-0.29425-0.04401-0.44537c0-0.21667-0.03033-0.21667-0.03033-0.43329
		c0-0.21667,0.15704-0.21667,0.15704-0.43329s-0.12671-0.21661-0.12671-0.43329c0-0.21661,0.00903-0.21661,0.00903-0.43311
		c0-0.21667,0.04144-0.21667,0.04144-0.43329c0-0.2168,0.07031-0.2168,0.07031-0.43341c0-0.2168-0.03156-0.2168-0.03156-0.43347
		c0-0.2168-0.05298-0.21759-0.02972-0.43311c0.0238-0.2193,0.0672-0.21729,0.0672-0.43408
		c0-0.15112-0.05731-0.29688-0.05237-0.43713c0.00525-0.1524-0.01764-0.30011-0.00775-0.4389
		c0.01086-0.15417,0.10004-0.29218,0.11462-0.42828c0.01703-0.15765-0.07251-0.31653-0.05298-0.44788
		c0.02509-0.16632,0.0517-0.31311,0.07526-0.43359c0.0545-0.27563,0.31744-0.26666,0.12915-0.37799
		c-0.12854-0.07587-0.12732,0.00293-0.27655,0.00293c-0.2428,0-0.2428-0.03174-0.48566-0.03174
		c-0.2431,0-0.2431-0.0946-0.48621-0.0946s-0.2431,0.15363-0.48596,0.15363c-0.2431,0-0.2431-0.1106-0.48627-0.1106
		c-0.2431,0-0.2431,0.0578-0.48621,0.0578c-0.1062,0-0.1062,0.05853-0.21216,0.05853c-0.1499,0-0.13843-0.0946-0.26727-0.01874
		c-0.1886,0.11102-0.0437,0.10657,0.01086,0.38232c0.0238,0.1203,0.12079,0.25134,0.14557,0.41766
		c0.01978,0.13129,0.08423,0.27191,0.10126,0.42957c0.01483,0.13611,0.0282,0.28381,0.039,0.43805
		c0.00989,0.13873-0.10437,0.29102-0.09912,0.44354c0.005,0.14026,0.04028,0.28442,0.04028,0.43561
		c0,0.00574,0.06506-0.0174,0.06506-0.01166c0.00031,0.2179-0.00189,0.21808-0.00189,0.43591c0,0.2179,0.0282,0.2179,0.0282,0.43579
		c0,0.21783-0.13843,0.21783-0.13843,0.43573s0.08142,0.2179,0.08142,0.43579s0.04681,0.2179,0.04681,0.43573
		c0,0.21808-0.10504,0.21808-0.10504,0.4361c0,0.2179,0.12823,0.2179,0.12823,0.43573c0,0.21808-0.0542,0.21808-0.0542,0.4361
		s-0.05981,0.21802-0.06036,0.4361c0,0.00555,0.01111-0.01691,0.01111-0.01129c0,0.15094,0.03033,0.29944,0.02972,0.44519
		c-0.00092,0.15112,0.07898,0.30023,0.07745,0.4458c-0.00128,0.15131-0.10034,0.29858-0.10254,0.44415
		c-0.00214,0.15131,0.06537,0.30084,0.06256,0.44611c-0.00305,0.15179-0.04242,0.29919-0.04614,0.44409
		c-0.00397,0.1521-0.03931,0.29956-0.04395,0.44415c-0.00494,0.15204-0.03033,0.2995-0.03625,0.44385
		c-0.00586,0.15234-0.0675,0.29761-0.07434,0.44159c-0.00708,0.15271,0.06415,0.3045,0.05609,0.44788
		c-0.00842,0.15326-0.06909,0.29791-0.07806,0.44073c-0.00989,0.15387,0.04895,0.30627,0.03839,0.44843
		c-0.01141,0.15454-0.10748,0.29547-0.11951,0.4364c-0.01337,0.15576,0.05322,0.3103,0.03931,0.45001
		c-0.0155,0.15735,0.02881,0.31152,0.013,0.4494c-0.01825,0.15948-0.04706,0.30627-0.06506,0.44128
		c-0.02228,0.16388-0.16876,0.29175-0.18951,0.42157c-0.0282,0.17432-0.04675,0.31836-0.07031,0.43665
		c-0.06067,0.30505-0.25116,0.36237-0.03467,0.41376c0.2818,0.06689,0.28241,0.01984,0.57233,0.01984
		c0.33386,0,0.33386,0.07312,0.66803,0.07312c0.24689,0,0.24689-0.12573,0.49371-0.12573s0.24683,0.08514,0.49335,0.08514
		c0.44348,0,0.88824,0.03131,1.33081,0.0542c0.55688,0.0285,0.17255-0.17902,0.1084-0.5036
		C126.53851,14.21704,126.5791,14.0603,126.55121,13.88562z"/>
	<path class="st0" d="M110.289,0.32593c-0.12354-0.08301-0.12482,0.00433-0.27374,0.00433
		c-0.07928,0-0.07928-0.03174-0.15826-0.03174c-0.21619,0-0.21619-0.09448-0.43268-0.09448s-0.21649,0.1535-0.43268,0.1535
		c-0.21643,0-0.21643-0.1106-0.43268-0.1106c-0.2168,0-0.2168,0.0578-0.43323,0.0578c-0.21649,0-0.21649,0.05835-0.43298,0.05835
		c-0.09753,0-0.09753-0.0097-0.19482-0.0097c-0.1496,0-0.19385-0.18402-0.32581-0.11359
		c-0.19324,0.10345,0.06348,0.19733,0.08673,0.48474c0.00958,0.12128,0.06537,0.26526,0.07434,0.4353
		c0.00677,0.13177,0.013,0.27917,0.01794,0.43933c0.00403,0.13593-0.11493,0.28461-0.11334,0.44067
		c0.00153,0.13843,0.03467,0.28375,0.03375,0.4375c-0.00098,0.13983,0.06097,0.28693,0.05792,0.43933
		c-0.00311,0.14087-0.00928,0.28754-0.01489,0.43896c-0.00775,0.164,0.0127,0.3302,0.00592,0.49744
		c-0.00159,0.03143-0.14093,0.05664-0.14282,0.08838c0,0.00232,0.0827-0.00525,0.0824-0.00275
		c-0.00586,0.14801,0.03528,0.29919,0.03003,0.44983c-0.00525,0.14819-0.11517,0.29425-0.11951,0.44489
		c-0.0047,0.14838,0.11951,0.30139,0.11578,0.4519c-0.00372,0.1485-0.06128,0.29651-0.06439,0.44702
		c-0.00281,0.14856-0.06567,0.29718-0.06787,0.44757c-0.00214,0.14868,0.00806,0.29852,0.00653,0.44891
		c-0.00122,0.1488,0.0282,0.29871,0.02728,0.4491c-0.00067,0.1488,0.07959,0.2984,0.07959,0.44873
		c0,0.16571-0.07312,0.31805-0.0722,0.48236c-0.16382-0.15051-0.17432-0.1496-0.29138-0.33881
		c-0.11676-0.18921-0.08673-0.20795-0.20349-0.39722c-0.11707-0.18903-0.09076-0.20532-0.20782-0.39453
		c-0.11676-0.18921-0.09973-0.19995-0.2168-0.38898c-0.11676-0.18927-0.07001-0.21838-0.18707-0.40759
		c-0.11676-0.18921-0.18365-0.14777-0.30072-0.33698s-0.07306-0.21649-0.19019-0.40576
		c-0.11676-0.18921-0.1759-0.15265-0.29297-0.34186c-0.11676-0.18927-0.04523-0.23352-0.16199-0.42279
		c-0.11707-0.18921-0.18549-0.14679-0.30261-0.33606c-0.117-0.18921-0.16876-0.15729-0.28583-0.34668
		c-0.11676-0.18909-0.10809-0.19452-0.22516-0.38373c-0.11707-0.18939-0.00989-0.25568-0.12695-0.44507
		s-0.12329-0.18549-0.24036-0.37488c0,0-0.0799,0.04584-0.0802,0.04553c-0.07495-0.16229-0.11896-0.32672-0.17126-0.47418
		c-0.06042-0.17084-0.03595-0.34906-0.07092-0.4989c-0.04181-0.1806-0.1908-0.32587-0.20441-0.47516
		c-0.0177-0.19476,0.06903-0.36621,0.08112-0.50525c0.02728-0.31995,0.31592-0.38092,0.11646-0.5332
		c-0.11859-0.0907-0.18213,0.11371-0.33136,0.11371c-0.0979,0-0.0979-0.14948-0.19543-0.14948
		c-0.21619,0-0.21619,0.10425-0.43268,0.10425c-0.21619,0-0.21619-0.06799-0.43268-0.06799
		c-0.1756,0-0.34625-0.04303-0.51935-0.05066c-0.25275-0.01099-0.51135,0.0437-0.76685,0.03998
		c-0.15363-0.00232-0.3822-0.10901-0.51691-0.01874c-0.19391,0.12994,0.18549,0.20685,0.26917,0.49261
		c0.03711,0.12585,0.02289,0.29431,0.06281,0.46844c0.03162,0.13843,0.06012,0.29266,0.08893,0.4588
		c0.02539,0.14398,0.10126,0.29218,0.1214,0.45557c0.01825,0.14746,0.0282,0.30634,0.04022,0.46826
		c0.00342,0.05377,0.02173,0.10516,0.02484,0.15936c0,0.00574-0.06696,0.01471-0.06628,0.02075
		c0.00867,0.15753,0.04211,0.31561,0.05017,0.47662c0.00769,0.15784-0.00281,0.31812,0.00403,0.47919
		c0.00708,0.1579,0.01172,0.31744,0.01794,0.47833c0.00586,0.15808,0.0545,0.31616,0.05945,0.47693
		c0.00494,0.15826,0.03998,0.31732,0.04401,0.47803c0.00433,0.15845-0.14868,0.32166-0.14557,0.48224
		c0.00336,0.15857,0.13257,0.31573,0.13501,0.47632c0.0025,0.15857-0.00433,0.31854-0.00281,0.47913
		c0.00159,0.15875-0.03839,0.31866-0.03772,0.47913c0.00092,0.15887-0.06879,0.31854-0.06879,0.47894
		c0,0.15613,0.03064,0.3114,0.03003,0.46613c-0.00092,0.15625,0.02789,0.31189,0.02631,0.46643
		c-0.00153,0.15607,0.06262,0.31281,0.06042,0.46704c-0.0025,0.15643-0.05579,0.31122-0.05884,0.46552
		c-0.00311,0.15637,0.02509,0.31281,0.02106,0.46698c-0.00403,0.15674-0.13562,0.30853-0.14062,0.4624
		c-0.00494,0.15674-0.01111,0.31158-0.01703,0.46552c-0.00555,0.15668,0.15515,0.31873,0.14868,0.4726
		c-0.00684,0.15674-0.09076,0.30884-0.09821,0.4624c-0.00739,0.15674,0.01984,0.31409,0.01147,0.46741
		c-0.00867,0.15698,0.01361,0.31525,0.00433,0.46857c-0.013,0.15051-0.07001,0.29327-0.08826,0.43018
		c-0.02045,0.15173-0.11182,0.28369-0.1366,0.41748c-0.02881,0.15424-0.05725,0.29456-0.08826,0.42279
		c-0.03876,0.16162-0.07593,0.30035-0.11151,0.41711c-0.08087,0.26483-0.30316,0.31592-0.11798,0.42896
		c0.12756,0.07776,0.15546,0.00098,0.30505,0.00098c0.05542,0,0.05542-0.02728,0.11053-0.02728
		c0.24066,0,0.24066-0.07062,0.48132-0.07062s0.24066,0.02386,0.48132,0.02386c0.2406,0,0.2406,0.00928,0.48126,0.00928
		c0.2406,0,0.2406,0.10315,0.48126,0.10315s0.24127,0.00403,0.48193,0.00153c0.00275,0-0.06415-0.05762-0.06378-0.06006
		c0.00055-0.00775,0.01514-0.01611,0.01611-0.02386c-0.00098,0.01459,0.03406,0.0155,0.04858,0.01672
		c0.14899,0.01489,0.14001,0.03223,0.27563-0.03094c0.19727-0.09167,0.05792-0.08331,0.02509-0.38965
		c-0.01239-0.11676-0.04242-0.25549-0.052-0.42896c-0.00714-0.12787-0.07123-0.2691-0.07501-0.4314
		c-0.00305-0.13287,0.06171-0.27753,0.06195-0.43481c0.00031-0.13538-0.07428-0.28064-0.07056-0.43518
		c0.00275-0.13721-0.02576-0.28308-0.01984-0.43604c0.00031-0.01398,0.09821,0.04578,0.09912,0.03186
		c0.00836-0.15363-0.03253-0.31122-0.02509-0.46826c0.00739-0.15393,0.09259-0.30597,0.09943-0.46271
		c0.00647-0.15393-0.07312-0.31311-0.06757-0.46985c0.00586-0.15424,0.04401-0.30847,0.04895-0.46515
		c0.00464-0.15424,0.00183-0.31,0.00586-0.46674c0.00372-0.15424,0.02637-0.30945,0.02979-0.46613
		c0.00305-0.15454-0.04431-0.31097-0.04187-0.46765c0.0022-0.15454-0.03003-0.3103-0.02844-0.46674
		c0.00153-0.15454,0.06873-0.30975,0.06934-0.46613c0.00098-0.15466-0.07526-0.31049-0.07526-0.46674
		c0-0.19604,0.10468-0.45251,0.10376-0.64587c0.1756,0.14539,0.11365,0.22949,0.2323,0.42432
		c0.1189,0.19464,0.0285,0.24976,0.1474,0.4444c0.11865,0.19482,0.08984,0.21234,0.20874,0.40698
		c0.11865,0.19464,0.17841,0.15808,0.29736,0.35291c0.11859,0.19482,0.07404,0.22174,0.19263,0.41656
		c0.1189,0.19482,0.22516,0.13007,0.34406,0.32489c0.11865,0.19446,0.05792,0.23163,0.17688,0.42615
		c0.11859,0.19476,0.18518,0.15454,0.30383,0.34906c0.11859,0.19476,0.10559,0.20282,0.22418,0.39764
		c0.11896,0.19482,0.07837,0.2193,0.19733,0.41406c0.11859,0.19452,0.06561,0.22675,0.18457,0.42151
		c0.11859,0.19482,0.21741,0.13477,0.33606,0.32953c0.1189,0.19482,0.13562,0.18463,0.25421,0.37946
		c0.11896,0.19476,0.02173,0.25397,0.14062,0.44904c0.11865,0.19482,0.19171,0.15051,0.30908,0.34656
		c0.00092,0.0022-0.00336,0.00934-0.00244,0.01147c0.05725,0.18054,0.07739,0.35339,0.11212,0.5033
		c0.04456,0.19135-0.00342,0.36914,0.01172,0.51599c0.02197,0.21149,0.07251,0.37317,0.05487,0.50604
		c-0.04773,0.36237-0.3667,0.26172-0.15332,0.40448c0.12421,0.08331,0.10992,0.0697,0.25952,0.0697
		c0.09784,0,0.09784,0.04645,0.19574,0.04645c0.22083,0,0.22083-0.00494,0.44196-0.00494c0.22083,0,0.22083-0.0722,0.44196-0.0722
		s0.22113-0.04987,0.44196-0.04987c0.22113,0,0.22113,0.03375,0.44226,0.03375s0.22113,0.08765,0.44226,0.08765
		c0.05542,0,0.05542-0.11053,0.11121-0.11053c0.14893,0,0.13129,0.07184,0.25861-0.00592
		c0.18488-0.11334,0.01147-0.09009-0.0697-0.35492c-0.03564-0.11676-0.17651-0.2301-0.21558-0.39148
		c-0.03094-0.12817,0.03009-0.29077,0.00159-0.44501c-0.02478-0.13348-0.14496-0.26233-0.16541-0.41382
		c-0.01862-0.13684,0.08765-0.29419,0.07465-0.4447c-0.00928-0.15332-0.08795-0.30383-0.09662-0.46057
		c-0.00836-0.15363,0.04053-0.31183,0.03284-0.46857c-0.00745-0.15363-0.1369-0.30353-0.14374-0.46057
		c-0.00647-0.15363,0.13721-0.31494,0.13135-0.47168c-0.00555-0.15387-0.11743-0.30566-0.12201-0.4624
		c-0.005-0.15393,0.07648-0.31183,0.07245-0.46826c-0.00372-0.15424-0.03564-0.30908-0.03876-0.46545
		c-0.00305-0.15454,0.04248-0.31067,0.03998-0.4671c-0.00214-0.15454-0.02295-0.30939-0.02478-0.46576
		c-0.00153-0.15454-0.12762-0.30914-0.12854-0.46552c-0.00061-0.15466,0.14587-0.31049,0.14587-0.46674
		c0-0.15997-0.03217-0.31897-0.03156-0.47723c0.00092-0.16016-0.08362-0.31995-0.08209-0.47821
		c0.00159-0.1601,0.04675-0.31885,0.04926-0.47711c0.0025-0.1601,0.07343-0.31787,0.07654-0.47601
		c0.00336-0.16028-0.02362-0.31976-0.01923-0.47772c0.00403-0.16046-0.04895-0.32117-0.04401-0.479
		c0.00494-0.16022,0.0722-0.31726,0.07806-0.47491c0.00616-0.1604,0.04614-0.31793,0.05292-0.4754
		c0.00714-0.16058,0.00494-0.31964,0.01276-0.47681c0.00806-0.16058-0.03687-0.32208-0.0282-0.47925
		c0.00092-0.01367,0.06781-0.02356,0.06873-0.03748c0.00281-0.04956-0.05328-0.09973-0.05048-0.14899
		c0.01208-0.16211-0.00281-0.32037,0.0155-0.46796c0.02014-0.16351,0.11829-0.30566,0.14337-0.44983
		c0.02911-0.16632-0.04675-0.34082-0.0152-0.47931c0.03998-0.17438,0.08185-0.32874,0.11896-0.45477
		C110.19672,0.43097,110.48291,0.45605,110.289,0.32593z"/>
	<path class="st0" d="M121.44073,10.8573c-0.00146,0.0069-0.0033,0.01318-0.00482,0.02002l0.00018,0.00012
		C121.43823,10.86444,121.44385,10.8443,121.44073,10.8573z"/>
	<path class="st0" d="M118.56445,5.6308c0.00555,0.0025,0.01147,0.00513,0.01733,0.00745
		c0.17499,0.06982,0.49524-0.05621,0.69006-0.05621c0.2301,0,0.2301,0.07587,0.46021,0.07587
		c0.23047,0,0.23047-0.10931,0.46051-0.10931c0.23016,0,0.23016,0.00049,0.46027,0.00049s0.2301,0.00958,0.46057,0.00958
		c0.23004,0,0.23004,0.00323,0.46021,0.00323c0.13098,0,0.14026,0.08917,0.2583,0.03253
		c0.22327-0.10718-0.02881-0.09357-0.16016-0.44739c-0.04523-0.12201-0.23938-0.23444-0.28522-0.43219
		c-0.02789-0.16602,0.04858-0.34717,0.01581-0.50171c-0.0022-0.01196-0.03131-0.0155-0.03314-0.02759
		c0.00183,0.01349-0.07898,0.05872-0.08209,0.04535c-0.03284-0.15387-0.05823-0.30243-0.09631-0.4455
		c-0.04028-0.15253,0.03223-0.33246-0.01331-0.47327c-0.04865-0.15021-0.16846-0.27069-0.22241-0.40802
		c-0.05792-0.14722-0.15918-0.26648-0.22296-0.39935c-0.06842-0.14282-0.13751-0.27289-0.21216-0.40002
		c-0.0799-0.1366-0.06104-0.33087-0.1474-0.45044c-0.09265-0.12793-0.2168-0.22968-0.31592-0.33942
		c-0.10565-0.11682-0.25891-0.1778-0.37073-0.27539c-0.11798-0.10297-0.23444-0.19434-0.35834-0.27777
		c-0.12885-0.08691-0.26978-0.13641-0.40387-0.2041c-0.13812-0.0697-0.22449-0.25677-0.36639-0.30835
		c-0.14465-0.05261-0.31805-0.01978-0.46515-0.05585c-0.14929-0.03656-0.30573-0.01874-0.45593-0.04089
		c-0.15204-0.02234-0.29327-0.14203-0.44409-0.15192c-0.15393-0.01019-0.3103,0.11334-0.46118,0.11334
		c-0.15295,0-0.30627-0.04974-0.4624-0.03949c-0.15295,0.01025-0.31403-0.03363-0.46826-0.0108
		c-0.15173,0.02258-0.30444,0.06439-0.45557,0.10187c-0.14899,0.03687-0.28925,0.11121-0.43579,0.16522
		c-0.14337,0.0528-0.24805,0.18616-0.38745,0.25769c-0.13531,0.06934-0.31403,0.06268-0.44409,0.15192
		c-0.12451,0.08545-0.20099,0.23364-0.31964,0.33929c-0.11212,0.09985-0.2431,0.18066-0.34869,0.30023
		c-0.09912,0.11194-0.21869,0.21338-0.31097,0.34406c-0.08636,0.12189-0.18738,0.24298-0.26697,0.3822
		c-0.07404,0.12946-0.19604,0.24561-0.26385,0.39087c-0.06317,0.13538-0.05206,0.31128-0.10931,0.461
		c-0.05328,0.13953-0.15332,0.27057-0.20105,0.42322c-0.04456,0.14276-0.02045,0.31158-0.05975,0.46643
		c-0.03717,0.14508-0.15424,0.27826-0.18646,0.43433c-0.03033,0.14716,0.02045,0.31519-0.00525,0.47217
		c-0.02448,0.14856,0.01331,0.30896-0.00684,0.46661c-0.01917,0.14941-0.04645,0.29993-0.06158,0.45789
		c-0.01428,0.15021-0.15271,0.29407-0.16327,0.45215c-0.0105,0.15088-0.01202,0.30725-0.01855,0.46533
		c-0.00677,0.15118,0.08081,0.30896,0.07776,0.4671c-0.00311,0.15143-0.02539,0.30554-0.02539,0.46344
		c0,0.15784-0.07123,0.31378-0.06818,0.46521c0.00311,0.1579,0.13348,0.30878,0.14001,0.4599
		c0.00677,0.15796-0.0694,0.31653-0.0592,0.46735c0.01086,0.15826-0.00897,0.31622,0.00562,0.46613
		c0.0152,0.15826,0.15607,0.29761,0.17529,0.4472c0.02045,0.15765-0.10498,0.33234-0.08051,0.48065
		c0.0257,0.15735,0.15637,0.29114,0.18671,0.43829c0.03223,0.15637,0.00098,0.32269,0.03778,0.46796
		c0.03967,0.15485,0.06104,0.31219,0.10596,0.45496c0.04767,0.15271,0.17188,0.27502,0.22516,0.41437
		c0.05731,0.1499,0.16351,0.26978,0.22638,0.40479c0.06781,0.14557,0.00623,0.35248,0.08026,0.48193
		c0.07959,0.13904,0.16663,0.27655,0.25269,0.39862c0.09229,0.13068,0.31464,0.15265,0.41376,0.26447
		c0.10565,0.11951,0.17035,0.26544,0.28247,0.36542c0.11865,0.10535,0.23694,0.20166,0.36145,0.28711
		c0.13007,0.08923,0.28552,0.11987,0.4209,0.18927c0.13934,0.07153,0.27161,0.13599,0.41498,0.1886
		c0.14618,0.0542,0.29144,0.08301,0.44043,0.11987c0.15112,0.03748,0.28619,0.1322,0.43793,0.15454
		c0.15393,0.02289,0.30908,0.01392,0.4621,0.02417C116.42529,14.97766,116.578,15,116.73096,15
		c0.15088,0,0.30292-0.00281,0.45685-0.01306c0.15112-0.00989,0.29578-0.06781,0.44781-0.09009
		c0.15021-0.02203,0.28772-0.07898,0.43701-0.11584c0.14709-0.03595,0.3382,0.07031,0.48285,0.01764
		c0.14185-0.0517,0.23291-0.2276,0.37103-0.2973c0.13409-0.06781,0.26477-0.13379,0.39368-0.22052
		c0.12384-0.08362,0.26752-0.14154,0.38525-0.24432c0.11176-0.0979,0.27222-0.15704,0.37781-0.2738
		c0.09912-0.10962,0.17407-0.25208,0.26636-0.38007c0.08673-0.1192,0.14587-0.26477,0.22607-0.40106
		c0.07434-0.12726,0.08643-0.29077,0.15485-0.43359c0.06384-0.13281,0.16974-0.25018,0.22766-0.39734
		c0.05389-0.13721,0.07465-0.28986,0.12329-0.44037c0.04523-0.14062,0.21057-0.25214,0.25085-0.40485
		c0.03638-0.13666,0.07159-0.28131,0.10358-0.4281c0.00165-0.0116-0.08344-0.03522-0.0813-0.04633
		c0.03314-0.15552,0.03003-0.32147,0.05792-0.48779c0.04584-0.19763,0.06567-0.37042,0.1109-0.49249
		c0.13129-0.35364,0.52155-0.26416,0.29822-0.37097c-0.11798-0.0567-0.11707-0.06598-0.24805-0.06598
		c-0.22986,0-0.22986,0.00183-0.45996,0.00183c-0.23041,0-0.23041,0.00189-0.46051,0.00189s-0.2301,0.02136-0.46021,0.02136
		c-0.23016,0-0.23016,0.00061-0.46057,0.00061c-0.2301,0-0.2301,0.02759-0.46051,0.02759
		c-0.20508,0-0.20508,0.07025-0.41071,0.07025c-0.10529-0.00024-0.1759-0.09937-0.26508-0.00989
		c0.06842-0.06873,0.1189,0.4342,0.11456,0.46582c-0.0257,0.18213-0.10498,0.36761-0.16663,0.54047
		c-0.05206,0.14551-0.00281,0.32208-0.06158,0.44037c-0.0694,0.13995-0.23975,0.20502-0.31592,0.31128
		c-0.09204,0.12823-0.1369,0.27405-0.23413,0.36047c-0.11774,0.10468-0.22583,0.21619-0.34351,0.27283
		c-0.14154,0.06818-0.31433-0.01019-0.44226,0.01178c-0.16571,0.02881-0.30133,0.04645-0.41498,0.04645
		c-0.12268,0-0.2865,0.05792-0.46893,0.02295c-0.13904-0.02661-0.25891-0.13257-0.41125-0.21558
		c-0.12451-0.06781-0.29059-0.0954-0.41254-0.21954c-0.09943-0.10095-0.22614-0.20844-0.31781-0.3562
		c-0.07526-0.1214-0.05725-0.30597-0.12445-0.46423c-0.05609-0.13318-0.15363-0.26111-0.20227-0.42371
		c-0.04181-0.13995-0.00372-0.30756-0.0387-0.47168c-0.0307-0.14465-0.14221-0.28088-0.16663-0.44531
		c-0.02197-0.14716-0.00836-0.30634-0.02478-0.47046c-0.01489-0.14899-0.03473-0.30353-0.04431-0.46741
		c-0.00897-0.15021,0.00311-0.30646-0.00153-0.46967c-0.00403-0.15112-0.05609-0.30676-0.05609-0.46936
		c0-0.16272-0.03217-0.32068-0.02783-0.47168c0.00433-0.16321,0.07709-0.31732,0.08606-0.46747
		c0.00989-0.1637-0.05383-0.3266-0.03931-0.47559c0.01642-0.16431,0.00616-0.32672,0.0282-0.474
		c0.02448-0.16431,0.07959-0.31793,0.11023-0.46228c0.03473-0.16412,0.1759-0.28998,0.21771-0.43018
		c0.04834-0.16272,0.13037-0.29169,0.18646-0.42493c0.06689-0.15839,0.07336-0.32257,0.14862-0.44379
		c0.09174-0.14807,0.22394-0.23138,0.32306-0.33215c0.12231-0.12433,0.17346-0.3139,0.29791-0.38171
		c0.1524-0.08301,0.33325-0.06677,0.47235-0.09357c0.18243-0.03497,0.34314-0.11243,0.46582-0.11243
		c0.11365,0,0.27032,0.0166,0.43604,0.04523c0.12793,0.02216,0.25922,0.10791,0.40076,0.17627
		c0.11768,0.05664,0.19733,0.18036,0.315,0.28491c0.09692,0.08643,0.27783,0.11475,0.36975,0.2428
		c0.3017,0.42072,0.48163,0.85437,0.33917,1.38208C118.54651,5.25854,118.32385,5.51898,118.56445,5.6308z"/>
	<polygon class="st0" points="133.19049,6.01764 133.19104,6.01776 133.19141,6.01776 	"/>
	<path class="st0" d="M148.19513,14.43292c-0.08429-0.10284-0.13751-0.26331-0.2453-0.41193
		c-0.08423-0.11615-0.2323-0.20782-0.32709-0.35278c-0.08051-0.12354-0.05945-0.32086-0.14551-0.46613
		c-0.07373-0.14124-0.23169-0.23474-0.30231-0.37408c-0.07123-0.14215-0.05634-0.32489-0.12451-0.46582
		c-0.06873-0.14307-0.23102-0.24066-0.29608-0.38312c-0.06567-0.14398-0.02783-0.33325-0.09045-0.47723
		c-0.06256-0.14526-0.13873-0.28247-0.19818-0.42834c-0.06006-0.14587-0.22052-0.25177-0.27686-0.39954
		c-0.0564-0.14679-0.02911-0.3252-0.0824-0.47418c-0.05328-0.14771-0.07245-0.30658-0.12329-0.45709
		c-0.04956-0.14838-0.1449-0.28217-0.19263-0.4342c-0.04645-0.14899-0.16107-0.27936-0.20563-0.43237
		c-0.0434-0.1499-0.09106-0.30133-0.13318-0.45532c-0.04089-0.15015-0.03595-0.32129-0.07495-0.47614
		c0.12573-0.10016,0.30658-0.14667,0.42737-0.25275c0.12146-0.10608,0.1908-0.2713,0.30603-0.38373
		c0.11456-0.11194,0.18024-0.26123,0.28058-0.37628c0.10529-0.12048,0.26141-0.19342,0.35242-0.31622
		c0.09546-0.12848,0.20569-0.24561,0.28619-0.37531c0.08423-0.13617,0.16479-0.27448,0.23413-0.4104
		c0.07312-0.14276,0.06256-0.32025,0.12018-0.461c0.06134-0.14899,0.2218-0.25891,0.26758-0.40356
		c0.04895-0.15405,0.07184-0.31573,0.10529-0.46271c0.03662-0.15918-0.04889-0.33417-0.02844-0.48175
		c0.0235-0.16461,0.09912-0.31262,0.1059-0.45819c0.00867-0.17236,0.0545-0.33313,0.04584-0.47186
		c-0.01178-0.19452-0.02417-0.36713-0.05511-0.47772c-0.04089-0.14496-0.16168-0.27301-0.21991-0.42352
		c-0.0545-0.14154-0.05701-0.31781-0.13812-0.45715c-0.07556-0.13025-0.26514-0.18567-0.37225-0.30817
		c-0.0979-0.11176-0.16974-0.25177-0.30042-0.35272c-0.11646-0.08966-0.27814-0.11121-0.42554-0.18909
		c-0.12946-0.06848-0.24963-0.15875-0.40637-0.21588c-0.13812-0.05029-0.25702-0.19696-0.41809-0.23706
		c-0.14374-0.03564-0.29669-0.09436-0.45966-0.12097c-0.14679-0.02368-0.30963-0.0144-0.47321-0.03003
		c-0.14862-0.01422-0.3103,0.05127-0.47388,0.04431c-0.14984-0.00653-0.30469-0.07574-0.46765-0.07574
		c-0.23474,0-0.23474,0.03424-0.46887,0.03424c-0.2348,0-0.2348,0.0498-0.46954,0.0498c-0.23413,0-0.23413-0.01886-0.46826-0.01886
		s-0.23413,0.00745-0.46893,0.00745c-0.23407,0-0.23407-0.03302-0.46826-0.03302c-0.1864,0-0.1864,0.08563-0.37286,0.08563
		s-0.18646-0.07819-0.37292-0.07819c-0.2019,0-0.2019,0.04895-0.40369,0.04895c-0.2016,0-0.2016-0.10095-0.4032-0.10095
		c-0.20166,0-0.20166,0.03296-0.40295,0.03296c-0.20166,0-0.20166,0.07617-0.40326,0.07617
		c-0.07928,0-0.07928-0.06628-0.15857-0.06628c-0.1496,0-0.14496-0.03387-0.2691,0.04926
		c-0.19391,0.12994,0.10498,0.09137,0.1889,0.37738c0.03687,0.1261-0.0415,0.30927-0.00153,0.48376
		c0.03156,0.13861,0.09784,0.28278,0.12695,0.4491c0.02509,0.14435,0.11304,0.28973,0.13318,0.45343
		c0.01825,0.14758-0.07837,0.31342-0.06628,0.47552c0.00281,0.0459,0.11981,0.08148,0.12262,0.12793
		c0.00122,0.02045,0.00092,0.04211,0.0022,0.06317c0.00867,0.15656-0.08612,0.32037-0.07806,0.48065
		c0.00775,0.15686,0.00586,0.31543,0.0127,0.47559c0.00684,0.15717-0.01019,0.31622-0.00433,0.47632
		c0.00592,0.15735,0.08179,0.31329,0.08673,0.47308c0.00494,0.15753,0.03687,0.31531,0.0412,0.47528
		c0.00403,0.15747,0.00867,0.31635,0.01178,0.4762c0.00336,0.15759,0.02753,0.31604,0.03003,0.47583
		c0.00244,0.15778,0.00616,0.31671,0.00775,0.47632c0.00153,0.15784,0.00464,0.31683,0.00555,0.4765
		c0.00092,0.15778-0.06781,0.31683-0.06781,0.47632c0,0.15613-0.04089,0.31097-0.0415,0.46552
		c-0.00092,0.15625,0.02942,0.31158,0.02783,0.46613c-0.00153,0.15607,0.03162,0.31152,0.02942,0.46606
		c-0.00244,0.15613-0.08203,0.31006-0.08514,0.46429c-0.00311,0.15643,0.15985,0.31525,0.15607,0.46954
		c-0.00397,0.15637-0.00989,0.31213-0.01453,0.46606c-0.00494,0.15643-0.13751,0.30725-0.14307,0.46118
		c-0.00592,0.15643,0.01984,0.31281,0.01331,0.46643c-0.00684,0.15668-0.06409,0.30939-0.07153,0.46301
		c-0.00775,0.15668,0.05048,0.31494,0.04181,0.46826c-0.00836,0.15674,0.01208,0.31409,0.00275,0.46735
		c-0.013,0.15082,0.00189,0.30103-0.01666,0.43823c-0.02045,0.1521-0.1131,0.28558-0.13788,0.41968
		c-0.02844,0.15454-0.09943,0.2865-0.13007,0.41498c-0.039,0.16199-0.08606,0.29706-0.1217,0.41412
		c-0.08112,0.26538-0.23907,0.25299-0.05389,0.36664c0.12762,0.07806,0.11273,0.14624,0.26233,0.14624
		c0.05511,0,0.05511-0.03033,0.11053-0.03033c0.24066,0,0.24066-0.04309,0.48163-0.04309c0.24066,0,0.24066,0.00153,0.48126,0.00153
		c0.24066,0,0.24066,0.01801,0.48145,0.01801c0.24036,0,0.24036-0.02478,0.48132-0.02478c0.2403,0,0.24158,0.06995,0.48187,0.0672
		c0.00189,0,0.02863-0.03479,0.04517-0.05695c0.2511,0.01794,0.28784,0.06049,0.565-0.00128
		c0.21741-0.04834-0.02234-0.15582-0.1189-0.44226c-0.03906-0.11462-0.23419-0.21527-0.26953-0.38806
		c-0.02661-0.12885-0.05139-0.28186-0.07056-0.44598c-0.01611-0.13501,0.11951-0.29608,0.11084-0.45654
		c-0.00739-0.13812-0.06317-0.28271-0.06378-0.44098c0-0.14001-0.07556-0.28992-0.0694-0.44635
		c0.00061-0.01886,0.01862,0.0564,0.01984,0.03754c0.00745-0.14557,0.08301-0.28931,0.09045-0.43799
		c0.00677-0.14551-0.09045-0.2973-0.08423-0.44592c0.00616-0.14594,0.16101-0.28711,0.16663-0.43549
		c0.00555-0.14618-0.11401-0.29761-0.10907-0.44598c0.00433-0.14618,0.04523-0.30414,0.04895-0.45245
		c0.13379-0.04553,0.31158-0.02386,0.45343-0.07806c0.13318-0.05078,0.22235-0.22174,0.36108-0.28027
		c0.13196-0.05573,0.29486-0.04767,0.43115-0.11029c0.13068-0.06036,0.24896-0.10345,0.3822-0.16998
		c0.07306,0.1297,0.20496,0.19879,0.27002,0.32391c0.06879,0.13165,0.14062,0.25989,0.20135,0.38806
		c0.06317,0.13287,0.00806,0.31683,0.06378,0.44788c0.05823,0.1344,0.10217,0.26978,0.15363,0.40417
		c0.05261,0.13501,0.15857,0.24866,0.20624,0.38586c0.04712,0.13568,0.16974,0.24902,0.21375,0.38867
		c0.04395,0.14929,0.00305,0.31622,0.03961,0.45282c0.04028,0.15149,0.14368,0.27936,0.17529,0.41565
		c0.03595,0.15424,0.01611,0.31122,0.04272,0.4472c0.0304,0.15826,0.13318,0.29327,0.1524,0.42773
		c0.0235,0.16412-0.01428,0.32086-0.00372,0.45154c0.01422,0.17682-0.00189,0.32672-0.00372,0.4469
		c-0.00433,0.31-0.27753,0.41125-0.06067,0.46179c0.2948,0.06873,0.3078,0.03589,0.61072,0.03625
		c0.01178,0,0.01178-0.0694,0.02356-0.0694c0.24652,0.00061,0.24652,0.09723,0.49304,0.09723s0.24652-0.08081,0.49304-0.08081
		s0.24652-0.03033,0.49304-0.03033s0.24652-0.01208,0.49243-0.01208c0.24652,0,0.24652,0.06006,0.4931,0.06006
		c0.08356,0,0.29669,0.06042,0.48126,0.07526c0.15485,0.01239,0.28864-0.00775,0.30847-0.12292
		C148.5816,14.57721,148.28741,14.54535,148.19513,14.43292z M144.93262,4.06738c-0.00433,0.14325,0.01801,0.30554-0.03528,0.4787
		c-0.04333,0.14246-0.03528,0.33136-0.12207,0.48499c-0.07428,0.13116-0.27997,0.1875-0.39203,0.32147
		c-0.09729,0.11627-0.18524,0.24713-0.31592,0.36188c-0.11646,0.10266-0.23663,0.19727-0.36115,0.29004
		c-0.12512,0.09296-0.21802,0.23322-0.34875,0.31561c-0.13312,0.08331-0.25452,0.19092-0.39081,0.26294
		c-0.1394,0.07367-0.33264,0.03131-0.4726,0.09241c-0.14624,0.06354-0.2868,0.11835-0.42993,0.1676
		c-0.15234,0.05231-0.27252,0.14185-0.41748,0.17712c-0.00122-0.1488-0.06812-0.28369-0.07001-0.43091
		c-0.00122-0.14886,0.11707-0.29828,0.11462-0.44537c-0.00183-0.14886,0.00494-0.2973,0.00244-0.44427
		c-0.00305-0.14899-0.065-0.29578-0.06812-0.44275c-0.00372-0.14899-0.06561-0.29517-0.07001-0.44196
		c-0.00433-0.14899,0.10095-0.3006,0.09601-0.4472c-0.00494-0.14899-0.16412-0.29102-0.16968-0.43762
		c-0.00623-0.14911,0.08173-0.30078,0.07495-0.44727c-0.00684-0.14911-0.01178-0.25769-0.01923-0.40381
		c0.25586-0.07159,0.25458,0.00458,0.52032,0.00458s0.26575,0.00964,0.53143,0.00964c0.26575,0,0.26575,0.00049,0.53149,0.00049
		c0.18457,0,0.35181-0.10516,0.49799-0.0976c0.19269,0.01025,0.34875,0.10236,0.48566,0.12421
		c0.21185,0.03375,0.37103,0.05096,0.48187,0.10669c0.19452,0.09723,0.32587,0.20288,0.38654,0.33618
		C145.02185,3.67114,144.93945,3.86426,144.93262,4.06738z"/>
	<path class="st0" d="M92.16144,12.3634c0.0072,0.01575,0.01581,0.0332,0.01422,0.03809
		C92.17883,12.39343,92.17084,12.3764,92.16144,12.3634z"/>
	<path class="st0" d="M75.98657,13.8822c-0.02075-0.13007-0.11926-0.26416-0.14154-0.42798
		c-0.01801-0.13501-0.08734-0.27631-0.10559-0.43579c-0.01611-0.13782,0.11768-0.30103,0.10217-0.45801
		c-0.01392-0.14001-0.02692-0.2865-0.04022-0.44202c-0.01245-0.14117-0.18494-0.27594-0.19641-0.43048
		c-0.0105-0.14215,0.03656-0.29449,0.02667-0.44812c-0.00934-0.14313-0.01489-0.29144-0.02325-0.44476
		c-0.00806-0.14337-0.06842-0.28894-0.07556-0.44165c-0.00684-0.14398-0.00714-0.29297-0.013-0.44537
		c-0.00592-0.14429-0.02539-0.29236-0.03033-0.4444c-0.00494-0.14465,0.05823-0.29517,0.0542-0.4472
		c-0.00372-0.14465-0.03223-0.29272-0.03503-0.44415c-0.00305-0.14526,0.01239-0.29395,0.00995-0.44537
		c-0.00189-0.14539-0.0022-0.29376-0.00372-0.44501c-0.00159-0.14557-0.04553-0.29376-0.04614-0.44495
		c-0.00098-0.14587-0.03131-0.29437-0.03131-0.4455c0-0.21667,0.15674-0.21667,0.15674-0.43329
		c0-0.21667-0.1264-0.21667-0.1264-0.43329s0.00897-0.21661,0.00897-0.43329c0-0.21661,0.0412-0.21661,0.0412-0.43311
		c0-0.21667,0.07031-0.21667,0.07031-0.43329c0-0.2168-0.03125-0.2168-0.03125-0.43341c0-0.2168-0.02972-0.2168-0.02972-0.43347
		c0-0.2168-0.08923-0.22485-0.06598-0.44025c0.02386-0.2193,0.13287-0.21014,0.13287-0.42694
		c0-0.15112-0.05701-0.29688-0.05206-0.43713c0.00531-0.1524-0.01764-0.30011-0.00769-0.4389
		c0.0108-0.15417,0.09967-0.29218,0.11456-0.42828c0.01703-0.15765-0.07245-0.31653-0.05298-0.44788
		c0.02478-0.16632,0.05139-0.31311,0.07526-0.43359c0.0545-0.27563,0.31744-0.26666,0.12915-0.37799
		c-0.12848-0.07587-0.12726,0.00293-0.27655,0.00293c-0.21185,0-0.21185-0.03174-0.42371-0.03174
		c-0.21149,0-0.21149-0.0946-0.42334-0.0946s-0.21185,0.15363-0.42371,0.15363s-0.21185-0.1106-0.42401-0.1106
		c-0.23688,0-0.23688,0.0578-0.47382,0.0578s-0.23694,0.05853-0.47418,0.05853c-0.1496,0-0.13812-0.0946-0.26727-0.01874
		C72.42554,0.45557,72.5705,0.45111,72.625,0.72687c0.02386,0.1203,0.12079,0.25134,0.14551,0.41766
		c0.01984,0.13129,0.08429,0.27191,0.10132,0.42957c0.01489,0.13611,0.02814,0.28381,0.039,0.43805
		c0.00995,0.13873-0.10437,0.29102-0.09912,0.44354c0.005,0.14026,0.03998,0.28442,0.03998,0.43561
		c0,0.00134,0.06506-0.00403,0.06506-0.00269c0.00061,0.21716-0.00159,0.21729-0.00159,0.43439
		c0,0.21729,0.0282,0.21729,0.0282,0.43451c0,0.21729-0.13843,0.21729-0.13843,0.43439c0,0.21722,0.08112,0.21722,0.08112,0.43439
		c0,0.21729,0.04706,0.21729,0.04706,0.43433c0,0.21747-0.10529,0.21747-0.10529,0.43469c0,0.2171,0.12854,0.2171,0.12854,0.43439
		c0,0.21741-0.0542,0.21741-0.0542,0.43481c0,0.21729-0.05975,0.21729-0.06036,0.43451c0,0.00391,0.01111-0.0116,0.01111-0.00769
		c0,0.15094,0.0304,0.29944,0.02948,0.44519c-0.00067,0.15112,0.07928,0.30023,0.0777,0.4458
		c-0.00122,0.15131-0.10034,0.29858-0.10248,0.44415c-0.0022,0.15131,0.06531,0.30084,0.06219,0.44611
		c-0.00305,0.15179-0.04211,0.29919-0.04584,0.44409c-0.00403,0.1521-0.03931,0.29956-0.04395,0.44415
		c-0.00494,0.15204-0.03064,0.2995-0.03625,0.44385c-0.00586,0.15234-0.0675,0.29761-0.07434,0.44159
		c-0.00708,0.15271,0.06384,0.3045,0.05609,0.44788c-0.00836,0.15326-0.06909,0.29791-0.07806,0.44073
		c-0.00989,0.15387,0.04895,0.30627,0.03839,0.44843c-0.01147,0.15454-0.10742,0.29547-0.11951,0.4364
		c-0.01337,0.15576,0.05322,0.3103,0.03931,0.45001c-0.01581,0.15735,0.02881,0.31152,0.013,0.4494
		c-0.01825,0.15948-0.04706,0.30627-0.06537,0.44128c-0.02197,0.16388-0.16846,0.29175-0.18921,0.42157
		c-0.02814,0.17432-0.04706,0.31836-0.07031,0.43665c-0.06067,0.30505-0.25116,0.36237-0.03467,0.41376
		c0.2818,0.06689,0.28247,0.01984,0.57202,0.01984c0.23724,0,0.23724,0.07312,0.47418,0.07312s0.23694-0.12573,0.47382-0.12573
		c0.21185,0,0.21185,0.08514,0.42371,0.08514s0.21185,0.03253,0.42371,0.03253s0.21185-0.12482,0.42365-0.12482
		c0.21185,0,0.21185,0.1496,0.42371,0.1496c0.28925,0,0.29144-0.03687,0.57263-0.10376
		c0.21649-0.05139,0.00623-0.1109-0.05414-0.41626C76.01874,14.20367,76.01471,14.05688,75.98657,13.8822z"/>
	<path class="st0" d="M87.67529,0.32593c-0.12354-0.08301-0.12482,0.00433-0.2738,0.00433
		c-0.07928,0-0.07928-0.03174-0.15826-0.03174c-0.21613,0-0.21613-0.09448-0.43262-0.09448s-0.21649,0.1535-0.43268,0.1535
		c-0.21649,0-0.21649-0.1106-0.43268-0.1106c-0.2168,0-0.2168,0.0578-0.43329,0.0578S85.29547,0.3631,85.07904,0.3631
		c-0.0976,0-0.0976-0.0097-0.19482-0.0097c-0.1496,0-0.19391-0.18402-0.32581-0.11359
		c-0.1933,0.10345,0.06348,0.19733,0.08667,0.48474c0.00964,0.12128,0.06537,0.26526,0.07434,0.4353
		c0.00684,0.13177,0.013,0.27917,0.01794,0.43933c0.00403,0.13593-0.11487,0.28461-0.11334,0.44067
		c0.00159,0.13843,0.03473,0.28375,0.03381,0.4375c-0.00098,0.13983,0.06097,0.28693,0.05786,0.43933
		c-0.00305,0.14087-0.00928,0.28754-0.01483,0.43896c-0.00775,0.164,0.0127,0.3302,0.00586,0.49744
		c-0.00153,0.03143-0.14093,0.05664-0.14276,0.08838c0,0.00232,0.0827-0.00525,0.0824-0.00275
		c-0.00592,0.14801,0.03528,0.29919,0.03003,0.44983c-0.00525,0.14819-0.11523,0.29425-0.11957,0.44489
		c-0.00464,0.14838,0.11957,0.30139,0.11584,0.4519c-0.00372,0.1485-0.06134,0.29651-0.06445,0.44702
		c-0.00275,0.14856-0.06561,0.29718-0.06781,0.44757c-0.00214,0.14868,0.00806,0.29852,0.00653,0.44891
		c-0.00122,0.1488,0.02814,0.29871,0.02722,0.4491c-0.00061,0.1488,0.07965,0.2984,0.07965,0.44873
		c0,0.16571-0.07312,0.31805-0.0722,0.48236c-0.16382-0.15051-0.17438-0.1496-0.29144-0.33881
		c-0.11676-0.18921-0.08673-0.20795-0.20343-0.39722c-0.11713-0.18903-0.09076-0.20532-0.20782-0.39453
		c-0.11682-0.18921-0.09973-0.19995-0.2168-0.38898c-0.11676-0.18927-0.07001-0.21838-0.18707-0.40759
		c-0.11676-0.18921-0.18365-0.14777-0.30072-0.33698s-0.07312-0.21649-0.19019-0.40576
		c-0.11676-0.18921-0.1759-0.15265-0.29297-0.34186c-0.11676-0.18927-0.04523-0.23352-0.16199-0.42279
		c-0.11707-0.18921-0.18549-0.14679-0.30255-0.33606c-0.11713-0.18921-0.16882-0.15729-0.28589-0.34668
		c-0.11676-0.18909-0.10809-0.19452-0.22516-0.38373c-0.11707-0.18939-0.00989-0.25568-0.12701-0.44507
		c-0.11707-0.18939-0.12323-0.18549-0.2403-0.37488c0,0-0.0799,0.04584-0.0802,0.04553
		c-0.07495-0.16229-0.11896-0.32672-0.17126-0.47418c-0.06042-0.17084-0.03595-0.34906-0.07098-0.4989
		c-0.04181-0.1806-0.19073-0.32587-0.20441-0.47516c-0.01764-0.19476,0.06909-0.36621,0.08118-0.50525
		c0.02722-0.31995,0.31586-0.38092,0.11646-0.5332c-0.11865-0.0907-0.18213,0.11371-0.33142,0.11371
		c-0.09784,0-0.09784-0.14948-0.19543-0.14948c-0.21613,0-0.21613,0.10425-0.43268,0.10425
		c-0.21613,0-0.21613-0.06799-0.43262-0.06799c-0.2713,0-0.54291-0.0542-0.8139-0.04895
		c-0.18213,0.00342-0.35834,0.05316-0.54108,0.0307c-0.12915-0.01593-0.29022-0.10706-0.41528-0.02991
		c-0.22119,0.13593,0.18671,0.34174,0.23657,0.51147c0.03687,0.1261,0.02258,0.29419,0.06256,0.46832
		c0.03162,0.13843,0.06012,0.29266,0.08887,0.4588c0.02545,0.14398,0.10132,0.29218,0.12146,0.45557
		c0.01825,0.14746,0.02814,0.30634,0.04022,0.46826c0.00342,0.05377,0.02167,0.10516,0.02478,0.15936
		c0,0.00574-0.06689,0.01471-0.06628,0.02075c0.00867,0.15753,0.04211,0.31561,0.05017,0.47662
		c0.00775,0.15784-0.00275,0.31812,0.00403,0.47919c0.00684,0.1579,0.01178,0.31744,0.01794,0.47833
		c0.00592,0.15808,0.05457,0.31616,0.05951,0.47693c0.00494,0.15826,0.03992,0.31732,0.04395,0.47803
		c0.00439,0.15845-0.14862,0.32166-0.14557,0.48224c0.00342,0.15857,0.13257,0.31573,0.13507,0.47632
		c0.00244,0.15857-0.00433,0.31854-0.00281,0.47913c0.00159,0.15875-0.03839,0.31866-0.03778,0.47913
		c0.00092,0.15887-0.06873,0.31854-0.06873,0.47894c0,0.15613,0.03064,0.3114,0.03003,0.46613
		c-0.00092,0.15625,0.02789,0.31189,0.02631,0.46643c-0.00153,0.15607,0.06256,0.31281,0.06036,0.46704
		c-0.00244,0.15643-0.05573,0.31122-0.05878,0.46552c-0.00311,0.15637,0.02509,0.31281,0.02106,0.46698
		c-0.00403,0.15674-0.13568,0.30853-0.14062,0.4624c-0.00494,0.15674-0.01117,0.31158-0.01703,0.46552
		c-0.00562,0.15668,0.15515,0.31873,0.14868,0.47235c-0.00684,0.15698-0.09082,0.30908-0.09821,0.46265
		c-0.00745,0.15674,0.01984,0.31409,0.01141,0.46771c-0.00861,0.15668,0.01367,0.31494,0.00439,0.46826
		c-0.013,0.15051-0.07001,0.29327-0.08826,0.43018c-0.02051,0.15173-0.11182,0.28369-0.1366,0.41748
		c-0.02881,0.15424-0.05731,0.29456-0.08826,0.42279c-0.03876,0.16162-0.07593,0.30035-0.11151,0.41711
		c-0.08081,0.26483-0.30322,0.31592-0.11798,0.42896c0.12756,0.07776,0.15546,0.00098,0.30505,0.00098
		c0.05542,0,0.05542-0.02728,0.11053-0.02728c0.24066,0,0.24066-0.07062,0.48132-0.07062c0.2406,0,0.2406,0.02386,0.48126,0.02386
		s0.24066,0.00928,0.48132,0.00928c0.2406,0,0.2406,0.10315,0.48126,0.10315c0.2406,0,0.24127,0.00403,0.48193,0.00153
		c0.00275,0-0.06415-0.05762-0.06384-0.06006c0.00061-0.00775,0.0152-0.01611,0.01611-0.02386
		c-0.00122,0.01459,0.03406,0.0155,0.04865,0.01672c0.14893,0.01489,0.13995,0.03223,0.27563-0.03094
		c0.19727-0.09167,0.05792-0.08331,0.02509-0.38965c-0.01239-0.11676-0.04248-0.25549-0.05206-0.42896
		c-0.00708-0.12787-0.07123-0.2691-0.07495-0.4314c-0.00305-0.13287,0.06165-0.27753,0.06195-0.43481
		c0.00031-0.13538-0.07434-0.28064-0.07062-0.43518c0.00281-0.13721-0.0257-0.28308-0.01978-0.43604
		c0.00031-0.01398,0.09814,0.04578,0.09906,0.03186c0.00836-0.15363-0.03247-0.31122-0.02509-0.46826
		c0.00745-0.15393,0.09265-0.30597,0.09943-0.46271c0.00653-0.15393-0.07306-0.31311-0.0675-0.46985
		c0.00586-0.15424,0.04401-0.30847,0.04895-0.46515c0.00464-0.15424,0.00183-0.31,0.00586-0.46674
		c0.00372-0.15424,0.02631-0.30945,0.02972-0.46613c0.00311-0.15454-0.04431-0.31097-0.04181-0.46765
		c0.0022-0.15454-0.03003-0.3103-0.0285-0.46674c0.00159-0.15454,0.06879-0.30975,0.0694-0.46613
		c0.00092-0.15466-0.07526-0.31049-0.07526-0.46674c0-0.19604,0.10468-0.45251,0.10376-0.64587
		c0.1756,0.14539,0.11365,0.22949,0.23224,0.42432c0.11896,0.19464,0.02856,0.24976,0.14746,0.4444
		c0.11859,0.19482,0.08984,0.21234,0.20874,0.40698c0.11859,0.19464,0.17841,0.15808,0.2973,0.35291
		c0.11865,0.19482,0.07404,0.22174,0.19263,0.41656c0.11896,0.19482,0.22522,0.13007,0.34412,0.32489
		c0.11865,0.19446,0.05792,0.23163,0.17688,0.42615c0.11859,0.19476,0.18518,0.15454,0.30377,0.34906
		c0.11865,0.19476,0.10565,0.20282,0.22455,0.39764c0.11859,0.19482,0.07806,0.2193,0.19696,0.41406
		c0.11865,0.19452,0.06567,0.22675,0.18463,0.42151c0.11859,0.19482,0.21741,0.13477,0.336,0.32953
		c0.11896,0.19482,0.13568,0.18463,0.25427,0.37946c0.1189,0.19476,0.02167,0.25397,0.14062,0.44904
		c0.11859,0.19482,0.19171,0.15051,0.30908,0.34656c0.00092,0.0022-0.00342,0.00934-0.0025,0.01147
		c0.05731,0.18054,0.07745,0.35339,0.11212,0.5033c0.04462,0.19135-0.00336,0.36914,0.01178,0.51599
		c0.02203,0.21149,0.07245,0.37317,0.05481,0.50604c-0.04767,0.36237-0.3667,0.26172-0.15326,0.40448
		c0.12415,0.08331,0.10992,0.0697,0.25952,0.0697c0.09784,0,0.09784,0.04645,0.19574,0.04645
		c0.22083,0,0.22083-0.00494,0.44196-0.00494c0.22083,0,0.22083-0.0722,0.44196-0.0722s0.22113-0.04987,0.44196-0.04987
		c0.22113,0,0.22113,0.03375,0.44226,0.03375s0.22113,0.08765,0.44226,0.08765c0.05542,0,0.05542-0.11053,0.11115-0.11053
		c0.14899,0,0.13135,0.07184,0.25867-0.00592c0.18488-0.11334,0.01141-0.09009-0.0697-0.35492
		c-0.03564-0.11676-0.17657-0.2301-0.21558-0.39148c-0.03094-0.12817,0.03003-0.29077,0.00153-0.44501
		c-0.02478-0.13348-0.1449-0.26233-0.16534-0.41382c-0.01855-0.13684,0.08765-0.29419,0.07465-0.4447
		c-0.00934-0.15332-0.08795-0.30383-0.09668-0.46057c-0.00836-0.15363,0.04059-0.31183,0.03284-0.46857
		c-0.00739-0.15363-0.13684-0.30353-0.14368-0.46057c-0.00653-0.15363,0.13721-0.31494,0.13135-0.47168
		c-0.00562-0.15387-0.11743-0.30566-0.12207-0.4624c-0.00494-0.15393,0.07648-0.31183,0.07245-0.46826
		c-0.00366-0.15424-0.03558-0.30908-0.0387-0.46545c-0.00305-0.15454,0.04242-0.31067,0.03998-0.4671
		c-0.0022-0.15454-0.02289-0.30939-0.02478-0.46576c-0.00159-0.15454-0.12756-0.30914-0.12854-0.46552
		c-0.00061-0.15466,0.14587-0.31049,0.14587-0.46674c0-0.15997-0.03223-0.31897-0.03156-0.47723
		c0.00092-0.16016-0.08368-0.31995-0.08209-0.47821c0.00153-0.1601,0.04675-0.31885,0.04926-0.47711
		c0.00244-0.1601,0.07336-0.31787,0.07648-0.47601c0.00342-0.16028-0.0235-0.31976-0.01923-0.47772
		c0.00403-0.16046-0.04895-0.32117-0.04395-0.479c0.00494-0.16022,0.07214-0.31726,0.078-0.47491
		c0.00623-0.1604,0.0462-0.31793,0.05298-0.4754c0.00714-0.16058,0.005-0.31964,0.0127-0.47681
		c0.00806-0.16058-0.0368-0.32208-0.0282-0.47925c0.00098-0.01367,0.06787-0.02356,0.06879-0.03748
		c0.00281-0.04956-0.05328-0.09973-0.05048-0.14899c0.01208-0.16211-0.00281-0.32037,0.0155-0.46796
		c0.02008-0.16351,0.11829-0.30566,0.14337-0.44983c0.02911-0.16632-0.04675-0.34082-0.01514-0.47931
		c0.03992-0.17438,0.08173-0.32874,0.1189-0.45477C87.58301,0.43097,87.86914,0.45605,87.67529,0.32593z"/>
	<path class="st0" d="M70.6416,2.70557c-0.01483-0.15991,0.04767-0.32751,0.03656-0.48773
		c-0.01147-0.1637-0.13037-0.31903-0.13873-0.47589c-0.00897-0.16833-0.0155-0.33154-0.02106-0.48376
		c-0.00684-0.17749-0.00189-0.3418-0.00494-0.48425c-0.00531-0.21942,0.02911-0.3504,0.02911-0.4444
		c-0.23138-0.0462-0.22833-0.03101-0.46399-0.03101c-0.23602,0-0.23602-0.09448-0.47198-0.09448
		c-0.23602,0-0.23602,0.1535-0.47198,0.1535c-0.23602,0-0.23602-0.1106-0.47168-0.1106c-0.23602,0-0.23602,0.0578-0.47205,0.0578
		c-0.23596,0-0.23596,0.05835-0.47198,0.05835c-0.23596,0-0.23596-0.0097-0.47198-0.0097s-0.23602-0.12024-0.47168-0.12024
		c-0.23602,0-0.23602,0.07251-0.47198,0.07251c-0.23633,0-0.23633,0.04553-0.47235,0.04553
		c-0.23596,0-0.23596-0.00018-0.47198-0.00018c-0.23596,0-0.23596-0.12213-0.47198-0.12213
		c-0.20966,0-0.20966,0.03247-0.41937,0.03247c-0.20966,0-0.20966,0.06396-0.41962,0.06396
		c-0.20972,0-0.20972-0.00171-0.41968-0.00171c-0.27502,0-0.27502,0.0282-0.55035,0.0282S62.80255,0.2135,62.52722,0.2135
		c-0.07898,0-0.07898,0.08118-0.15765,0.08118c-0.14954,0-0.14587-0.04504-0.27002,0.03827
		c-0.19421,0.13037-0.01398,0.12817,0.06995,0.41449c0.03717,0.1264,0.20197,0.24609,0.24188,0.42059
		c0.03192,0.13879,0.01056,0.30505,0.03967,0.47156c0.02509,0.14435-0.01117,0.30707,0.00897,0.47089
		c0.01794,0.14777,0.04553,0.30011,0.05756,0.46259c0.00281,0.04303,0.03625,0.08173,0.03876,0.12512
		c0.00153,0.02478,0.08362,0.04535,0.08484,0.07043c0.00867,0.15637-0.0799,0.31995-0.07214,0.48004
		c0.00775,0.15674,0.08514,0.31201,0.09198,0.47198c0.00684,0.15692-0.02228,0.31689-0.01642,0.47681
		c0.00592,0.15704-0.01984,0.31653-0.01453,0.4762c0.00494,0.15717-0.01086,0.31622-0.00684,0.47589
		c0.00433,0.15729-0.04742,0.31665-0.04395,0.47632c0.00305,0.15747,0.08453,0.31433,0.08698,0.474
		c0.0025,0.15753-0.04706,0.31653-0.04553,0.47601c0.00159,0.15765,0.0722,0.31561,0.07281,0.47498
		c0.00092,0.15778-0.08301,0.31653-0.08301,0.47583c0,0.15594,0.0802,0.31116,0.07928,0.46552
		c-0.00061,0.15613,0.05884,0.31189,0.05731,0.46613c-0.00159,0.15607-0.01367,0.31152-0.01611,0.46582
		c-0.00214,0.15607-0.13104,0.30908-0.1344,0.46332c-0.00311,0.15607,0.00061,0.31122-0.00342,0.46515
		c-0.00403,0.15643,0.08423,0.31403,0.07959,0.46796c-0.00494,0.15643-0.03101,0.31097-0.03656,0.4649
		c-0.00555,0.15643-0.08453,0.30847-0.091,0.46204c-0.00684,0.15643,0.11145,0.3172,0.104,0.47076
		c-0.00745,0.15643-0.10034,0.30725-0.1087,0.46057c-0.00867,0.15674-0.05017,0.30878-0.05945,0.46179
		c-0.0127,0.15112,0.09509,0.30878,0.07678,0.44629c-0.02045,0.15234-0.19104,0.27222-0.21613,0.40631
		c-0.0285,0.15491,0.04303,0.3175,0.01202,0.44598c-0.039,0.16229-0.14368,0.28461-0.17963,0.40198
		c-0.08826,0.289-0.38739,0.50269,0.08801,0.4519c0.43634-0.04675,0.92816,0.07959,1.35156-0.00311
		c0.1452-0.0285,0.2301-0.10529,0.38989-0.09814c0.13629,0.00616,0.26355,0.05481,0.40167,0.05481
		c0.22742,0,0.24609,0.00507,0.44983,0.00354c0.03717-0.00372,0.09393-0.00653,0.09436-0.01221
		c-0.00092,0.01453-0.07001-0.05048-0.05511-0.04895c0.14838,0.01489,0.15234,0.13068,0.28735,0.06781
		c0.19733-0.09198-0.06439-0.11212-0.09686-0.4184c-0.01276-0.11676-0.00684-0.26294-0.01678-0.4364
		c-0.00708-0.12793-0.01141-0.27283-0.01514-0.43481c-0.00281-0.13287-0.04736-0.27814-0.04712-0.43549
		c0.00031-0.13531-0.02814-0.2818-0.02478-0.43634c0.00311-0.13721,0.16418-0.27814,0.17035-0.43109
		c0.00031-0.01892-0.13007,0.0517-0.12878,0.03308c0.00806-0.15173,0.02472-0.30475,0.03247-0.4599
		c0.00714-0.15204,0.05542-0.30353,0.06195-0.45868c0.00647-0.15204,0.0827-0.30322,0.08832-0.45807
		c0.00549-0.15234-0.02051-0.3075-0.01587-0.4624c0.0047-0.15234-0.02075-0.30688-0.01672-0.46173
		C65.17645,9.7439,65.11395,9.58875,65.117,9.4339c0.00311-0.15271,0.0647-0.31683,0.0672-0.47168
		c0.21002-0.07251,0.22638-0.03253,0.44879-0.03253c0.22235,0,0.22235,0.12756,0.44446,0.12756
		c0.22235,0,0.22235,0.00098,0.4447,0.00098c0.22241,0,0.22241-0.16699,0.44476-0.16699c0.1601,0,0.31403,0.08148,0.4599,0.08984
		c0.16199,0.00897,0.31934-0.0127,0.4624,0.00342c0.1651,0.01892,0.32489,0.01086,0.46271,0.03497
		c0.1731,0.0307,0.31897,0.10406,0.44476,0.13538c0.28369,0.07031,0.35333,0.38123,0.46423,0.18024
		c0.08301-0.15021,0.00275-0.18951,0.00275-0.36115c0-0.24097-0.00153-0.24097-0.00153-0.48218
		c0-0.24127-0.02136-0.24127-0.02136-0.48224c0-0.24127-0.00092-0.24127-0.00092-0.48254c0-0.24109-0.02728-0.24109-0.02728-0.48236
		s-0.07031-0.24127-0.07031-0.48254c0-0.24109,0.02356-0.24109,0.02356-0.48236c0-0.17188,0.09882-0.16736,0.01581-0.31775
		c-0.1109-0.20129-0.12109-0.01318-0.40509,0.05743c-0.12543,0.03113-0.27289,0.06226-0.44629,0.09277
		c-0.13751,0.02429-0.2738,0.16028-0.43854,0.17902c-0.14313,0.01642-0.30603-0.0827-0.46802-0.07373
		c-0.14587,0.00806-0.29669,0.07825-0.45679,0.07825c-0.22211,0-0.22211,0.03577-0.44446,0.03577s-0.22235-0.1236-0.4444-0.1236
		c-0.22241,0-0.22241,0.01831-0.44476,0.01831c-0.22272,0-0.23755,0.13361-0.44659,0.05786
		c-0.0025-0.16199,0.05762-0.32874,0.0542-0.48859c-0.00342-0.16211-0.08331-0.32129-0.08734-0.48108
		c-0.00433-0.16217-0.04211-0.32184-0.04712-0.48145c-0.00525-0.16229,0.09015-0.32678,0.08429-0.48608
		c-0.00623-0.16248-0.06165-0.32135-0.06873-0.48053c-0.00714-0.16248,0.00708-0.24469-0.00098-0.40369
		c0.22919-0.07666,0.21558-0.08148,0.45715-0.08148s0.24158,0.03302,0.48315,0.03302s0.24158-0.00732,0.48309-0.00732
		c0.24158,0,0.24158,0.01892,0.48315,0.01892s0.24158-0.05005,0.48315-0.05005s0.24158-0.03418,0.48346-0.03418
		c0.24158,0,0.24158,0.06598,0.48315,0.06598c0.16138,0,0.31934-0.07202,0.46704-0.06366
		c0.16321,0.00909,0.32397-0.00702,0.46857,0.00946c0.16663,0.01886,0.32025,0.06891,0.45959,0.09332
		c0.17468,0.03052,0.30542,0.16711,0.43268,0.19836c0.28619,0.07019,0.2608,0.22614,0.47974,0.14917
		c-0.01764-0.10999-0.04614-0.29297-0.06097-0.41119C70.70447,3.0271,70.6568,2.86884,70.6416,2.70557z"/>
	<path class="st0" d="M99.21448,13.94043c-0.06073-0.12634-0.15399-0.25458-0.22272-0.41034
		c-0.05853-0.13226-0.13129-0.271-0.19446-0.42462c-0.05609-0.13562-0.05762-0.30261-0.11621-0.45526
		c-0.05292-0.13873-0.05603-0.30225-0.11053-0.45465c-0.04987-0.1394-0.22021-0.23755-0.27039-0.3797
		c-0.04926-0.13971-0.10345-0.27936-0.15271-0.42151c-0.04858-0.14032-0.05322-0.297-0.10187-0.43945
		c-0.04773-0.14032-0.01825-0.30786-0.06598-0.45068c-0.04706-0.14093-0.16504-0.25891-0.21179-0.40198
		c-0.0462-0.14124-0.14435-0.26666-0.19019-0.40973C97.53241,9.5506,97.56,9.38495,97.51538,9.24152
		c-0.04431-0.14178-0.06348-0.2923-0.10718-0.43573c-0.04333-0.14246-0.08362-0.28613-0.12604-0.43018
		c-0.04242-0.14276-0.16443-0.26294-0.20563-0.40729c-0.0412-0.14307,0.02814-0.31775-0.01208-0.4624
		c-0.04089-0.14789-0.10004-0.28943-0.1391-0.43591c-0.03992-0.14832-0.19043-0.26648-0.22852-0.41333
		c-0.03845-0.14862-0.01611-0.31195-0.05298-0.45911c-0.03717-0.14911-0.02759-0.30835-0.06317-0.45575
		c-0.03595-0.14923-0.05609-0.3009-0.09076-0.44843c-0.03497-0.14978-0.14465-0.28076-0.1781-0.42853
		c-0.03375-0.15002,0.0025-0.31421-0.02972-0.46191c-0.03278-0.15033-0.18707-0.27332-0.21832-0.4212
		c-0.03192-0.15063-0.01208-0.31091-0.04242-0.4588c-0.03101-0.151-0.13104-0.29254-0.16046-0.44061
		c-0.00153-0.0097,0.04712,0.02136,0.04584,0.01166c-0.03345-0.16357,0.04242-0.33466,0.01794-0.48096
		c-0.02783-0.1665-0.02289-0.32306-0.04083-0.46832c-0.02075-0.17065-0.06476-0.32037-0.07404-0.46362
		c-0.01117-0.177-0.09137-0.33081-0.08887-0.46906c0.00275-0.19031,0.08234-0.33899,0.10065-0.46429
		c0.04828-0.33075,0.31183-0.38776,0.08887-0.46594c-0.20007-0.07031-0.2149,0.04956-0.42706,0.04956
		c-0.03064,0-0.03064-0.01904-0.06104-0.01904c-0.0672,0-0.0672,0.00745-0.1344,0.00745V0.28674
		c-0.23846,0-0.23846,0.08582-0.47662,0.08582c-0.23853,0-0.23853-0.07837-0.47668-0.07837
		c-0.23846,0-0.23846,0.04907-0.47662,0.04907S93.61987,0.242,93.38141,0.242c-0.23822,0-0.23822,0.03302-0.47638,0.03302
		c0,0,0,0.07629-0.00031,0.07629c-0.0672,0-0.0672-0.06628-0.13409-0.06628c-0.03064,0-0.03064,0.05841-0.06104,0.05841
		c-0.21246,0-0.20068-0.05621-0.40106,0.0141c-0.22266,0.07837,0.00531,0.06067,0.05389,0.3916
		c0.01825,0.12512,0.0672,0.27332,0.07031,0.4635c0.00214,0.13831,0.06439,0.29797,0.05298,0.4751
		c-0.00897,0.14307-0.13599,0.28882-0.15674,0.45947c-0.01794,0.14539,0.07312,0.31714,0.04523,0.48376
		c-0.02448,0.1463-0.0542,0.29944-0.08765,0.46301C92.28528,3.10388,92.198,3.05511,92.19678,3.065
		c-0.02979,0.14789-0.06848,0.29163-0.09943,0.44244c-0.0304,0.14807-0.08459,0.29205-0.11646,0.44275
		c-0.03131,0.14789,0.00555,0.31152-0.02728,0.46204c-0.03253,0.14777-0.0387,0.30261-0.07275,0.45264
		c-0.03314,0.14758-0.06659,0.29657-0.10162,0.44635c-0.03436,0.14752-0.04895,0.30115-0.08514,0.45062
		c-0.03564,0.14722-0.07031,0.29608-0.10748,0.44519c-0.03687,0.14709-0.07275,0.29559-0.11121,0.4444
		c-0.03809,0.14679-0.14368,0.27692-0.18365,0.42529c-0.03931,0.14648-0.11829,0.28259-0.15948,0.43048
		c-0.03998,0.14441-0.05017,0.29651-0.09137,0.43958c-0.0412,0.14435-0.04895,0.29749-0.09106,0.44031
		c-0.04272,0.14398-0.15948,0.26477-0.20251,0.40723c-0.0437,0.14374,0.07214,0.33575,0.02759,0.4776
		c-0.04462,0.14337-0.09113,0.28619-0.13629,0.42773c-0.04584,0.14337-0.21338,0.24615-0.25952,0.38739
		c-0.04681,0.14313-0.06354,0.29486-0.1106,0.43549c-0.04767,0.14276-0.14307,0.26788-0.1911,0.40851
		c-0.04865,0.14246-0.03436,0.30505-0.08301,0.44537c-0.0495,0.14215-0.07056,0.29327-0.12018,0.43292
		c-0.0498,0.14221-0.07056,0.29395-0.12048,0.43329c-0.05475,0.1524-0.17493,0.27441-0.22821,0.41321
		c-0.05853,0.15234-0.15424,0.28088-0.20996,0.41681c-0.06323,0.15332-0.13196,0.29144-0.19049,0.42371
		c-0.06909,0.15546-0.01984,0.34967-0.0802,0.47601c-0.07837,0.16321-0.289,0.23077-0.34937,0.34534
		c-0.14282,0.27008-0.35248,0.31311-0.19421,0.48376c0.0719,0.07739,0.14716-0.02509,0.25305-0.02509
		c0.04333,0,0.04333,0.00153,0.08704,0.00153c0.23969,0,0.23969,0.01801,0.47943,0.01801c0.23938,0,0.23938-0.02478,0.47906-0.02478
		c0.23975,0,0.23975,0.0672,0.47949,0.0672c0.23938,0,0.23938-0.01428,0.47913-0.01428c0.23938,0,0.23938,0.00623,0.47882,0.00623
		c0.01703,0,0.01703-0.05298,0.03436-0.05298c0.24524,0,0.25952,0.0697,0.49554,0.0025
		c0.23785-0.06781,0.0083-0.13599,0.02411-0.50208c0.00562-0.13068-0.13934-0.30939-0.10742-0.50787
		c0.02258-0.14221,0.05511-0.30847,0.09662-0.4903c0.03345-0.14587,0.21954-0.26886,0.26788-0.44226
		c0.04089-0.1474,0.03809-0.31873,0.09137-0.48718c0.00244-0.00806,0.0127,0.00079,0.02167,0.01331
		c-0.01251-0.0274-0.0274-0.05792-0.02448-0.06659c0.1604,0.04645,0.30878,0.15393,0.47168,0.18927
		c0.16296,0.03497,0.34381-0.03876,0.50946-0.01489c0.16449,0.0235,0.31439,0.18988,0.48132,0.20166
		c0.16571,0.01172,0.33759-0.10687,0.50543-0.10687c0.01025,0,0.02075,0.03186,0.03094,0.03186
		c0.01086,0,0.02106,0.08582,0.03162,0.08582c0.16138,0,0.31744-0.13129,0.47662-0.14246
		c0.16077-0.01117,0.32617,0.04486,0.48474,0.02289c0.15918-0.02228,0.32208-0.02972,0.47906-0.06256
		c0.15704-0.03284,0.33826-0.15387,0.4928-0.19666c0.05292,0.16785,0.13348,0.35895,0.17401,0.50574
		c0.04803,0.17285-0.03436,0.36267-0.00122,0.50793c0.0412,0.18091,0.06104,0.33887,0.08331,0.48035
		c0.03131,0.19733,0.10657,0.34814,0.11212,0.47821c0.0152,0.36456-0.25519,0.34845-0.01855,0.41565
		c0.23627,0.06689,0.22546,0.08173,0.47107,0.08173c0.01703,0,0.01703-0.06964,0.03406-0.06964
		c0.23969,0,0.23969,0.052,0.47943,0.052c0.23969,0,0.23969-0.07898,0.47913-0.07898c0.23969,0,0.23969,0.05542,0.47943,0.05542
		c0.23938,0,0.23938,0.02014,0.47913,0.02014c0.23938,0,0.23938,0.03101,0.47876,0.03101c0.0437,0,0.0437,0.03564,0.08734,0.03564
		c0.10596,0,0.13013,0.01172,0.20197-0.06573c0.15857-0.17059-0.0025-0.16504-0.14526-0.43542
		C99.43494,14.20465,99.29285,14.1037,99.21448,13.94043z M94.7063,9.83557c-0.20966,0.02289-0.45435-0.05139-0.67017-0.05664
		c-0.22919-0.00562-0.45898-0.02509-0.68542-0.06104c-0.12604-0.01984-0.22388-0.026-0.34717-0.05511
		c0.04272-0.14221,0.026-0.27814,0.06842-0.42188c0.04248-0.14246,0.05298-0.2948,0.09509-0.43884
		c0.0415-0.14276,0.20068-0.25208,0.24219-0.39612c0.04089-0.14307,0.08209-0.28674,0.12268-0.43109
		c0.04053-0.14313,0.03717-0.2995,0.07709-0.44397c0.04523-0.16327,0.01953-0.34424,0.06256-0.50574
		c0.04364-0.16376,0.20258-0.29596,0.24408-0.45776c0.04211-0.164,0.0929-0.3252,0.13281-0.48737
		c0.04089-0.16443,0.00934-0.33057,0.04773-0.49286c0.03906,0.16229,0.12018,0.30054,0.16071,0.46503
		c0.04028,0.16193-0.0257,0.35211,0.01642,0.51624c0.04156,0.16187,0.2326,0.28558,0.27631,0.4491
		c0.04303,0.1615-0.00403,0.34827,0.0412,0.51147c0.04022,0.14575,0.05048,0.29938,0.09137,0.44366
		c0.04083,0.14575,0.07928,0.29144,0.12073,0.43579c0.04187,0.14526,0.07434,0.29297,0.11646,0.43665
		c0.04248,0.14526,0.08459,0.29022,0.12701,0.43396c0.04303,0.1449,0.18304,0.30658,0.22607,0.44995
		C95.099,9.76648,94.88409,9.81573,94.7063,9.83557z"/>
	<path class="st0" d="M96.0802,12.37457c0-0.00061,0-0.02197,0-0.02167c0.0025,0.00739-0.07062,0.04364-0.06818,0.05109
		C96.008,12.39313,96.04736,12.3938,96.0802,12.37457z"/>
</g>
</svg>
