<?xml version="1.0" encoding="utf-8"?>
<!-- Generator: Adobe Illustrator 21.1.0, SVG Export Plug-In . SVG Version: 6.00 Build 0)  -->
<svg version="1.1" id="レイヤー_1" xmlns="http://www.w3.org/2000/svg" xmlns:xlink="http://www.w3.org/1999/xlink" x="0px"
	 y="0px" viewBox="0 0 25 25" style="enable-background:new 0 0 25 25;" xml:space="preserve">
<style type="text/css">
	.st0{fill:#562608;}
</style>
<g>
	<path class="st0" d="M24.9949,4.8597L24.9949,4.8597L24.9949,4.8597 M17.3051,2.4897c-2.8321,0-5.1282,2.2631-5.1282,5.053
		c0,0.3972,0.0453,0.7825,0.1327,1.1521c-4.2619-0.2103-8.0405-2.2226-10.5697-5.28C1.2984,4.161,1.0457,5.029,1.0457,5.9549
		c0,1.7543,0.9051,3.3002,2.2812,4.2076c-0.8405-0.0262-1.6313-0.2542-2.3228-0.6318c-0.0002,0.021-0.0004,0.0415-0.0004,0.0629
		c0,2.4486,1.7676,4.4913,4.1137,4.9558c-0.4303,0.1149-0.8835,0.1774-1.3509,0.1774c-0.3306,0-0.652-0.0315-0.965-0.0906
		c0.6528,2.0084,2.5462,3.469,4.7905,3.5104c-1.7551,1.3552-3.9664,2.1635-6.3688,2.1635c-0.4139,0-0.822-0.0244-1.2232-0.0711
		c2.2693,1.4348,4.9646,2.2712,7.8607,2.2712c9.4325,0,14.5904-7.7014,14.5904-14.3805c0-0.2193-0.0051-0.4368-0.0147-0.6542
		c1.0018-0.7124,1.871-1.6026,2.5585-2.6159c-0.9195,0.4015-1.9079,0.6737-2.9452,0.7949c1.0589-0.6247,1.8719-1.6151,2.2546-2.7953
		c-0.9905,0.5784-2.0881,1-3.256,1.226C20.1127,3.103,18.7799,2.4897,17.3051,2.4897"/>
</g>
</svg>
